<?xml version="1.0" encoding="iso-8859-1" standalone="no"?>
<!DOCTYPE svg PUBLIC "-//W3C//DTD SVG 20010904//EN" 
  "http://www.w3.org/TR/2001/REC-SVG-20010904/DTD/svg10.dtd" [ 
<!ENTITY ff "font-family:">
<!ENTITY fs "font-size:">
<!ENTITY fw "font-weight:">
<!ENTITY fst "font-style:">
<!ENTITY sw "stroke-width:">
<!ENTITY as "text-anchor:start;">
<!ENTITY am "text-anchor:middle;">
<!ENTITY ae "text-anchor:end;">
]>
<!-- Generated by ploticus (http://ploticus.sourceforge.net/)
Title: ploticus-graphic
SVG Driver by B.Traill
-->
<svg xmlns="http://www.w3.org/2000/svg" 
  viewBox="0 0 715.12 283.28"      
  xmlns:xlink="http://www.w3.org/1999/xlink"
>
<g transform="translate(-31.20,-260.16)" >                                                       

<g style="fill:#000000;stroke:#000000;&ff;Helvetica;">
<g style="&sw;0.6;&fs;10pt;&as;">
<text x="72.00" y="286.56" stroke="none">Cloudmesh Reservation</text>
</g><g style="&sw;0.6;&fs;8pt;&am;">
<text x="72.00" y="519.04" stroke="none">10</text>
<text x="72.00" y="529.04" stroke="none">Jul14</text>
</g><g style="&sw;0.5;&fs;8pt;&am;">
<path d="M72 509l0 -5.04" fill="none"/>
<text x="201.60" y="519.04" stroke="none">11</text>
<path d="M201.6 509l0 -5.04" fill="none"/>
<text x="331.20" y="519.04" stroke="none">12</text>
<path d="M331.2 509l0 -5.04" fill="none"/>
<text x="460.80" y="519.04" stroke="none">13</text>
<path d="M460.8 509l0 -5.04" fill="none"/>
<text x="590.40" y="519.04" stroke="none">14</text>
<path d="M590.4 509l0 -5.04" fill="none"/>
<text x="720.00" y="519.04" stroke="none">15</text>
<path d="M720 509l0 -5.04" fill="none"/>
<path d="M72 504l648 0" fill="none"/>
</g><g style="&sw;0.5;&fs;8pt;&ae;">
<text x="61.20" y="327.00" stroke="none">m04</text>
<path d="M66.96 324l5.04 0" fill="none"/>
<text x="61.20" y="363.00" stroke="none">m05</text>
<path d="M66.96 360l5.04 0" fill="none"/>
<text x="61.20" y="399.00" stroke="none">m02</text>
<path d="M66.96 396l5.04 0" fill="none"/>
<text x="61.20" y="435.00" stroke="none">m03</text>
<path d="M66.96 432l5.04 0" fill="none"/>
<text x="61.20" y="471.00" stroke="none">m01</text>
<path d="M66.96 468l5.04 0" fill="none"/>
<path d="M72 504l0 -216" fill="none"/>
<path d="M146 482.4l0 0l0 -28.8l0 0z" fill="#b2b2ff" stroke="#b2b2ff"/>
<path d="M146 482.4l0 0l0 -28.8l0 0l0 28.8" fill="none"/>
<path d="M173 482.4l54 0l0 -28.8l-54 0z" fill="#b2b2ff" stroke="#b2b2ff"/>
<path d="M173 482.4l54 0l0 -28.8l-54 0l0 28.8" fill="none"/>
<path d="M259.4 482.4l0 0l0 -28.8l0 0z" fill="#b2b2ff" stroke="#b2b2ff"/>
<path d="M259.4 482.4l0 0l0 -28.8l0 0l0 28.8" fill="none"/>
<path d="M302.6 482.4l16.2 0l0 -28.8l-16.2 0z" fill="#b2b2ff" stroke="#b2b2ff"/>
<path d="M302.6 482.4l16.2 0l0 -28.8l-16.2 0l0 28.8" fill="none"/>
<path d="M356.6 482.4l10.8 0l0 -28.8l-10.8 0z" fill="#b2b2ff" stroke="#b2b2ff"/>
<path d="M356.6 482.4l10.8 0l0 -28.8l-10.8 0l0 28.8" fill="none"/>
<path d="M421.4 482.4l43.2 0l0 -28.8l-43.2 0z" fill="#b2b2ff" stroke="#b2b2ff"/>
<path d="M421.4 482.4l43.2 0l0 -28.8l-43.2 0l0 28.8" fill="none"/>
<path d="M507.8 482.4l32.4 0l0 -28.8l-32.4 0z" fill="#b2b2ff" stroke="#b2b2ff"/>
<path d="M507.8 482.4l32.4 0l0 -28.8l-32.4 0l0 28.8" fill="none"/>
<path d="M594.2 482.4l37.8 0l0 -28.8l-37.8 0z" fill="#b2b2ff" stroke="#b2b2ff"/>
<path d="M594.2 482.4l37.8 0l0 -28.8l-37.8 0l0 28.8" fill="none"/>
<path d="M664.4 482.4l21.6 0l0 -28.8l-21.6 0z" fill="#b2b2ff" stroke="#b2b2ff"/>
<path d="M664.4 482.4l21.6 0l0 -28.8l-21.6 0l0 28.8" fill="none"/>
<path d="M707.6 482.4l5.4 0l0 -28.8l-5.4 0z" fill="#b2b2ff" stroke="#b2b2ff"/>
<path d="M707.6 482.4l5.4 0l0 -28.8l-5.4 0l0 28.8" fill="none"/>
<path d="M129.8 410.4l10.8 0l0 -28.8l-10.8 0z" fill="#b2b2ff" stroke="#b2b2ff"/>
<path d="M129.8 410.4l10.8 0l0 -28.8l-10.8 0l0 28.8" fill="none"/>
<path d="M162.2 410.4l54 0l0 -28.8l-54 0z" fill="#b2b2ff" stroke="#b2b2ff"/>
<path d="M162.2 410.4l54 0l0 -28.8l-54 0l0 28.8" fill="none"/>
<path d="M248.6 410.4l16.2 0l0 -28.8l-16.2 0z" fill="#b2b2ff" stroke="#b2b2ff"/>
<path d="M248.6 410.4l16.2 0l0 -28.8l-16.2 0l0 28.8" fill="none"/>
<path d="M297.2 410.4l16.2 0l0 -28.8l-16.2 0z" fill="#b2b2ff" stroke="#b2b2ff"/>
<path d="M297.2 410.4l16.2 0l0 -28.8l-16.2 0l0 28.8" fill="none"/>
<path d="M335 410.4l37.8 0l0 -28.8l-37.8 0z" fill="#b2b2ff" stroke="#b2b2ff"/>
<path d="M335 410.4l37.8 0l0 -28.8l-37.8 0l0 28.8" fill="none"/>
<path d="M416 410.4l5.4 0l0 -28.8l-5.4 0z" fill="#b2b2ff" stroke="#b2b2ff"/>
<path d="M416 410.4l5.4 0l0 -28.8l-5.4 0l0 28.8" fill="none"/>
<path d="M443 410.4l5.4 0l0 -28.8l-5.4 0z" fill="#b2b2ff" stroke="#b2b2ff"/>
<path d="M443 410.4l5.4 0l0 -28.8l-5.4 0l0 28.8" fill="none"/>
<path d="M475.4 410.4l16.2 0l0 -28.8l-16.2 0z" fill="#b2b2ff" stroke="#b2b2ff"/>
<path d="M475.4 410.4l16.2 0l0 -28.8l-16.2 0l0 28.8" fill="none"/>
<path d="M502.4 410.4l16.2 0l0 -28.8l-16.2 0z" fill="#b2b2ff" stroke="#b2b2ff"/>
<path d="M502.4 410.4l16.2 0l0 -28.8l-16.2 0l0 28.8" fill="none"/>
<path d="M540.2 410.4l10.8 0l0 -28.8l-10.8 0z" fill="#b2b2ff" stroke="#b2b2ff"/>
<path d="M540.2 410.4l10.8 0l0 -28.8l-10.8 0l0 28.8" fill="none"/>
<path d="M151.4 446.4l21.6 0l0 -28.8l-21.6 0z" fill="#b2b2ff" stroke="#b2b2ff"/>
<path d="M151.4 446.4l21.6 0l0 -28.8l-21.6 0l0 28.8" fill="none"/>
<path d="M216.2 446.4l5.4 0l0 -28.8l-5.4 0z" fill="#b2b2ff" stroke="#b2b2ff"/>
<path d="M216.2 446.4l5.4 0l0 -28.8l-5.4 0l0 28.8" fill="none"/>
<path d="M270.2 446.4l10.8 0l0 -28.8l-10.8 0z" fill="#b2b2ff" stroke="#b2b2ff"/>
<path d="M270.2 446.4l10.8 0l0 -28.8l-10.8 0l0 28.8" fill="none"/>
<path d="M335 446.4l5.4 0l0 -28.8l-5.4 0z" fill="#b2b2ff" stroke="#b2b2ff"/>
<path d="M335 446.4l5.4 0l0 -28.8l-5.4 0l0 28.8" fill="none"/>
<path d="M367.4 446.4l16.2 0l0 -28.8l-16.2 0z" fill="#b2b2ff" stroke="#b2b2ff"/>
<path d="M367.4 446.4l16.2 0l0 -28.8l-16.2 0l0 28.8" fill="none"/>
<path d="M437.6 446.4l48.6 0l0 -28.8l-48.6 0z" fill="#b2b2ff" stroke="#b2b2ff"/>
<path d="M437.6 446.4l48.6 0l0 -28.8l-48.6 0l0 28.8" fill="none"/>
<path d="M540.2 446.4l27 0l0 -28.8l-27 0z" fill="#b2b2ff" stroke="#b2b2ff"/>
<path d="M540.2 446.4l27 0l0 -28.8l-27 0l0 28.8" fill="none"/>
<path d="M572.6 446.4l43.2 0l0 -28.8l-43.2 0z" fill="#b2b2ff" stroke="#b2b2ff"/>
<path d="M572.6 446.4l43.2 0l0 -28.8l-43.2 0l0 28.8" fill="none"/>
<path d="M648.2 446.4l16.2 0l0 -28.8l-16.2 0z" fill="#b2b2ff" stroke="#b2b2ff"/>
<path d="M648.2 446.4l16.2 0l0 -28.8l-16.2 0l0 28.8" fill="none"/>
<path d="M713 446.4l5.4 0l0 -28.8l-5.4 0z" fill="#b2b2ff" stroke="#b2b2ff"/>
<path d="M713 446.4l5.4 0l0 -28.8l-5.4 0l0 28.8" fill="none"/>
<path d="M129.8 338.4l54 0l0 -28.8l-54 0z" fill="#b2b2ff" stroke="#b2b2ff"/>
<path d="M129.8 338.4l54 0l0 -28.8l-54 0l0 28.8" fill="none"/>
<path d="M237.8 338.4l0 0l0 -28.8l0 0z" fill="#b2b2ff" stroke="#b2b2ff"/>
<path d="M237.8 338.4l0 0l0 -28.8l0 0l0 28.8" fill="none"/>
<path d="M254 338.4l10.8 0l0 -28.8l-10.8 0z" fill="#b2b2ff" stroke="#b2b2ff"/>
<path d="M254 338.4l10.8 0l0 -28.8l-10.8 0l0 28.8" fill="none"/>
<path d="M270.2 338.4l43.2 0l0 -28.8l-43.2 0z" fill="#b2b2ff" stroke="#b2b2ff"/>
<path d="M270.2 338.4l43.2 0l0 -28.8l-43.2 0l0 28.8" fill="none"/>
<path d="M351.2 338.4l32.4 0l0 -28.8l-32.4 0z" fill="#b2b2ff" stroke="#b2b2ff"/>
<path d="M351.2 338.4l32.4 0l0 -28.8l-32.4 0l0 28.8" fill="none"/>
<path d="M399.8 338.4l37.8 0l0 -28.8l-37.8 0z" fill="#b2b2ff" stroke="#b2b2ff"/>
<path d="M399.8 338.4l37.8 0l0 -28.8l-37.8 0l0 28.8" fill="none"/>
<path d="M443 338.4l27 0l0 -28.8l-27 0z" fill="#b2b2ff" stroke="#b2b2ff"/>
<path d="M443 338.4l27 0l0 -28.8l-27 0l0 28.8" fill="none"/>
<path d="M518.6 338.4l32.4 0l0 -28.8l-32.4 0z" fill="#b2b2ff" stroke="#b2b2ff"/>
<path d="M518.6 338.4l32.4 0l0 -28.8l-32.4 0l0 28.8" fill="none"/>
<path d="M588.8 338.4l21.6 0l0 -28.8l-21.6 0z" fill="#b2b2ff" stroke="#b2b2ff"/>
<path d="M588.8 338.4l21.6 0l0 -28.8l-21.6 0l0 28.8" fill="none"/>
<path d="M659 338.4l37.8 0l0 -28.8l-37.8 0z" fill="#b2b2ff" stroke="#b2b2ff"/>
<path d="M659 338.4l37.8 0l0 -28.8l-37.8 0l0 28.8" fill="none"/>
<path d="M129.8 374.4l43.2 0l0 -28.8l-43.2 0z" fill="#b2b2ff" stroke="#b2b2ff"/>
<path d="M129.8 374.4l43.2 0l0 -28.8l-43.2 0l0 28.8" fill="none"/>
<path d="M221.6 374.4l27 0l0 -28.8l-27 0z" fill="#b2b2ff" stroke="#b2b2ff"/>
<path d="M221.6 374.4l27 0l0 -28.8l-27 0l0 28.8" fill="none"/>
<path d="M291.8 374.4l32.4 0l0 -28.8l-32.4 0z" fill="#b2b2ff" stroke="#b2b2ff"/>
<path d="M291.8 374.4l32.4 0l0 -28.8l-32.4 0l0 28.8" fill="none"/>
<path d="M351.2 374.4l27 0l0 -28.8l-27 0z" fill="#b2b2ff" stroke="#b2b2ff"/>
<path d="M351.2 374.4l27 0l0 -28.8l-27 0l0 28.8" fill="none"/>
<path d="M410.6 374.4l32.4 0l0 -28.8l-32.4 0z" fill="#b2b2ff" stroke="#b2b2ff"/>
<path d="M410.6 374.4l32.4 0l0 -28.8l-32.4 0l0 28.8" fill="none"/>
<path d="M497 374.4l5.4 0l0 -28.8l-5.4 0z" fill="#b2b2ff" stroke="#b2b2ff"/>
<path d="M497 374.4l5.4 0l0 -28.8l-5.4 0l0 28.8" fill="none"/>
<path d="M518.6 374.4l5.4 0l0 -28.8l-5.4 0z" fill="#b2b2ff" stroke="#b2b2ff"/>
<path d="M518.6 374.4l5.4 0l0 -28.8l-5.4 0l0 28.8" fill="none"/>
<path d="M551 374.4l16.2 0l0 -28.8l-16.2 0z" fill="#b2b2ff" stroke="#b2b2ff"/>
<path d="M551 374.4l16.2 0l0 -28.8l-16.2 0l0 28.8" fill="none"/>
<path d="M583.4 374.4l27 0l0 -28.8l-27 0z" fill="#b2b2ff" stroke="#b2b2ff"/>
<path d="M583.4 374.4l27 0l0 -28.8l-27 0l0 28.8" fill="none"/>
<path d="M642.8 374.4l21.6 0l0 -28.8l-21.6 0z" fill="#b2b2ff" stroke="#b2b2ff"/>
<path d="M642.8 374.4l21.6 0l0 -28.8l-21.6 0l0 28.8" fill="none"/>
</g><g style="&sw;0.5;&fs;6pt;&am;">
<text x="147.42" y="471.20" stroke="none">exp-0-0</text>
<text x="201.42" y="471.20" stroke="none">exp-0-1</text>
<text x="260.82" y="471.20" stroke="none">exp-0-2</text>
<text x="312.12" y="471.20" stroke="none">exp-0-3</text>
<text x="363.42" y="471.20" stroke="none">exp-0-4</text>
<text x="444.42" y="471.20" stroke="none">exp-0-5</text>
<text x="525.42" y="471.20" stroke="none">exp-0-6</text>
<text x="614.52" y="471.20" stroke="none">exp-0-7</text>
<text x="676.62" y="471.20" stroke="none">exp-0-8</text>
<text x="711.72" y="471.20" stroke="none">exp-0-9</text>
<text x="136.62" y="399.20" stroke="none">exp-1-0</text>
<text x="190.62" y="399.20" stroke="none">exp-1-1</text>
<text x="258.12" y="399.20" stroke="none">exp-1-2</text>
<text x="306.72" y="399.20" stroke="none">exp-1-3</text>
<text x="355.32" y="399.20" stroke="none">exp-1-4</text>
<text x="420.12" y="399.20" stroke="none">exp-1-5</text>
<text x="447.12" y="399.20" stroke="none">exp-1-6</text>
<text x="484.92" y="399.20" stroke="none">exp-1-7</text>
<text x="511.92" y="399.20" stroke="none">exp-1-8</text>
<text x="547.02" y="399.20" stroke="none">exp-1-9</text>
<text x="163.62" y="435.20" stroke="none">exp-2-0</text>
<text x="220.32" y="435.20" stroke="none">exp-2-1</text>
<text x="277.02" y="435.20" stroke="none">exp-2-2</text>
<text x="339.12" y="435.20" stroke="none">exp-2-3</text>
<text x="376.92" y="435.20" stroke="none">exp-2-4</text>
<text x="463.32" y="435.20" stroke="none">exp-2-5</text>
<text x="555.12" y="435.20" stroke="none">exp-2-6</text>
<text x="595.62" y="435.20" stroke="none">exp-2-7</text>
<text x="657.72" y="435.20" stroke="none">exp-2-8</text>
<text x="717.12" y="435.20" stroke="none">exp-2-9</text>
<text x="158.22" y="327.20" stroke="none">exp-3-0</text>
<text x="239.22" y="327.20" stroke="none">exp-3-1</text>
<text x="260.82" y="327.20" stroke="none">exp-3-2</text>
<text x="293.22" y="327.20" stroke="none">exp-3-3</text>
<text x="368.82" y="327.20" stroke="none">exp-3-4</text>
<text x="420.12" y="327.20" stroke="none">exp-3-5</text>
<text x="457.92" y="327.20" stroke="none">exp-3-6</text>
<text x="536.22" y="327.20" stroke="none">exp-3-7</text>
<text x="601.02" y="327.20" stroke="none">exp-3-8</text>
<text x="679.32" y="327.20" stroke="none">exp-3-9</text>
<text x="152.82" y="363.20" stroke="none">exp-4-0</text>
<text x="236.52" y="363.20" stroke="none">exp-4-1</text>
<text x="309.42" y="363.20" stroke="none">exp-4-2</text>
<text x="366.12" y="363.20" stroke="none">exp-4-3</text>
<text x="428.22" y="363.20" stroke="none">exp-4-4</text>
<text x="501.12" y="363.20" stroke="none">exp-4-5</text>
<text x="522.72" y="363.20" stroke="none">exp-4-6</text>
<text x="560.52" y="363.20" stroke="none">exp-4-7</text>
<text x="598.32" y="363.20" stroke="none">exp-4-8</text>
<text x="655.02" y="363.20" stroke="none">exp-4-9</text>
</g></g>
</g>
</svg>
