<?xml version="1.0" encoding="iso-8859-1" standalone="no"?>
<!DOCTYPE svg PUBLIC "-//W3C//DTD SVG 20010904//EN" 
  "http://www.w3.org/TR/2001/REC-SVG-20010904/DTD/svg10.dtd" [ 
<!ENTITY ff "font-family:">
<!ENTITY fs "font-size:">
<!ENTITY fw "font-weight:">
<!ENTITY fst "font-style:">
<!ENTITY sw "stroke-width:">
<!ENTITY as "text-anchor:start;">
<!ENTITY am "text-anchor:middle;">
<!ENTITY ae "text-anchor:end;">
]>
<!-- Generated by ploticus (http://ploticus.sourceforge.net/)
Title: ploticus-graphic
SVG Driver by B.Traill
-->
<svg xmlns="http://www.w3.org/2000/svg" 
  viewBox="0 0 710.80 283.28"      
  xmlns:xlink="http://www.w3.org/1999/xlink"
>
<g transform="translate(-31.20,-260.16)" >                                                       

<g style="fill:#000000;stroke:#000000;&ff;Helvetica;">
<g style="&sw;0.6;&fs;10pt;&as;">
<text x="72.00" y="286.56" stroke="none">Cloudmesh Reservation</text>
</g><g style="&sw;0.6;&fs;8pt;&am;">
<text x="72.00" y="519.04" stroke="none">8</text>
<text x="72.00" y="529.04" stroke="none">Jun14</text>
</g><g style="&sw;0.5;&fs;8pt;&am;">
<path d="M72 509l0 -5.04" fill="none"/>
<text x="180.00" y="519.04" stroke="none">9</text>
<path d="M180 509l0 -5.04" fill="none"/>
<text x="288.00" y="519.04" stroke="none">10</text>
<path d="M288 509l0 -5.04" fill="none"/>
<text x="396.00" y="519.04" stroke="none">11</text>
<path d="M396 509l0 -5.04" fill="none"/>
<text x="504.00" y="519.04" stroke="none">12</text>
<path d="M504 509l0 -5.04" fill="none"/>
<text x="612.00" y="519.04" stroke="none">13</text>
<path d="M612 509l0 -5.04" fill="none"/>
<text x="720.00" y="519.04" stroke="none">14</text>
<path d="M720 509l0 -5.04" fill="none"/>
<path d="M72 504l648 0" fill="none"/>
</g><g style="&sw;0.5;&fs;8pt;&ae;">
<text x="61.20" y="327.00" stroke="none">i02</text>
<path d="M66.96 324l5.04 0" fill="none"/>
<text x="61.20" y="363.00" stroke="none">i03</text>
<path d="M66.96 360l5.04 0" fill="none"/>
<text x="61.20" y="399.00" stroke="none">i01</text>
<path d="M66.96 396l5.04 0" fill="none"/>
<text x="61.20" y="435.00" stroke="none">i04</text>
<path d="M66.96 432l5.04 0" fill="none"/>
<text x="61.20" y="471.00" stroke="none">i05</text>
<path d="M66.96 468l5.04 0" fill="none"/>
<path d="M72 504l0 -216" fill="none"/>
<path d="M343.7 482.4l40.5 0l0 -28.8l-40.5 0z" fill="#b2b2ff" stroke="#b2b2ff"/>
<path d="M343.7 482.4l40.5 0l0 -28.8l-40.5 0l0 28.8" fill="none"/>
<path d="M415.7 482.4l18 0l0 -28.8l-18 0z" fill="#b2b2ff" stroke="#b2b2ff"/>
<path d="M415.7 482.4l18 0l0 -28.8l-18 0l0 28.8" fill="none"/>
<path d="M451.7 482.4l45 0l0 -28.8l-45 0z" fill="#b2b2ff" stroke="#b2b2ff"/>
<path d="M451.7 482.4l45 0l0 -28.8l-45 0l0 28.8" fill="none"/>
<path d="M537.2 482.4l40.5 0l0 -28.8l-40.5 0z" fill="#b2b2ff" stroke="#b2b2ff"/>
<path d="M537.2 482.4l40.5 0l0 -28.8l-40.5 0l0 28.8" fill="none"/>
<path d="M618.2 482.4l27 0l0 -28.8l-27 0z" fill="#b2b2ff" stroke="#b2b2ff"/>
<path d="M618.2 482.4l27 0l0 -28.8l-27 0l0 28.8" fill="none"/>
<path d="M118.7 410.4l4.5 0l0 -28.8l-4.5 0z" fill="#b2b2ff" stroke="#b2b2ff"/>
<path d="M118.7 410.4l4.5 0l0 -28.8l-4.5 0l0 28.8" fill="none"/>
<path d="M132.2 410.4l27 0l0 -28.8l-27 0z" fill="#b2b2ff" stroke="#b2b2ff"/>
<path d="M132.2 410.4l27 0l0 -28.8l-27 0l0 28.8" fill="none"/>
<path d="M199.7 410.4l40.5 0l0 -28.8l-40.5 0z" fill="#b2b2ff" stroke="#b2b2ff"/>
<path d="M199.7 410.4l40.5 0l0 -28.8l-40.5 0l0 28.8" fill="none"/>
<path d="M271.6 410.4l27 0l0 -28.8l-27 0z" fill="#b2b2ff" stroke="#b2b2ff"/>
<path d="M271.6 410.4l27 0l0 -28.8l-27 0l0 28.8" fill="none"/>
<path d="M343.7 410.4l4.5 0l0 -28.8l-4.5 0z" fill="#b2b2ff" stroke="#b2b2ff"/>
<path d="M343.7 410.4l4.5 0l0 -28.8l-4.5 0l0 28.8" fill="none"/>
<path d="M348.2 410.4l0 0l0 -28.8l0 0z" fill="#b2b2ff" stroke="#b2b2ff"/>
<path d="M348.2 410.4l0 0l0 -28.8l0 0l0 28.8" fill="none"/>
<path d="M393.1 410.4l45 0l0 -28.8l-45 0z" fill="#b2b2ff" stroke="#b2b2ff"/>
<path d="M393.1 410.4l45 0l0 -28.8l-45 0l0 28.8" fill="none"/>
<path d="M478.7 410.4l18 0l0 -28.8l-18 0z" fill="#b2b2ff" stroke="#b2b2ff"/>
<path d="M478.7 410.4l18 0l0 -28.8l-18 0l0 28.8" fill="none"/>
<path d="M541.6 410.4l27 0l0 -28.8l-27 0z" fill="#b2b2ff" stroke="#b2b2ff"/>
<path d="M541.6 410.4l27 0l0 -28.8l-27 0l0 28.8" fill="none"/>
<path d="M582.1 410.4l22.5 0l0 -28.8l-22.5 0z" fill="#b2b2ff" stroke="#b2b2ff"/>
<path d="M582.1 410.4l22.5 0l0 -28.8l-22.5 0l0 28.8" fill="none"/>
<path d="M123.1 338.4l45 0l0 -28.8l-45 0z" fill="#b2b2ff" stroke="#b2b2ff"/>
<path d="M123.1 338.4l45 0l0 -28.8l-45 0l0 28.8" fill="none"/>
<path d="M204.1 338.4l9 0l0 -28.8l-9 0z" fill="#b2b2ff" stroke="#b2b2ff"/>
<path d="M204.1 338.4l9 0l0 -28.8l-9 0l0 28.8" fill="none"/>
<path d="M222.2 338.4l4.5 0l0 -28.8l-4.5 0z" fill="#b2b2ff" stroke="#b2b2ff"/>
<path d="M222.2 338.4l4.5 0l0 -28.8l-4.5 0l0 28.8" fill="none"/>
<path d="M271.6 338.4l40.5 0l0 -28.8l-40.5 0z" fill="#b2b2ff" stroke="#b2b2ff"/>
<path d="M271.6 338.4l40.5 0l0 -28.8l-40.5 0l0 28.8" fill="none"/>
<path d="M312.1 338.4l13.5 0l0 -28.8l-13.5 0z" fill="#b2b2ff" stroke="#b2b2ff"/>
<path d="M312.1 338.4l13.5 0l0 -28.8l-13.5 0l0 28.8" fill="none"/>
<path d="M348.2 338.4l36 0l0 -28.8l-36 0z" fill="#b2b2ff" stroke="#b2b2ff"/>
<path d="M348.2 338.4l36 0l0 -28.8l-36 0l0 28.8" fill="none"/>
<path d="M424.7 338.4l45 0l0 -28.8l-45 0z" fill="#b2b2ff" stroke="#b2b2ff"/>
<path d="M424.7 338.4l45 0l0 -28.8l-45 0l0 28.8" fill="none"/>
<path d="M478.7 338.4l9 0l0 -28.8l-9 0z" fill="#b2b2ff" stroke="#b2b2ff"/>
<path d="M478.7 338.4l9 0l0 -28.8l-9 0l0 28.8" fill="none"/>
<path d="M532.7 338.4l22.5 0l0 -28.8l-22.5 0z" fill="#b2b2ff" stroke="#b2b2ff"/>
<path d="M532.7 338.4l22.5 0l0 -28.8l-22.5 0l0 28.8" fill="none"/>
<path d="M600.2 338.4l9 0l0 -28.8l-9 0z" fill="#b2b2ff" stroke="#b2b2ff"/>
<path d="M600.2 338.4l9 0l0 -28.8l-9 0l0 28.8" fill="none"/>
<path d="M123.1 374.4l18 0l0 -28.8l-18 0z" fill="#b2b2ff" stroke="#b2b2ff"/>
<path d="M123.1 374.4l18 0l0 -28.8l-18 0l0 28.8" fill="none"/>
<path d="M145.7 374.4l31.5 0l0 -28.8l-31.5 0z" fill="#b2b2ff" stroke="#b2b2ff"/>
<path d="M145.7 374.4l31.5 0l0 -28.8l-31.5 0l0 28.8" fill="none"/>
<path d="M190.6 374.4l27 0l0 -28.8l-27 0z" fill="#b2b2ff" stroke="#b2b2ff"/>
<path d="M190.6 374.4l27 0l0 -28.8l-27 0l0 28.8" fill="none"/>
<path d="M231.1 374.4l22.5 0l0 -28.8l-22.5 0z" fill="#b2b2ff" stroke="#b2b2ff"/>
<path d="M231.1 374.4l22.5 0l0 -28.8l-22.5 0l0 28.8" fill="none"/>
<path d="M294.2 374.4l27 0l0 -28.8l-27 0z" fill="#b2b2ff" stroke="#b2b2ff"/>
<path d="M294.2 374.4l27 0l0 -28.8l-27 0l0 28.8" fill="none"/>
<path d="M325.6 374.4l40.5 0l0 -28.8l-40.5 0z" fill="#b2b2ff" stroke="#b2b2ff"/>
<path d="M325.6 374.4l40.5 0l0 -28.8l-40.5 0l0 28.8" fill="none"/>
<path d="M393.1 374.4l4.5 0l0 -28.8l-4.5 0z" fill="#b2b2ff" stroke="#b2b2ff"/>
<path d="M393.1 374.4l4.5 0l0 -28.8l-4.5 0l0 28.8" fill="none"/>
<path d="M402.2 374.4l36 0l0 -28.8l-36 0z" fill="#b2b2ff" stroke="#b2b2ff"/>
<path d="M402.2 374.4l36 0l0 -28.8l-36 0l0 28.8" fill="none"/>
<path d="M442.7 374.4l22.5 0l0 -28.8l-22.5 0z" fill="#b2b2ff" stroke="#b2b2ff"/>
<path d="M442.7 374.4l22.5 0l0 -28.8l-22.5 0l0 28.8" fill="none"/>
<path d="M505.7 374.4l27 0l0 -28.8l-27 0z" fill="#b2b2ff" stroke="#b2b2ff"/>
<path d="M505.7 374.4l27 0l0 -28.8l-27 0l0 28.8" fill="none"/>
<path d="M87.15 446.4l40.5 0l0 -28.8l-40.5 0z" fill="#b2b2ff" stroke="#b2b2ff"/>
<path d="M87.15 446.4l40.5 0l0 -28.8l-40.5 0l0 28.8" fill="none"/>
<path d="M163.6 446.4l9 0l0 -28.8l-9 0z" fill="#b2b2ff" stroke="#b2b2ff"/>
<path d="M163.6 446.4l9 0l0 -28.8l-9 0l0 28.8" fill="none"/>
<path d="M204.1 446.4l18 0l0 -28.8l-18 0z" fill="#b2b2ff" stroke="#b2b2ff"/>
<path d="M204.1 446.4l18 0l0 -28.8l-18 0l0 28.8" fill="none"/>
<path d="M244.6 446.4l9 0l0 -28.8l-9 0z" fill="#b2b2ff" stroke="#b2b2ff"/>
<path d="M244.6 446.4l9 0l0 -28.8l-9 0l0 28.8" fill="none"/>
<path d="M285.1 446.4l4.5 0l0 -28.8l-4.5 0z" fill="#b2b2ff" stroke="#b2b2ff"/>
<path d="M285.1 446.4l4.5 0l0 -28.8l-4.5 0l0 28.8" fill="none"/>
<path d="M325.6 446.4l13.5 0l0 -28.8l-13.5 0z" fill="#b2b2ff" stroke="#b2b2ff"/>
<path d="M325.6 446.4l13.5 0l0 -28.8l-13.5 0l0 28.8" fill="none"/>
<path d="M357.2 446.4l45 0l0 -28.8l-45 0z" fill="#b2b2ff" stroke="#b2b2ff"/>
<path d="M357.2 446.4l45 0l0 -28.8l-45 0l0 28.8" fill="none"/>
<path d="M424.7 446.4l40.5 0l0 -28.8l-40.5 0z" fill="#b2b2ff" stroke="#b2b2ff"/>
<path d="M424.7 446.4l40.5 0l0 -28.8l-40.5 0l0 28.8" fill="none"/>
<path d="M505.7 446.4l13.5 0l0 -28.8l-13.5 0z" fill="#b2b2ff" stroke="#b2b2ff"/>
<path d="M505.7 446.4l13.5 0l0 -28.8l-13.5 0l0 28.8" fill="none"/>
<path d="M546.2 446.4l40.5 0l0 -28.8l-40.5 0z" fill="#b2b2ff" stroke="#b2b2ff"/>
<path d="M546.2 446.4l40.5 0l0 -28.8l-40.5 0l0 28.8" fill="none"/>
<path d="M96.15 482.4l0 0l0 -28.8l0 0z" fill="#b2b2ff" stroke="#b2b2ff"/>
<path d="M96.15 482.4l0 0l0 -28.8l0 0l0 28.8" fill="none"/>
<path d="M141.2 482.4l36 0l0 -28.8l-36 0z" fill="#b2b2ff" stroke="#b2b2ff"/>
<path d="M141.2 482.4l36 0l0 -28.8l-36 0l0 28.8" fill="none"/>
<path d="M217.6 482.4l36 0l0 -28.8l-36 0z" fill="#b2b2ff" stroke="#b2b2ff"/>
<path d="M217.6 482.4l36 0l0 -28.8l-36 0l0 28.8" fill="none"/>
<path d="M267.2 482.4l22.5 0l0 -28.8l-22.5 0z" fill="#b2b2ff" stroke="#b2b2ff"/>
<path d="M267.2 482.4l22.5 0l0 -28.8l-22.5 0l0 28.8" fill="none"/>
<path d="M303.2 482.4l9 0l0 -28.8l-9 0z" fill="#b2b2ff" stroke="#b2b2ff"/>
<path d="M303.2 482.4l9 0l0 -28.8l-9 0l0 28.8" fill="none"/>
</g><g style="&sw;0.5;&fs;6pt;&am;">
<text x="365.34" y="471.20" stroke="none">exp-4-5</text>
<text x="426.09" y="471.20" stroke="none">exp-4-6</text>
<text x="475.59" y="471.20" stroke="none">exp-4-7</text>
<text x="558.84" y="471.20" stroke="none">exp-4-8</text>
<text x="633.09" y="471.20" stroke="none">exp-4-9</text>
<text x="122.34" y="399.20" stroke="none">exp-0-0</text>
<text x="147.09" y="399.20" stroke="none">exp-0-1</text>
<text x="221.34" y="399.20" stroke="none">exp-0-2</text>
<text x="286.59" y="399.20" stroke="none">exp-0-3</text>
<text x="347.34" y="399.20" stroke="none">exp-0-4</text>
<text x="349.59" y="399.20" stroke="none">exp-0-5</text>
<text x="417.09" y="399.20" stroke="none">exp-0-6</text>
<text x="489.09" y="399.20" stroke="none">exp-0-7</text>
<text x="556.59" y="399.20" stroke="none">exp-0-8</text>
<text x="594.84" y="399.20" stroke="none">exp-0-9</text>
<text x="147.09" y="327.20" stroke="none">exp-1-0</text>
<text x="210.09" y="327.20" stroke="none">exp-1-1</text>
<text x="225.84" y="327.20" stroke="none">exp-1-2</text>
<text x="293.34" y="327.20" stroke="none">exp-1-3</text>
<text x="320.34" y="327.20" stroke="none">exp-1-4</text>
<text x="367.59" y="327.20" stroke="none">exp-1-5</text>
<text x="448.59" y="327.20" stroke="none">exp-1-6</text>
<text x="484.59" y="327.20" stroke="none">exp-1-7</text>
<text x="545.34" y="327.20" stroke="none">exp-1-8</text>
<text x="606.09" y="327.20" stroke="none">exp-1-9</text>
<text x="133.59" y="363.20" stroke="none">exp-2-0</text>
<text x="162.84" y="363.20" stroke="none">exp-2-1</text>
<text x="205.59" y="363.20" stroke="none">exp-2-2</text>
<text x="243.84" y="363.20" stroke="none">exp-2-3</text>
<text x="309.09" y="363.20" stroke="none">exp-2-4</text>
<text x="347.34" y="363.20" stroke="none">exp-2-5</text>
<text x="396.84" y="363.20" stroke="none">exp-2-6</text>
<text x="421.59" y="363.20" stroke="none">exp-2-7</text>
<text x="455.34" y="363.20" stroke="none">exp-2-8</text>
<text x="520.59" y="363.20" stroke="none">exp-2-9</text>
<text x="108.84" y="435.20" stroke="none">exp-3-0</text>
<text x="169.59" y="435.20" stroke="none">exp-3-1</text>
<text x="214.59" y="435.20" stroke="none">exp-3-2</text>
<text x="250.59" y="435.20" stroke="none">exp-3-3</text>
<text x="288.84" y="435.20" stroke="none">exp-3-4</text>
<text x="333.84" y="435.20" stroke="none">exp-3-5</text>
<text x="381.09" y="435.20" stroke="none">exp-3-6</text>
<text x="446.34" y="435.20" stroke="none">exp-3-7</text>
<text x="513.84" y="435.20" stroke="none">exp-3-8</text>
<text x="567.84" y="435.20" stroke="none">exp-3-9</text>
<text x="97.59" y="471.20" stroke="none">exp-4-0</text>
<text x="160.59" y="471.20" stroke="none">exp-4-1</text>
<text x="237.09" y="471.20" stroke="none">exp-4-2</text>
<text x="279.84" y="471.20" stroke="none">exp-4-3</text>
<text x="309.09" y="471.20" stroke="none">exp-4-4</text>
</g></g>
</g>
</svg>
