<?xml version="1.0" encoding="iso-8859-1" standalone="no"?>
<!DOCTYPE svg PUBLIC "-//W3C//DTD SVG 20010904//EN" 
  "http://www.w3.org/TR/2001/REC-SVG-20010904/DTD/svg10.dtd" [ 
<!ENTITY ff "font-family:">
<!ENTITY fs "font-size:">
<!ENTITY fw "font-weight:">
<!ENTITY fst "font-style:">
<!ENTITY sw "stroke-width:">
<!ENTITY as "text-anchor:start;">
<!ENTITY am "text-anchor:middle;">
<!ENTITY ae "text-anchor:end;">
]>
<!-- Generated by ploticus (http://ploticus.sourceforge.net/)
Title: ploticus-graphic
SVG Driver by B.Traill
-->
<svg xmlns="http://www.w3.org/2000/svg" 
  viewBox="0 0 710.80 283.28"      
  xmlns:xlink="http://www.w3.org/1999/xlink"
>
<g transform="translate(-31.20,-260.16)" >                                                       

<g style="fill:#000000;stroke:#000000;&ff;Helvetica;">
<g style="&sw;0.6;&fs;10pt;&as;">
<text x="72.00" y="286.56" stroke="none">Cloudmesh Reservation</text>
</g><g style="&sw;0.6;&fs;8pt;&am;">
<text x="72.00" y="519.04" stroke="none">9</text>
<text x="72.00" y="529.04" stroke="none">Jun14</text>
</g><g style="&sw;0.5;&fs;8pt;&am;">
<path d="M72 509l0 -5.04" fill="none"/>
<text x="180.00" y="519.04" stroke="none">10</text>
<path d="M180 509l0 -5.04" fill="none"/>
<text x="288.00" y="519.04" stroke="none">11</text>
<path d="M288 509l0 -5.04" fill="none"/>
<text x="396.00" y="519.04" stroke="none">12</text>
<path d="M396 509l0 -5.04" fill="none"/>
<text x="504.00" y="519.04" stroke="none">13</text>
<path d="M504 509l0 -5.04" fill="none"/>
<text x="612.00" y="519.04" stroke="none">14</text>
<path d="M612 509l0 -5.04" fill="none"/>
<text x="720.00" y="519.04" stroke="none">15</text>
<path d="M720 509l0 -5.04" fill="none"/>
<path d="M72 504l648 0" fill="none"/>
</g><g style="&sw;0.5;&fs;8pt;&ae;">
<text x="61.20" y="327.00" stroke="none">m04</text>
<path d="M66.96 324l5.04 0" fill="none"/>
<text x="61.20" y="363.00" stroke="none">m05</text>
<path d="M66.96 360l5.04 0" fill="none"/>
<text x="61.20" y="399.00" stroke="none">m02</text>
<path d="M66.96 396l5.04 0" fill="none"/>
<text x="61.20" y="435.00" stroke="none">m03</text>
<path d="M66.96 432l5.04 0" fill="none"/>
<text x="61.20" y="471.00" stroke="none">m01</text>
<path d="M66.96 468l5.04 0" fill="none"/>
<path d="M72 504l0 -216" fill="none"/>
<path d="M189.1 482.4l18 0l0 -28.8l-18 0z" fill="#b2b2ff" stroke="#b2b2ff"/>
<path d="M189.1 482.4l18 0l0 -28.8l-18 0l0 28.8" fill="none"/>
<path d="M229.6 482.4l4.5 0l0 -28.8l-4.5 0z" fill="#b2b2ff" stroke="#b2b2ff"/>
<path d="M229.6 482.4l4.5 0l0 -28.8l-4.5 0l0 28.8" fill="none"/>
<path d="M270.1 482.4l9 0l0 -28.8l-9 0z" fill="#b2b2ff" stroke="#b2b2ff"/>
<path d="M270.1 482.4l9 0l0 -28.8l-9 0l0 28.8" fill="none"/>
<path d="M306.1 482.4l45 0l0 -28.8l-45 0z" fill="#b2b2ff" stroke="#b2b2ff"/>
<path d="M306.1 482.4l45 0l0 -28.8l-45 0l0 28.8" fill="none"/>
<path d="M373.6 482.4l4.5 0l0 -28.8l-4.5 0z" fill="#b2b2ff" stroke="#b2b2ff"/>
<path d="M373.6 482.4l4.5 0l0 -28.8l-4.5 0l0 28.8" fill="none"/>
<path d="M418.6 482.4l9 0l0 -28.8l-9 0z" fill="#b2b2ff" stroke="#b2b2ff"/>
<path d="M418.6 482.4l9 0l0 -28.8l-9 0l0 28.8" fill="none"/>
<path d="M427.6 482.4l0 0l0 -28.8l0 0z" fill="#b2b2ff" stroke="#b2b2ff"/>
<path d="M427.6 482.4l0 0l0 -28.8l0 0l0 28.8" fill="none"/>
<path d="M441.1 482.4l18 0l0 -28.8l-18 0z" fill="#b2b2ff" stroke="#b2b2ff"/>
<path d="M441.1 482.4l18 0l0 -28.8l-18 0l0 28.8" fill="none"/>
<path d="M463.6 482.4l40.5 0l0 -28.8l-40.5 0z" fill="#b2b2ff" stroke="#b2b2ff"/>
<path d="M463.6 482.4l40.5 0l0 -28.8l-40.5 0l0 28.8" fill="none"/>
<path d="M513.1 482.4l0 0l0 -28.8l0 0z" fill="#b2b2ff" stroke="#b2b2ff"/>
<path d="M513.1 482.4l0 0l0 -28.8l0 0l0 28.8" fill="none"/>
<path d="M166.6 410.4l45 0l0 -28.8l-45 0z" fill="#b2b2ff" stroke="#b2b2ff"/>
<path d="M166.6 410.4l45 0l0 -28.8l-45 0l0 28.8" fill="none"/>
<path d="M252.1 410.4l27 0l0 -28.8l-27 0z" fill="#b2b2ff" stroke="#b2b2ff"/>
<path d="M252.1 410.4l27 0l0 -28.8l-27 0l0 28.8" fill="none"/>
<path d="M319.6 410.4l45 0l0 -28.8l-45 0z" fill="#b2b2ff" stroke="#b2b2ff"/>
<path d="M319.6 410.4l45 0l0 -28.8l-45 0l0 28.8" fill="none"/>
<path d="M405.1 410.4l13.5 0l0 -28.8l-13.5 0z" fill="#b2b2ff" stroke="#b2b2ff"/>
<path d="M405.1 410.4l13.5 0l0 -28.8l-13.5 0l0 28.8" fill="none"/>
<path d="M454.6 410.4l4.5 0l0 -28.8l-4.5 0z" fill="#b2b2ff" stroke="#b2b2ff"/>
<path d="M454.6 410.4l4.5 0l0 -28.8l-4.5 0l0 28.8" fill="none"/>
<path d="M504.1 410.4l0 0l0 -28.8l0 0z" fill="#b2b2ff" stroke="#b2b2ff"/>
<path d="M504.1 410.4l0 0l0 -28.8l0 0l0 28.8" fill="none"/>
<path d="M526.6 410.4l13.5 0l0 -28.8l-13.5 0z" fill="#b2b2ff" stroke="#b2b2ff"/>
<path d="M526.6 410.4l13.5 0l0 -28.8l-13.5 0l0 28.8" fill="none"/>
<path d="M576.1 410.4l22.5 0l0 -28.8l-22.5 0z" fill="#b2b2ff" stroke="#b2b2ff"/>
<path d="M576.1 410.4l22.5 0l0 -28.8l-22.5 0l0 28.8" fill="none"/>
<path d="M598.6 410.4l36 0l0 -28.8l-36 0z" fill="#b2b2ff" stroke="#b2b2ff"/>
<path d="M598.6 410.4l36 0l0 -28.8l-36 0l0 28.8" fill="none"/>
<path d="M652.6 410.4l45 0l0 -28.8l-45 0z" fill="#b2b2ff" stroke="#b2b2ff"/>
<path d="M652.6 410.4l45 0l0 -28.8l-45 0l0 28.8" fill="none"/>
<path d="M144.1 446.4l18 0l0 -28.8l-18 0z" fill="#b2b2ff" stroke="#b2b2ff"/>
<path d="M144.1 446.4l18 0l0 -28.8l-18 0l0 28.8" fill="none"/>
<path d="M193.6 446.4l45 0l0 -28.8l-45 0z" fill="#b2b2ff" stroke="#b2b2ff"/>
<path d="M193.6 446.4l45 0l0 -28.8l-45 0l0 28.8" fill="none"/>
<path d="M247.6 446.4l40.5 0l0 -28.8l-40.5 0z" fill="#b2b2ff" stroke="#b2b2ff"/>
<path d="M247.6 446.4l40.5 0l0 -28.8l-40.5 0l0 28.8" fill="none"/>
<path d="M297.1 446.4l27 0l0 -28.8l-27 0z" fill="#b2b2ff" stroke="#b2b2ff"/>
<path d="M297.1 446.4l27 0l0 -28.8l-27 0l0 28.8" fill="none"/>
<path d="M324.1 446.4l27 0l0 -28.8l-27 0z" fill="#b2b2ff" stroke="#b2b2ff"/>
<path d="M324.1 446.4l27 0l0 -28.8l-27 0l0 28.8" fill="none"/>
<path d="M387.1 446.4l0 0l0 -28.8l0 0z" fill="#b2b2ff" stroke="#b2b2ff"/>
<path d="M387.1 446.4l0 0l0 -28.8l0 0l0 28.8" fill="none"/>
<path d="M409.6 446.4l31.5 0l0 -28.8l-31.5 0z" fill="#b2b2ff" stroke="#b2b2ff"/>
<path d="M409.6 446.4l31.5 0l0 -28.8l-31.5 0l0 28.8" fill="none"/>
<path d="M445.6 446.4l22.5 0l0 -28.8l-22.5 0z" fill="#b2b2ff" stroke="#b2b2ff"/>
<path d="M445.6 446.4l22.5 0l0 -28.8l-22.5 0l0 28.8" fill="none"/>
<path d="M504.1 446.4l4.5 0l0 -28.8l-4.5 0z" fill="#b2b2ff" stroke="#b2b2ff"/>
<path d="M504.1 446.4l4.5 0l0 -28.8l-4.5 0l0 28.8" fill="none"/>
<path d="M508.6 446.4l9 0l0 -28.8l-9 0z" fill="#b2b2ff" stroke="#b2b2ff"/>
<path d="M508.6 446.4l9 0l0 -28.8l-9 0l0 28.8" fill="none"/>
<path d="M162.1 338.4l9 0l0 -28.8l-9 0z" fill="#b2b2ff" stroke="#b2b2ff"/>
<path d="M162.1 338.4l9 0l0 -28.8l-9 0l0 28.8" fill="none"/>
<path d="M193.6 338.4l18 0l0 -28.8l-18 0z" fill="#b2b2ff" stroke="#b2b2ff"/>
<path d="M193.6 338.4l18 0l0 -28.8l-18 0l0 28.8" fill="none"/>
<path d="M211.6 338.4l22.5 0l0 -28.8l-22.5 0z" fill="#b2b2ff" stroke="#b2b2ff"/>
<path d="M211.6 338.4l22.5 0l0 -28.8l-22.5 0l0 28.8" fill="none"/>
<path d="M274.6 338.4l18 0l0 -28.8l-18 0z" fill="#b2b2ff" stroke="#b2b2ff"/>
<path d="M274.6 338.4l18 0l0 -28.8l-18 0l0 28.8" fill="none"/>
<path d="M292.6 338.4l0 0l0 -28.8l0 0z" fill="#b2b2ff" stroke="#b2b2ff"/>
<path d="M292.6 338.4l0 0l0 -28.8l0 0l0 28.8" fill="none"/>
<path d="M328.6 338.4l45 0l0 -28.8l-45 0z" fill="#b2b2ff" stroke="#b2b2ff"/>
<path d="M328.6 338.4l45 0l0 -28.8l-45 0l0 28.8" fill="none"/>
<path d="M418.6 338.4l45 0l0 -28.8l-45 0z" fill="#b2b2ff" stroke="#b2b2ff"/>
<path d="M418.6 338.4l45 0l0 -28.8l-45 0l0 28.8" fill="none"/>
<path d="M495.1 338.4l0 0l0 -28.8l0 0z" fill="#b2b2ff" stroke="#b2b2ff"/>
<path d="M495.1 338.4l0 0l0 -28.8l0 0l0 28.8" fill="none"/>
<path d="M540.1 338.4l40.5 0l0 -28.8l-40.5 0z" fill="#b2b2ff" stroke="#b2b2ff"/>
<path d="M540.1 338.4l40.5 0l0 -28.8l-40.5 0l0 28.8" fill="none"/>
<path d="M621.1 338.4l40.5 0l0 -28.8l-40.5 0z" fill="#b2b2ff" stroke="#b2b2ff"/>
<path d="M621.1 338.4l40.5 0l0 -28.8l-40.5 0l0 28.8" fill="none"/>
<path d="M148.6 374.4l4.5 0l0 -28.8l-4.5 0z" fill="#b2b2ff" stroke="#b2b2ff"/>
<path d="M148.6 374.4l4.5 0l0 -28.8l-4.5 0l0 28.8" fill="none"/>
<path d="M189.1 374.4l40.5 0l0 -28.8l-40.5 0z" fill="#b2b2ff" stroke="#b2b2ff"/>
<path d="M189.1 374.4l40.5 0l0 -28.8l-40.5 0l0 28.8" fill="none"/>
<path d="M265.6 374.4l0 0l0 -28.8l0 0z" fill="#b2b2ff" stroke="#b2b2ff"/>
<path d="M265.6 374.4l0 0l0 -28.8l0 0l0 28.8" fill="none"/>
<path d="M310.6 374.4l27 0l0 -28.8l-27 0z" fill="#b2b2ff" stroke="#b2b2ff"/>
<path d="M310.6 374.4l27 0l0 -28.8l-27 0l0 28.8" fill="none"/>
<path d="M346.6 374.4l36 0l0 -28.8l-36 0z" fill="#b2b2ff" stroke="#b2b2ff"/>
<path d="M346.6 374.4l36 0l0 -28.8l-36 0l0 28.8" fill="none"/>
<path d="M382.6 374.4l9 0l0 -28.8l-9 0z" fill="#b2b2ff" stroke="#b2b2ff"/>
<path d="M382.6 374.4l9 0l0 -28.8l-9 0l0 28.8" fill="none"/>
<path d="M409.6 374.4l36 0l0 -28.8l-36 0z" fill="#b2b2ff" stroke="#b2b2ff"/>
<path d="M409.6 374.4l36 0l0 -28.8l-36 0l0 28.8" fill="none"/>
<path d="M445.6 374.4l45 0l0 -28.8l-45 0z" fill="#b2b2ff" stroke="#b2b2ff"/>
<path d="M445.6 374.4l45 0l0 -28.8l-45 0l0 28.8" fill="none"/>
<path d="M495.1 374.4l27 0l0 -28.8l-27 0z" fill="#b2b2ff" stroke="#b2b2ff"/>
<path d="M495.1 374.4l27 0l0 -28.8l-27 0l0 28.8" fill="none"/>
<path d="M540.1 374.4l18 0l0 -28.8l-18 0z" fill="#b2b2ff" stroke="#b2b2ff"/>
<path d="M540.1 374.4l18 0l0 -28.8l-18 0l0 28.8" fill="none"/>
</g><g style="&sw;0.5;&fs;6pt;&am;">
<text x="199.51" y="471.20" stroke="none">exp-0-0</text>
<text x="233.26" y="471.20" stroke="none">exp-0-1</text>
<text x="276.01" y="471.20" stroke="none">exp-0-2</text>
<text x="330.01" y="471.20" stroke="none">exp-0-3</text>
<text x="377.26" y="471.20" stroke="none">exp-0-4</text>
<text x="424.51" y="471.20" stroke="none">exp-0-5</text>
<text x="429.01" y="471.20" stroke="none">exp-0-6</text>
<text x="451.51" y="471.20" stroke="none">exp-0-7</text>
<text x="485.27" y="471.20" stroke="none">exp-0-8</text>
<text x="514.51" y="471.20" stroke="none">exp-0-9</text>
<text x="190.52" y="399.20" stroke="none">exp-1-0</text>
<text x="267.01" y="399.20" stroke="none">exp-1-1</text>
<text x="343.51" y="399.20" stroke="none">exp-1-2</text>
<text x="413.26" y="399.20" stroke="none">exp-1-3</text>
<text x="458.26" y="399.20" stroke="none">exp-1-4</text>
<text x="505.52" y="399.20" stroke="none">exp-1-5</text>
<text x="534.76" y="399.20" stroke="none">exp-1-6</text>
<text x="588.77" y="399.20" stroke="none">exp-1-7</text>
<text x="618.01" y="399.20" stroke="none">exp-1-8</text>
<text x="676.52" y="399.20" stroke="none">exp-1-9</text>
<text x="154.51" y="435.20" stroke="none">exp-2-0</text>
<text x="217.52" y="435.20" stroke="none">exp-2-1</text>
<text x="269.27" y="435.20" stroke="none">exp-2-2</text>
<text x="312.01" y="435.20" stroke="none">exp-2-3</text>
<text x="339.01" y="435.20" stroke="none">exp-2-4</text>
<text x="388.51" y="435.20" stroke="none">exp-2-5</text>
<text x="426.77" y="435.20" stroke="none">exp-2-6</text>
<text x="458.26" y="435.20" stroke="none">exp-2-7</text>
<text x="507.77" y="435.20" stroke="none">exp-2-8</text>
<text x="514.52" y="435.20" stroke="none">exp-2-9</text>
<text x="168.01" y="327.20" stroke="none">exp-3-0</text>
<text x="204.02" y="327.20" stroke="none">exp-3-1</text>
<text x="224.27" y="327.20" stroke="none">exp-3-2</text>
<text x="285.02" y="327.20" stroke="none">exp-3-3</text>
<text x="294.01" y="327.20" stroke="none">exp-3-4</text>
<text x="352.52" y="327.20" stroke="none">exp-3-5</text>
<text x="442.51" y="327.20" stroke="none">exp-3-6</text>
<text x="496.51" y="327.20" stroke="none">exp-3-7</text>
<text x="561.76" y="327.20" stroke="none">exp-3-8</text>
<text x="642.76" y="327.20" stroke="none">exp-3-9</text>
<text x="152.26" y="363.20" stroke="none">exp-4-0</text>
<text x="210.76" y="363.20" stroke="none">exp-4-1</text>
<text x="267.01" y="363.20" stroke="none">exp-4-2</text>
<text x="325.51" y="363.20" stroke="none">exp-4-3</text>
<text x="366.02" y="363.20" stroke="none">exp-4-4</text>
<text x="388.51" y="363.20" stroke="none">exp-4-5</text>
<text x="429.01" y="363.20" stroke="none">exp-4-6</text>
<text x="469.51" y="363.20" stroke="none">exp-4-7</text>
<text x="510.01" y="363.20" stroke="none">exp-4-8</text>
<text x="550.51" y="363.20" stroke="none">exp-4-9</text>
</g></g>
</g>
</svg>
