<?xml version="1.0" encoding="iso-8859-1" standalone="no"?>
<!DOCTYPE svg PUBLIC "-//W3C//DTD SVG 20010904//EN" 
  "http://www.w3.org/TR/2001/REC-SVG-20010904/DTD/svg10.dtd" [ 
<!ENTITY ff "font-family:">
<!ENTITY fs "font-size:">
<!ENTITY fw "font-weight:">
<!ENTITY fst "font-style:">
<!ENTITY sw "stroke-width:">
<!ENTITY as "text-anchor:start;">
<!ENTITY am "text-anchor:middle;">
<!ENTITY ae "text-anchor:end;">
]>
<!-- Generated by ploticus (http://ploticus.sourceforge.net/)
Title: ploticus-graphic
SVG Driver by B.Traill
-->
<svg xmlns="http://www.w3.org/2000/svg" 
  viewBox="0 0 710.80 283.28"      
  xmlns:xlink="http://www.w3.org/1999/xlink"
>
<g transform="translate(-31.20,-260.16)" >                                                       

<g style="fill:#000000;stroke:#000000;&ff;Helvetica;">
<g style="&sw;0.6;&fs;10pt;&as;">
<text x="72.00" y="286.56" stroke="none">Cloudmesh Reservation</text>
</g><g style="&sw;0.6;&fs;8pt;&am;">
<text x="72.00" y="519.04" stroke="none">10</text>
<text x="72.00" y="529.04" stroke="none">Jul14</text>
</g><g style="&sw;0.5;&fs;8pt;&am;">
<path d="M72 509l0 -5.04" fill="none"/>
<text x="180.00" y="519.04" stroke="none">11</text>
<path d="M180 509l0 -5.04" fill="none"/>
<text x="288.00" y="519.04" stroke="none">12</text>
<path d="M288 509l0 -5.04" fill="none"/>
<text x="396.00" y="519.04" stroke="none">13</text>
<path d="M396 509l0 -5.04" fill="none"/>
<text x="504.00" y="519.04" stroke="none">14</text>
<path d="M504 509l0 -5.04" fill="none"/>
<text x="612.00" y="519.04" stroke="none">15</text>
<path d="M612 509l0 -5.04" fill="none"/>
<text x="720.00" y="519.04" stroke="none">16</text>
<path d="M720 509l0 -5.04" fill="none"/>
<path d="M72 504l648 0" fill="none"/>
</g><g style="&sw;0.5;&fs;8pt;&ae;">
<text x="61.20" y="327.00" stroke="none">m04</text>
<path d="M66.96 324l5.04 0" fill="none"/>
<text x="61.20" y="363.00" stroke="none">m05</text>
<path d="M66.96 360l5.04 0" fill="none"/>
<text x="61.20" y="399.00" stroke="none">m02</text>
<path d="M66.96 396l5.04 0" fill="none"/>
<text x="61.20" y="435.00" stroke="none">m03</text>
<path d="M66.96 432l5.04 0" fill="none"/>
<text x="61.20" y="471.00" stroke="none">m01</text>
<path d="M66.96 468l5.04 0" fill="none"/>
<path d="M72 504l0 -216" fill="none"/>
<path d="M156.3 482.4l9 0l0 -28.8l-9 0z" fill="#b2b2ff" stroke="#b2b2ff"/>
<path d="M156.3 482.4l9 0l0 -28.8l-9 0l0 28.8" fill="none"/>
<path d="M183.3 482.4l0 0l0 -28.8l0 0z" fill="#b2b2ff" stroke="#b2b2ff"/>
<path d="M183.3 482.4l0 0l0 -28.8l0 0l0 28.8" fill="none"/>
<path d="M183.3 482.4l4.5 0l0 -28.8l-4.5 0z" fill="#b2b2ff" stroke="#b2b2ff"/>
<path d="M183.3 482.4l4.5 0l0 -28.8l-4.5 0l0 28.8" fill="none"/>
<path d="M187.8 482.4l40.5 0l0 -28.8l-40.5 0z" fill="#b2b2ff" stroke="#b2b2ff"/>
<path d="M187.8 482.4l40.5 0l0 -28.8l-40.5 0l0 28.8" fill="none"/>
<path d="M246.3 482.4l18 0l0 -28.8l-18 0z" fill="#b2b2ff" stroke="#b2b2ff"/>
<path d="M246.3 482.4l18 0l0 -28.8l-18 0l0 28.8" fill="none"/>
<path d="M300.3 482.4l40.5 0l0 -28.8l-40.5 0z" fill="#b2b2ff" stroke="#b2b2ff"/>
<path d="M300.3 482.4l40.5 0l0 -28.8l-40.5 0l0 28.8" fill="none"/>
<path d="M345.3 482.4l27 0l0 -28.8l-27 0z" fill="#b2b2ff" stroke="#b2b2ff"/>
<path d="M345.3 482.4l27 0l0 -28.8l-27 0l0 28.8" fill="none"/>
<path d="M385.8 482.4l9 0l0 -28.8l-9 0z" fill="#b2b2ff" stroke="#b2b2ff"/>
<path d="M385.8 482.4l9 0l0 -28.8l-9 0l0 28.8" fill="none"/>
<path d="M421.8 482.4l18 0l0 -28.8l-18 0z" fill="#b2b2ff" stroke="#b2b2ff"/>
<path d="M421.8 482.4l18 0l0 -28.8l-18 0l0 28.8" fill="none"/>
<path d="M471.3 482.4l13.5 0l0 -28.8l-13.5 0z" fill="#b2b2ff" stroke="#b2b2ff"/>
<path d="M471.3 482.4l13.5 0l0 -28.8l-13.5 0l0 28.8" fill="none"/>
<path d="M151.8 410.4l27 0l0 -28.8l-27 0z" fill="#b2b2ff" stroke="#b2b2ff"/>
<path d="M151.8 410.4l27 0l0 -28.8l-27 0l0 28.8" fill="none"/>
<path d="M219.3 410.4l36 0l0 -28.8l-36 0z" fill="#b2b2ff" stroke="#b2b2ff"/>
<path d="M219.3 410.4l36 0l0 -28.8l-36 0l0 28.8" fill="none"/>
<path d="M273.3 410.4l31.5 0l0 -28.8l-31.5 0z" fill="#b2b2ff" stroke="#b2b2ff"/>
<path d="M273.3 410.4l31.5 0l0 -28.8l-31.5 0l0 28.8" fill="none"/>
<path d="M331.8 410.4l22.5 0l0 -28.8l-22.5 0z" fill="#b2b2ff" stroke="#b2b2ff"/>
<path d="M331.8 410.4l22.5 0l0 -28.8l-22.5 0l0 28.8" fill="none"/>
<path d="M372.3 410.4l9 0l0 -28.8l-9 0z" fill="#b2b2ff" stroke="#b2b2ff"/>
<path d="M372.3 410.4l9 0l0 -28.8l-9 0l0 28.8" fill="none"/>
<path d="M412.8 410.4l40.5 0l0 -28.8l-40.5 0z" fill="#b2b2ff" stroke="#b2b2ff"/>
<path d="M412.8 410.4l40.5 0l0 -28.8l-40.5 0l0 28.8" fill="none"/>
<path d="M462.3 410.4l40.5 0l0 -28.8l-40.5 0z" fill="#b2b2ff" stroke="#b2b2ff"/>
<path d="M462.3 410.4l40.5 0l0 -28.8l-40.5 0l0 28.8" fill="none"/>
<path d="M507.3 410.4l27 0l0 -28.8l-27 0z" fill="#b2b2ff" stroke="#b2b2ff"/>
<path d="M507.3 410.4l27 0l0 -28.8l-27 0l0 28.8" fill="none"/>
<path d="M570.3 410.4l13.5 0l0 -28.8l-13.5 0z" fill="#b2b2ff" stroke="#b2b2ff"/>
<path d="M570.3 410.4l13.5 0l0 -28.8l-13.5 0l0 28.8" fill="none"/>
<path d="M624.3 410.4l40.5 0l0 -28.8l-40.5 0z" fill="#b2b2ff" stroke="#b2b2ff"/>
<path d="M624.3 410.4l40.5 0l0 -28.8l-40.5 0l0 28.8" fill="none"/>
<path d="M156.3 446.4l0 0l0 -28.8l0 0z" fill="#b2b2ff" stroke="#b2b2ff"/>
<path d="M156.3 446.4l0 0l0 -28.8l0 0l0 28.8" fill="none"/>
<path d="M201.3 446.4l18 0l0 -28.8l-18 0z" fill="#b2b2ff" stroke="#b2b2ff"/>
<path d="M201.3 446.4l18 0l0 -28.8l-18 0l0 28.8" fill="none"/>
<path d="M232.8 446.4l13.5 0l0 -28.8l-13.5 0z" fill="#b2b2ff" stroke="#b2b2ff"/>
<path d="M232.8 446.4l13.5 0l0 -28.8l-13.5 0l0 28.8" fill="none"/>
<path d="M277.8 446.4l9 0l0 -28.8l-9 0z" fill="#b2b2ff" stroke="#b2b2ff"/>
<path d="M277.8 446.4l9 0l0 -28.8l-9 0l0 28.8" fill="none"/>
<path d="M304.8 446.4l18 0l0 -28.8l-18 0z" fill="#b2b2ff" stroke="#b2b2ff"/>
<path d="M304.8 446.4l18 0l0 -28.8l-18 0l0 28.8" fill="none"/>
<path d="M345.3 446.4l0 0l0 -28.8l0 0z" fill="#b2b2ff" stroke="#b2b2ff"/>
<path d="M345.3 446.4l0 0l0 -28.8l0 0l0 28.8" fill="none"/>
<path d="M345.3 446.4l4.5 0l0 -28.8l-4.5 0z" fill="#b2b2ff" stroke="#b2b2ff"/>
<path d="M345.3 446.4l4.5 0l0 -28.8l-4.5 0l0 28.8" fill="none"/>
<path d="M390.3 446.4l9 0l0 -28.8l-9 0z" fill="#b2b2ff" stroke="#b2b2ff"/>
<path d="M390.3 446.4l9 0l0 -28.8l-9 0l0 28.8" fill="none"/>
<path d="M439.8 446.4l9 0l0 -28.8l-9 0z" fill="#b2b2ff" stroke="#b2b2ff"/>
<path d="M439.8 446.4l9 0l0 -28.8l-9 0l0 28.8" fill="none"/>
<path d="M471.3 446.4l13.5 0l0 -28.8l-13.5 0z" fill="#b2b2ff" stroke="#b2b2ff"/>
<path d="M471.3 446.4l13.5 0l0 -28.8l-13.5 0l0 28.8" fill="none"/>
<path d="M133.8 338.4l45 0l0 -28.8l-45 0z" fill="#b2b2ff" stroke="#b2b2ff"/>
<path d="M133.8 338.4l45 0l0 -28.8l-45 0l0 28.8" fill="none"/>
<path d="M183.3 338.4l36 0l0 -28.8l-36 0z" fill="#b2b2ff" stroke="#b2b2ff"/>
<path d="M183.3 338.4l36 0l0 -28.8l-36 0l0 28.8" fill="none"/>
<path d="M241.8 338.4l13.5 0l0 -28.8l-13.5 0z" fill="#b2b2ff" stroke="#b2b2ff"/>
<path d="M241.8 338.4l13.5 0l0 -28.8l-13.5 0l0 28.8" fill="none"/>
<path d="M277.8 338.4l36 0l0 -28.8l-36 0z" fill="#b2b2ff" stroke="#b2b2ff"/>
<path d="M277.8 338.4l36 0l0 -28.8l-36 0l0 28.8" fill="none"/>
<path d="M358.8 338.4l45 0l0 -28.8l-45 0z" fill="#b2b2ff" stroke="#b2b2ff"/>
<path d="M358.8 338.4l45 0l0 -28.8l-45 0l0 28.8" fill="none"/>
<path d="M403.8 338.4l36 0l0 -28.8l-36 0z" fill="#b2b2ff" stroke="#b2b2ff"/>
<path d="M403.8 338.4l36 0l0 -28.8l-36 0l0 28.8" fill="none"/>
<path d="M453.3 338.4l4.5 0l0 -28.8l-4.5 0z" fill="#b2b2ff" stroke="#b2b2ff"/>
<path d="M453.3 338.4l4.5 0l0 -28.8l-4.5 0l0 28.8" fill="none"/>
<path d="M475.8 338.4l13.5 0l0 -28.8l-13.5 0z" fill="#b2b2ff" stroke="#b2b2ff"/>
<path d="M475.8 338.4l13.5 0l0 -28.8l-13.5 0l0 28.8" fill="none"/>
<path d="M511.8 338.4l22.5 0l0 -28.8l-22.5 0z" fill="#b2b2ff" stroke="#b2b2ff"/>
<path d="M511.8 338.4l22.5 0l0 -28.8l-22.5 0l0 28.8" fill="none"/>
<path d="M570.3 338.4l22.5 0l0 -28.8l-22.5 0z" fill="#b2b2ff" stroke="#b2b2ff"/>
<path d="M570.3 338.4l22.5 0l0 -28.8l-22.5 0l0 28.8" fill="none"/>
<path d="M138.3 374.4l4.5 0l0 -28.8l-4.5 0z" fill="#b2b2ff" stroke="#b2b2ff"/>
<path d="M138.3 374.4l4.5 0l0 -28.8l-4.5 0l0 28.8" fill="none"/>
<path d="M169.8 374.4l40.5 0l0 -28.8l-40.5 0z" fill="#b2b2ff" stroke="#b2b2ff"/>
<path d="M169.8 374.4l40.5 0l0 -28.8l-40.5 0l0 28.8" fill="none"/>
<path d="M219.3 374.4l45 0l0 -28.8l-45 0z" fill="#b2b2ff" stroke="#b2b2ff"/>
<path d="M219.3 374.4l45 0l0 -28.8l-45 0l0 28.8" fill="none"/>
<path d="M309.3 374.4l36 0l0 -28.8l-36 0z" fill="#b2b2ff" stroke="#b2b2ff"/>
<path d="M309.3 374.4l36 0l0 -28.8l-36 0l0 28.8" fill="none"/>
<path d="M385.8 374.4l45 0l0 -28.8l-45 0z" fill="#b2b2ff" stroke="#b2b2ff"/>
<path d="M385.8 374.4l45 0l0 -28.8l-45 0l0 28.8" fill="none"/>
<path d="M466.8 374.4l4.5 0l0 -28.8l-4.5 0z" fill="#b2b2ff" stroke="#b2b2ff"/>
<path d="M466.8 374.4l4.5 0l0 -28.8l-4.5 0l0 28.8" fill="none"/>
<path d="M471.3 374.4l0 0l0 -28.8l0 0z" fill="#b2b2ff" stroke="#b2b2ff"/>
<path d="M471.3 374.4l0 0l0 -28.8l0 0l0 28.8" fill="none"/>
<path d="M498.3 374.4l18 0l0 -28.8l-18 0z" fill="#b2b2ff" stroke="#b2b2ff"/>
<path d="M498.3 374.4l18 0l0 -28.8l-18 0l0 28.8" fill="none"/>
<path d="M534.3 374.4l27 0l0 -28.8l-27 0z" fill="#b2b2ff" stroke="#b2b2ff"/>
<path d="M534.3 374.4l27 0l0 -28.8l-27 0l0 28.8" fill="none"/>
<path d="M606.3 374.4l4.5 0l0 -28.8l-4.5 0z" fill="#b2b2ff" stroke="#b2b2ff"/>
<path d="M606.3 374.4l4.5 0l0 -28.8l-4.5 0l0 28.8" fill="none"/>
</g><g style="&sw;0.5;&fs;6pt;&am;">
<text x="162.24" y="471.20" stroke="none">exp-0-0</text>
<text x="184.74" y="471.20" stroke="none">exp-0-1</text>
<text x="186.99" y="471.20" stroke="none">exp-0-2</text>
<text x="209.49" y="471.20" stroke="none">exp-0-3</text>
<text x="256.74" y="471.20" stroke="none">exp-0-4</text>
<text x="321.99" y="471.20" stroke="none">exp-0-5</text>
<text x="360.24" y="471.20" stroke="none">exp-0-6</text>
<text x="391.74" y="471.20" stroke="none">exp-0-7</text>
<text x="432.24" y="471.20" stroke="none">exp-0-8</text>
<text x="479.49" y="471.20" stroke="none">exp-0-9</text>
<text x="166.74" y="399.20" stroke="none">exp-1-0</text>
<text x="238.74" y="399.20" stroke="none">exp-1-1</text>
<text x="290.49" y="399.20" stroke="none">exp-1-2</text>
<text x="344.49" y="399.20" stroke="none">exp-1-3</text>
<text x="378.24" y="399.20" stroke="none">exp-1-4</text>
<text x="434.49" y="399.20" stroke="none">exp-1-5</text>
<text x="483.99" y="399.20" stroke="none">exp-1-6</text>
<text x="522.24" y="399.20" stroke="none">exp-1-7</text>
<text x="578.49" y="399.20" stroke="none">exp-1-8</text>
<text x="645.99" y="399.20" stroke="none">exp-1-9</text>
<text x="157.74" y="435.20" stroke="none">exp-2-0</text>
<text x="211.74" y="435.20" stroke="none">exp-2-1</text>
<text x="240.99" y="435.20" stroke="none">exp-2-2</text>
<text x="283.74" y="435.20" stroke="none">exp-2-3</text>
<text x="315.24" y="435.20" stroke="none">exp-2-4</text>
<text x="346.74" y="435.20" stroke="none">exp-2-5</text>
<text x="348.99" y="435.20" stroke="none">exp-2-6</text>
<text x="396.24" y="435.20" stroke="none">exp-2-7</text>
<text x="445.74" y="435.20" stroke="none">exp-2-8</text>
<text x="479.49" y="435.20" stroke="none">exp-2-9</text>
<text x="157.74" y="327.20" stroke="none">exp-3-0</text>
<text x="202.74" y="327.20" stroke="none">exp-3-1</text>
<text x="249.99" y="327.20" stroke="none">exp-3-2</text>
<text x="297.24" y="327.20" stroke="none">exp-3-3</text>
<text x="382.74" y="327.20" stroke="none">exp-3-4</text>
<text x="423.24" y="327.20" stroke="none">exp-3-5</text>
<text x="456.99" y="327.20" stroke="none">exp-3-6</text>
<text x="483.99" y="327.20" stroke="none">exp-3-7</text>
<text x="524.49" y="327.20" stroke="none">exp-3-8</text>
<text x="582.99" y="327.20" stroke="none">exp-3-9</text>
<text x="141.99" y="363.20" stroke="none">exp-4-0</text>
<text x="191.49" y="363.20" stroke="none">exp-4-1</text>
<text x="243.24" y="363.20" stroke="none">exp-4-2</text>
<text x="328.74" y="363.20" stroke="none">exp-4-3</text>
<text x="409.74" y="363.20" stroke="none">exp-4-4</text>
<text x="470.49" y="363.20" stroke="none">exp-4-5</text>
<text x="472.74" y="363.20" stroke="none">exp-4-6</text>
<text x="508.74" y="363.20" stroke="none">exp-4-7</text>
<text x="549.24" y="363.20" stroke="none">exp-4-8</text>
<text x="609.99" y="363.20" stroke="none">exp-4-9</text>
</g></g>
</g>
</svg>
