<?xml version="1.0" encoding="iso-8859-1" standalone="no"?>
<!DOCTYPE svg PUBLIC "-//W3C//DTD SVG 20010904//EN" 
  "http://www.w3.org/TR/2001/REC-SVG-20010904/DTD/svg10.dtd" [ 
<!ENTITY ff "font-family:">
<!ENTITY fs "font-size:">
<!ENTITY fw "font-weight:">
<!ENTITY fst "font-style:">
<!ENTITY sw "stroke-width:">
<!ENTITY as "text-anchor:start;">
<!ENTITY am "text-anchor:middle;">
<!ENTITY ae "text-anchor:end;">
]>
<!-- Generated by ploticus (http://ploticus.sourceforge.net/)
Title: ploticus-graphic
SVG Driver by B.Traill
-->
<svg xmlns="http://www.w3.org/2000/svg" 
  viewBox="0 0 710.80 283.28"      
  xmlns:xlink="http://www.w3.org/1999/xlink"
>
<g transform="translate(-31.20,-260.16)" >                                                       

<g style="fill:#000000;stroke:#000000;&ff;Helvetica;">
<g style="&sw;0.6;&fs;10pt;&as;">
<text x="72.00" y="286.56" stroke="none">Cloudmesh Reservation</text>
</g><g style="&sw;0.6;&fs;8pt;&am;">
<text x="72.00" y="519.04" stroke="none">9</text>
<text x="72.00" y="529.04" stroke="none">Jun14</text>
</g><g style="&sw;0.5;&fs;8pt;&am;">
<path d="M72 509l0 -5.04" fill="none"/>
<text x="180.00" y="519.04" stroke="none">10</text>
<path d="M180 509l0 -5.04" fill="none"/>
<text x="288.00" y="519.04" stroke="none">11</text>
<path d="M288 509l0 -5.04" fill="none"/>
<text x="396.00" y="519.04" stroke="none">12</text>
<path d="M396 509l0 -5.04" fill="none"/>
<text x="504.00" y="519.04" stroke="none">13</text>
<path d="M504 509l0 -5.04" fill="none"/>
<text x="612.00" y="519.04" stroke="none">14</text>
<path d="M612 509l0 -5.04" fill="none"/>
<text x="720.00" y="519.04" stroke="none">15</text>
<path d="M720 509l0 -5.04" fill="none"/>
<path d="M72 504l648 0" fill="none"/>
</g><g style="&sw;0.5;&fs;8pt;&ae;">
<text x="61.20" y="327.00" stroke="none">i02</text>
<path d="M66.96 324l5.04 0" fill="none"/>
<text x="61.20" y="363.00" stroke="none">i03</text>
<path d="M66.96 360l5.04 0" fill="none"/>
<text x="61.20" y="399.00" stroke="none">i01</text>
<path d="M66.96 396l5.04 0" fill="none"/>
<text x="61.20" y="435.00" stroke="none">i04</text>
<path d="M66.96 432l5.04 0" fill="none"/>
<text x="61.20" y="471.00" stroke="none">i05</text>
<path d="M66.96 468l5.04 0" fill="none"/>
<path d="M72 504l0 -216" fill="none"/>
<path d="M404.6 482.4l13.5 0l0 -28.8l-13.5 0z" fill="#b2b2ff" stroke="#b2b2ff"/>
<path d="M404.6 482.4l13.5 0l0 -28.8l-13.5 0l0 28.8" fill="none"/>
<path d="M463.1 482.4l45 0l0 -28.8l-45 0z" fill="#b2b2ff" stroke="#b2b2ff"/>
<path d="M463.1 482.4l45 0l0 -28.8l-45 0l0 28.8" fill="none"/>
<path d="M544.1 482.4l27 0l0 -28.8l-27 0z" fill="#b2b2ff" stroke="#b2b2ff"/>
<path d="M544.1 482.4l27 0l0 -28.8l-27 0l0 28.8" fill="none"/>
<path d="M593.6 482.4l27 0l0 -28.8l-27 0z" fill="#b2b2ff" stroke="#b2b2ff"/>
<path d="M593.6 482.4l27 0l0 -28.8l-27 0l0 28.8" fill="none"/>
<path d="M620.6 482.4l36 0l0 -28.8l-36 0z" fill="#b2b2ff" stroke="#b2b2ff"/>
<path d="M620.6 482.4l36 0l0 -28.8l-36 0l0 28.8" fill="none"/>
<path d="M175.1 410.4l31.5 0l0 -28.8l-31.5 0z" fill="#b2b2ff" stroke="#b2b2ff"/>
<path d="M175.1 410.4l31.5 0l0 -28.8l-31.5 0l0 28.8" fill="none"/>
<path d="M211.1 410.4l36 0l0 -28.8l-36 0z" fill="#b2b2ff" stroke="#b2b2ff"/>
<path d="M211.1 410.4l36 0l0 -28.8l-36 0l0 28.8" fill="none"/>
<path d="M260.6 410.4l4.5 0l0 -28.8l-4.5 0z" fill="#b2b2ff" stroke="#b2b2ff"/>
<path d="M260.6 410.4l4.5 0l0 -28.8l-4.5 0l0 28.8" fill="none"/>
<path d="M287.6 410.4l22.5 0l0 -28.8l-22.5 0z" fill="#b2b2ff" stroke="#b2b2ff"/>
<path d="M287.6 410.4l22.5 0l0 -28.8l-22.5 0l0 28.8" fill="none"/>
<path d="M328.1 410.4l18 0l0 -28.8l-18 0z" fill="#b2b2ff" stroke="#b2b2ff"/>
<path d="M328.1 410.4l18 0l0 -28.8l-18 0l0 28.8" fill="none"/>
<path d="M364.1 410.4l27 0l0 -28.8l-27 0z" fill="#b2b2ff" stroke="#b2b2ff"/>
<path d="M364.1 410.4l27 0l0 -28.8l-27 0l0 28.8" fill="none"/>
<path d="M431.6 410.4l22.5 0l0 -28.8l-22.5 0z" fill="#b2b2ff" stroke="#b2b2ff"/>
<path d="M431.6 410.4l22.5 0l0 -28.8l-22.5 0l0 28.8" fill="none"/>
<path d="M454.1 410.4l22.5 0l0 -28.8l-22.5 0z" fill="#b2b2ff" stroke="#b2b2ff"/>
<path d="M454.1 410.4l22.5 0l0 -28.8l-22.5 0l0 28.8" fill="none"/>
<path d="M517.1 410.4l13.5 0l0 -28.8l-13.5 0z" fill="#b2b2ff" stroke="#b2b2ff"/>
<path d="M517.1 410.4l13.5 0l0 -28.8l-13.5 0l0 28.8" fill="none"/>
<path d="M548.6 410.4l40.5 0l0 -28.8l-40.5 0z" fill="#b2b2ff" stroke="#b2b2ff"/>
<path d="M548.6 410.4l40.5 0l0 -28.8l-40.5 0l0 28.8" fill="none"/>
<path d="M161.6 338.4l45 0l0 -28.8l-45 0z" fill="#b2b2ff" stroke="#b2b2ff"/>
<path d="M161.6 338.4l45 0l0 -28.8l-45 0l0 28.8" fill="none"/>
<path d="M206.6 338.4l36 0l0 -28.8l-36 0z" fill="#b2b2ff" stroke="#b2b2ff"/>
<path d="M206.6 338.4l36 0l0 -28.8l-36 0l0 28.8" fill="none"/>
<path d="M251.6 338.4l45 0l0 -28.8l-45 0z" fill="#b2b2ff" stroke="#b2b2ff"/>
<path d="M251.6 338.4l45 0l0 -28.8l-45 0l0 28.8" fill="none"/>
<path d="M323.6 338.4l31.5 0l0 -28.8l-31.5 0z" fill="#b2b2ff" stroke="#b2b2ff"/>
<path d="M323.6 338.4l31.5 0l0 -28.8l-31.5 0l0 28.8" fill="none"/>
<path d="M364.1 338.4l13.5 0l0 -28.8l-13.5 0z" fill="#b2b2ff" stroke="#b2b2ff"/>
<path d="M364.1 338.4l13.5 0l0 -28.8l-13.5 0l0 28.8" fill="none"/>
<path d="M377.6 338.4l36 0l0 -28.8l-36 0z" fill="#b2b2ff" stroke="#b2b2ff"/>
<path d="M377.6 338.4l36 0l0 -28.8l-36 0l0 28.8" fill="none"/>
<path d="M418.1 338.4l18 0l0 -28.8l-18 0z" fill="#b2b2ff" stroke="#b2b2ff"/>
<path d="M418.1 338.4l18 0l0 -28.8l-18 0l0 28.8" fill="none"/>
<path d="M472.1 338.4l27 0l0 -28.8l-27 0z" fill="#b2b2ff" stroke="#b2b2ff"/>
<path d="M472.1 338.4l27 0l0 -28.8l-27 0l0 28.8" fill="none"/>
<path d="M539.6 338.4l40.5 0l0 -28.8l-40.5 0z" fill="#b2b2ff" stroke="#b2b2ff"/>
<path d="M539.6 338.4l40.5 0l0 -28.8l-40.5 0l0 28.8" fill="none"/>
<path d="M616.1 338.4l36 0l0 -28.8l-36 0z" fill="#b2b2ff" stroke="#b2b2ff"/>
<path d="M616.1 338.4l36 0l0 -28.8l-36 0l0 28.8" fill="none"/>
<path d="M148.1 374.4l18 0l0 -28.8l-18 0z" fill="#b2b2ff" stroke="#b2b2ff"/>
<path d="M148.1 374.4l18 0l0 -28.8l-18 0l0 28.8" fill="none"/>
<path d="M179.6 374.4l40.5 0l0 -28.8l-40.5 0z" fill="#b2b2ff" stroke="#b2b2ff"/>
<path d="M179.6 374.4l40.5 0l0 -28.8l-40.5 0l0 28.8" fill="none"/>
<path d="M238.1 374.4l9 0l0 -28.8l-9 0z" fill="#b2b2ff" stroke="#b2b2ff"/>
<path d="M238.1 374.4l9 0l0 -28.8l-9 0l0 28.8" fill="none"/>
<path d="M247.1 374.4l13.5 0l0 -28.8l-13.5 0z" fill="#b2b2ff" stroke="#b2b2ff"/>
<path d="M247.1 374.4l13.5 0l0 -28.8l-13.5 0l0 28.8" fill="none"/>
<path d="M269.6 374.4l45 0l0 -28.8l-45 0z" fill="#b2b2ff" stroke="#b2b2ff"/>
<path d="M269.6 374.4l45 0l0 -28.8l-45 0l0 28.8" fill="none"/>
<path d="M337.1 374.4l13.5 0l0 -28.8l-13.5 0z" fill="#b2b2ff" stroke="#b2b2ff"/>
<path d="M337.1 374.4l13.5 0l0 -28.8l-13.5 0l0 28.8" fill="none"/>
<path d="M391.1 374.4l4.5 0l0 -28.8l-4.5 0z" fill="#b2b2ff" stroke="#b2b2ff"/>
<path d="M391.1 374.4l4.5 0l0 -28.8l-4.5 0l0 28.8" fill="none"/>
<path d="M422.6 374.4l36 0l0 -28.8l-36 0z" fill="#b2b2ff" stroke="#b2b2ff"/>
<path d="M422.6 374.4l36 0l0 -28.8l-36 0l0 28.8" fill="none"/>
<path d="M463.1 374.4l13.5 0l0 -28.8l-13.5 0z" fill="#b2b2ff" stroke="#b2b2ff"/>
<path d="M463.1 374.4l13.5 0l0 -28.8l-13.5 0l0 28.8" fill="none"/>
<path d="M517.1 374.4l0 0l0 -28.8l0 0z" fill="#b2b2ff" stroke="#b2b2ff"/>
<path d="M517.1 374.4l0 0l0 -28.8l0 0l0 28.8" fill="none"/>
<path d="M166.1 446.4l0 0l0 -28.8l0 0z" fill="#b2b2ff" stroke="#b2b2ff"/>
<path d="M166.1 446.4l0 0l0 -28.8l0 0l0 28.8" fill="none"/>
<path d="M175.1 446.4l45 0l0 -28.8l-45 0z" fill="#b2b2ff" stroke="#b2b2ff"/>
<path d="M175.1 446.4l45 0l0 -28.8l-45 0l0 28.8" fill="none"/>
<path d="M220.1 446.4l22.5 0l0 -28.8l-22.5 0z" fill="#b2b2ff" stroke="#b2b2ff"/>
<path d="M220.1 446.4l22.5 0l0 -28.8l-22.5 0l0 28.8" fill="none"/>
<path d="M274.1 446.4l13.5 0l0 -28.8l-13.5 0z" fill="#b2b2ff" stroke="#b2b2ff"/>
<path d="M274.1 446.4l13.5 0l0 -28.8l-13.5 0l0 28.8" fill="none"/>
<path d="M301.1 446.4l45 0l0 -28.8l-45 0z" fill="#b2b2ff" stroke="#b2b2ff"/>
<path d="M301.1 446.4l45 0l0 -28.8l-45 0l0 28.8" fill="none"/>
<path d="M386.6 446.4l13.5 0l0 -28.8l-13.5 0z" fill="#b2b2ff" stroke="#b2b2ff"/>
<path d="M386.6 446.4l13.5 0l0 -28.8l-13.5 0l0 28.8" fill="none"/>
<path d="M445.1 446.4l22.5 0l0 -28.8l-22.5 0z" fill="#b2b2ff" stroke="#b2b2ff"/>
<path d="M445.1 446.4l22.5 0l0 -28.8l-22.5 0l0 28.8" fill="none"/>
<path d="M476.6 446.4l31.5 0l0 -28.8l-31.5 0z" fill="#b2b2ff" stroke="#b2b2ff"/>
<path d="M476.6 446.4l31.5 0l0 -28.8l-31.5 0l0 28.8" fill="none"/>
<path d="M512.6 446.4l27 0l0 -28.8l-27 0z" fill="#b2b2ff" stroke="#b2b2ff"/>
<path d="M512.6 446.4l27 0l0 -28.8l-27 0l0 28.8" fill="none"/>
<path d="M548.6 446.4l36 0l0 -28.8l-36 0z" fill="#b2b2ff" stroke="#b2b2ff"/>
<path d="M548.6 446.4l36 0l0 -28.8l-36 0l0 28.8" fill="none"/>
<path d="M179.6 482.4l45 0l0 -28.8l-45 0z" fill="#b2b2ff" stroke="#b2b2ff"/>
<path d="M179.6 482.4l45 0l0 -28.8l-45 0l0 28.8" fill="none"/>
<path d="M251.6 482.4l36 0l0 -28.8l-36 0z" fill="#b2b2ff" stroke="#b2b2ff"/>
<path d="M251.6 482.4l36 0l0 -28.8l-36 0l0 28.8" fill="none"/>
<path d="M287.6 482.4l36 0l0 -28.8l-36 0z" fill="#b2b2ff" stroke="#b2b2ff"/>
<path d="M287.6 482.4l36 0l0 -28.8l-36 0l0 28.8" fill="none"/>
<path d="M346.1 482.4l9 0l0 -28.8l-9 0z" fill="#b2b2ff" stroke="#b2b2ff"/>
<path d="M346.1 482.4l9 0l0 -28.8l-9 0l0 28.8" fill="none"/>
<path d="M364.1 482.4l0 0l0 -28.8l0 0z" fill="#b2b2ff" stroke="#b2b2ff"/>
<path d="M364.1 482.4l0 0l0 -28.8l0 0l0 28.8" fill="none"/>
</g><g style="&sw;0.5;&fs;6pt;&am;">
<text x="412.82" y="471.20" stroke="none">exp-4-5</text>
<text x="487.07" y="471.20" stroke="none">exp-4-6</text>
<text x="559.06" y="471.20" stroke="none">exp-4-7</text>
<text x="608.57" y="471.20" stroke="none">exp-4-8</text>
<text x="640.07" y="471.20" stroke="none">exp-4-9</text>
<text x="192.31" y="399.20" stroke="none">exp-0-0</text>
<text x="230.57" y="399.20" stroke="none">exp-0-1</text>
<text x="264.32" y="399.20" stroke="none">exp-0-2</text>
<text x="300.31" y="399.20" stroke="none">exp-0-3</text>
<text x="338.57" y="399.20" stroke="none">exp-0-4</text>
<text x="379.07" y="399.20" stroke="none">exp-0-5</text>
<text x="444.32" y="399.20" stroke="none">exp-0-6</text>
<text x="466.82" y="399.20" stroke="none">exp-0-7</text>
<text x="525.31" y="399.20" stroke="none">exp-0-8</text>
<text x="570.32" y="399.20" stroke="none">exp-0-9</text>
<text x="185.56" y="327.20" stroke="none">exp-1-0</text>
<text x="226.06" y="327.20" stroke="none">exp-1-1</text>
<text x="275.57" y="327.20" stroke="none">exp-1-2</text>
<text x="340.81" y="327.20" stroke="none">exp-1-3</text>
<text x="372.32" y="327.20" stroke="none">exp-1-4</text>
<text x="397.07" y="327.20" stroke="none">exp-1-5</text>
<text x="428.56" y="327.20" stroke="none">exp-1-6</text>
<text x="487.07" y="327.20" stroke="none">exp-1-7</text>
<text x="561.32" y="327.20" stroke="none">exp-1-8</text>
<text x="635.57" y="327.20" stroke="none">exp-1-9</text>
<text x="158.56" y="363.20" stroke="none">exp-2-0</text>
<text x="201.31" y="363.20" stroke="none">exp-2-1</text>
<text x="244.07" y="363.20" stroke="none">exp-2-2</text>
<text x="255.31" y="363.20" stroke="none">exp-2-3</text>
<text x="293.56" y="363.20" stroke="none">exp-2-4</text>
<text x="345.32" y="363.20" stroke="none">exp-2-5</text>
<text x="394.81" y="363.20" stroke="none">exp-2-6</text>
<text x="442.06" y="363.20" stroke="none">exp-2-7</text>
<text x="471.31" y="363.20" stroke="none">exp-2-8</text>
<text x="518.56" y="363.20" stroke="none">exp-2-9</text>
<text x="167.56" y="435.20" stroke="none">exp-3-0</text>
<text x="199.06" y="435.20" stroke="none">exp-3-1</text>
<text x="232.81" y="435.20" stroke="none">exp-3-2</text>
<text x="282.31" y="435.20" stroke="none">exp-3-3</text>
<text x="325.07" y="435.20" stroke="none">exp-3-4</text>
<text x="394.82" y="435.20" stroke="none">exp-3-5</text>
<text x="457.82" y="435.20" stroke="none">exp-3-6</text>
<text x="493.82" y="435.20" stroke="none">exp-3-7</text>
<text x="527.57" y="435.20" stroke="none">exp-3-8</text>
<text x="568.07" y="435.20" stroke="none">exp-3-9</text>
<text x="203.57" y="471.20" stroke="none">exp-4-0</text>
<text x="271.07" y="471.20" stroke="none">exp-4-1</text>
<text x="307.06" y="471.20" stroke="none">exp-4-2</text>
<text x="352.07" y="471.20" stroke="none">exp-4-3</text>
<text x="365.57" y="471.20" stroke="none">exp-4-4</text>
</g></g>
</g>
</svg>
