<?xml version="1.0" encoding="iso-8859-1" standalone="no"?>
<!DOCTYPE svg PUBLIC "-//W3C//DTD SVG 20010904//EN" 
  "http://www.w3.org/TR/2001/REC-SVG-20010904/DTD/svg10.dtd" [ 
<!ENTITY ff "font-family:">
<!ENTITY fs "font-size:">
<!ENTITY fw "font-weight:">
<!ENTITY fst "font-style:">
<!ENTITY sw "stroke-width:">
<!ENTITY as "text-anchor:start;">
<!ENTITY am "text-anchor:middle;">
<!ENTITY ae "text-anchor:end;">
]>
<!-- Generated by ploticus (http://ploticus.sourceforge.net/)
Title: ploticus-graphic
SVG Driver by B.Traill
-->
<svg xmlns="http://www.w3.org/2000/svg" 
  viewBox="0 0 710.80 283.28"      
  xmlns:xlink="http://www.w3.org/1999/xlink"
>
<g transform="translate(-31.20,-260.16)" >                                                       

<g style="fill:#000000;stroke:#000000;&ff;Helvetica;">
<g style="&sw;0.6;&fs;10pt;&as;">
<text x="72.00" y="286.56" stroke="none">Cloudmesh Reservation</text>
</g><g style="&sw;0.6;&fs;8pt;&am;">
<text x="72.00" y="519.04" stroke="none">10</text>
<text x="72.00" y="529.04" stroke="none">Jul14</text>
</g><g style="&sw;0.5;&fs;8pt;&am;">
<path d="M72 509l0 -5.04" fill="none"/>
<text x="180.00" y="519.04" stroke="none">11</text>
<path d="M180 509l0 -5.04" fill="none"/>
<text x="288.00" y="519.04" stroke="none">12</text>
<path d="M288 509l0 -5.04" fill="none"/>
<text x="396.00" y="519.04" stroke="none">13</text>
<path d="M396 509l0 -5.04" fill="none"/>
<text x="504.00" y="519.04" stroke="none">14</text>
<path d="M504 509l0 -5.04" fill="none"/>
<text x="612.00" y="519.04" stroke="none">15</text>
<path d="M612 509l0 -5.04" fill="none"/>
<text x="720.00" y="519.04" stroke="none">16</text>
<path d="M720 509l0 -5.04" fill="none"/>
<path d="M72 504l648 0" fill="none"/>
</g><g style="&sw;0.5;&fs;8pt;&ae;">
<text x="61.20" y="327.00" stroke="none">m04</text>
<path d="M66.96 324l5.04 0" fill="none"/>
<text x="61.20" y="363.00" stroke="none">m05</text>
<path d="M66.96 360l5.04 0" fill="none"/>
<text x="61.20" y="399.00" stroke="none">m02</text>
<path d="M66.96 396l5.04 0" fill="none"/>
<text x="61.20" y="435.00" stroke="none">m03</text>
<path d="M66.96 432l5.04 0" fill="none"/>
<text x="61.20" y="471.00" stroke="none">m01</text>
<path d="M66.96 468l5.04 0" fill="none"/>
<path d="M72 504l0 -216" fill="none"/>
<path d="M132.7 482.4l36 0l0 -28.8l-36 0z" fill="#b2b2ff" stroke="#b2b2ff"/>
<path d="M132.7 482.4l36 0l0 -28.8l-36 0l0 28.8" fill="none"/>
<path d="M182.2 482.4l9 0l0 -28.8l-9 0z" fill="#b2b2ff" stroke="#b2b2ff"/>
<path d="M182.2 482.4l9 0l0 -28.8l-9 0l0 28.8" fill="none"/>
<path d="M231.7 482.4l13.5 0l0 -28.8l-13.5 0z" fill="#b2b2ff" stroke="#b2b2ff"/>
<path d="M231.7 482.4l13.5 0l0 -28.8l-13.5 0l0 28.8" fill="none"/>
<path d="M245.2 482.4l18 0l0 -28.8l-18 0z" fill="#b2b2ff" stroke="#b2b2ff"/>
<path d="M245.2 482.4l18 0l0 -28.8l-18 0l0 28.8" fill="none"/>
<path d="M272.2 482.4l22.5 0l0 -28.8l-22.5 0z" fill="#b2b2ff" stroke="#b2b2ff"/>
<path d="M272.2 482.4l22.5 0l0 -28.8l-22.5 0l0 28.8" fill="none"/>
<path d="M317.2 482.4l22.5 0l0 -28.8l-22.5 0z" fill="#b2b2ff" stroke="#b2b2ff"/>
<path d="M317.2 482.4l22.5 0l0 -28.8l-22.5 0l0 28.8" fill="none"/>
<path d="M339.7 482.4l13.5 0l0 -28.8l-13.5 0z" fill="#b2b2ff" stroke="#b2b2ff"/>
<path d="M339.7 482.4l13.5 0l0 -28.8l-13.5 0l0 28.8" fill="none"/>
<path d="M362.2 482.4l9 0l0 -28.8l-9 0z" fill="#b2b2ff" stroke="#b2b2ff"/>
<path d="M362.2 482.4l9 0l0 -28.8l-9 0l0 28.8" fill="none"/>
<path d="M398.2 482.4l0 0l0 -28.8l0 0z" fill="#b2b2ff" stroke="#b2b2ff"/>
<path d="M398.2 482.4l0 0l0 -28.8l0 0l0 28.8" fill="none"/>
<path d="M411.7 482.4l40.5 0l0 -28.8l-40.5 0z" fill="#b2b2ff" stroke="#b2b2ff"/>
<path d="M411.7 482.4l40.5 0l0 -28.8l-40.5 0l0 28.8" fill="none"/>
<path d="M150.7 410.4l40.5 0l0 -28.8l-40.5 0z" fill="#b2b2ff" stroke="#b2b2ff"/>
<path d="M150.7 410.4l40.5 0l0 -28.8l-40.5 0l0 28.8" fill="none"/>
<path d="M204.7 410.4l27 0l0 -28.8l-27 0z" fill="#b2b2ff" stroke="#b2b2ff"/>
<path d="M204.7 410.4l27 0l0 -28.8l-27 0l0 28.8" fill="none"/>
<path d="M254.2 410.4l36 0l0 -28.8l-36 0z" fill="#b2b2ff" stroke="#b2b2ff"/>
<path d="M254.2 410.4l36 0l0 -28.8l-36 0l0 28.8" fill="none"/>
<path d="M303.7 410.4l9 0l0 -28.8l-9 0z" fill="#b2b2ff" stroke="#b2b2ff"/>
<path d="M303.7 410.4l9 0l0 -28.8l-9 0l0 28.8" fill="none"/>
<path d="M348.7 410.4l0 0l0 -28.8l0 0z" fill="#b2b2ff" stroke="#b2b2ff"/>
<path d="M348.7 410.4l0 0l0 -28.8l0 0l0 28.8" fill="none"/>
<path d="M371.2 410.4l0 0l0 -28.8l0 0z" fill="#b2b2ff" stroke="#b2b2ff"/>
<path d="M371.2 410.4l0 0l0 -28.8l0 0l0 28.8" fill="none"/>
<path d="M407.2 410.4l45 0l0 -28.8l-45 0z" fill="#b2b2ff" stroke="#b2b2ff"/>
<path d="M407.2 410.4l45 0l0 -28.8l-45 0l0 28.8" fill="none"/>
<path d="M497.2 410.4l31.5 0l0 -28.8l-31.5 0z" fill="#b2b2ff" stroke="#b2b2ff"/>
<path d="M497.2 410.4l31.5 0l0 -28.8l-31.5 0l0 28.8" fill="none"/>
<path d="M573.7 410.4l31.5 0l0 -28.8l-31.5 0z" fill="#b2b2ff" stroke="#b2b2ff"/>
<path d="M573.7 410.4l31.5 0l0 -28.8l-31.5 0l0 28.8" fill="none"/>
<path d="M605.2 410.4l22.5 0l0 -28.8l-22.5 0z" fill="#b2b2ff" stroke="#b2b2ff"/>
<path d="M605.2 410.4l22.5 0l0 -28.8l-22.5 0l0 28.8" fill="none"/>
<path d="M141.7 446.4l22.5 0l0 -28.8l-22.5 0z" fill="#b2b2ff" stroke="#b2b2ff"/>
<path d="M141.7 446.4l22.5 0l0 -28.8l-22.5 0l0 28.8" fill="none"/>
<path d="M177.7 446.4l27 0l0 -28.8l-27 0z" fill="#b2b2ff" stroke="#b2b2ff"/>
<path d="M177.7 446.4l27 0l0 -28.8l-27 0l0 28.8" fill="none"/>
<path d="M209.2 446.4l4.5 0l0 -28.8l-4.5 0z" fill="#b2b2ff" stroke="#b2b2ff"/>
<path d="M209.2 446.4l4.5 0l0 -28.8l-4.5 0l0 28.8" fill="none"/>
<path d="M231.7 446.4l31.5 0l0 -28.8l-31.5 0z" fill="#b2b2ff" stroke="#b2b2ff"/>
<path d="M231.7 446.4l31.5 0l0 -28.8l-31.5 0l0 28.8" fill="none"/>
<path d="M294.7 446.4l4.5 0l0 -28.8l-4.5 0z" fill="#b2b2ff" stroke="#b2b2ff"/>
<path d="M294.7 446.4l4.5 0l0 -28.8l-4.5 0l0 28.8" fill="none"/>
<path d="M330.7 446.4l4.5 0l0 -28.8l-4.5 0z" fill="#b2b2ff" stroke="#b2b2ff"/>
<path d="M330.7 446.4l4.5 0l0 -28.8l-4.5 0l0 28.8" fill="none"/>
<path d="M357.7 446.4l0 0l0 -28.8l0 0z" fill="#b2b2ff" stroke="#b2b2ff"/>
<path d="M357.7 446.4l0 0l0 -28.8l0 0l0 28.8" fill="none"/>
<path d="M384.7 446.4l40.5 0l0 -28.8l-40.5 0z" fill="#b2b2ff" stroke="#b2b2ff"/>
<path d="M384.7 446.4l40.5 0l0 -28.8l-40.5 0l0 28.8" fill="none"/>
<path d="M452.2 446.4l40.5 0l0 -28.8l-40.5 0z" fill="#b2b2ff" stroke="#b2b2ff"/>
<path d="M452.2 446.4l40.5 0l0 -28.8l-40.5 0l0 28.8" fill="none"/>
<path d="M510.7 446.4l9 0l0 -28.8l-9 0z" fill="#b2b2ff" stroke="#b2b2ff"/>
<path d="M510.7 446.4l9 0l0 -28.8l-9 0l0 28.8" fill="none"/>
<path d="M159.7 338.4l4.5 0l0 -28.8l-4.5 0z" fill="#b2b2ff" stroke="#b2b2ff"/>
<path d="M159.7 338.4l4.5 0l0 -28.8l-4.5 0l0 28.8" fill="none"/>
<path d="M209.2 338.4l0 0l0 -28.8l0 0z" fill="#b2b2ff" stroke="#b2b2ff"/>
<path d="M209.2 338.4l0 0l0 -28.8l0 0l0 28.8" fill="none"/>
<path d="M222.7 338.4l18 0l0 -28.8l-18 0z" fill="#b2b2ff" stroke="#b2b2ff"/>
<path d="M222.7 338.4l18 0l0 -28.8l-18 0l0 28.8" fill="none"/>
<path d="M245.2 338.4l9 0l0 -28.8l-9 0z" fill="#b2b2ff" stroke="#b2b2ff"/>
<path d="M245.2 338.4l9 0l0 -28.8l-9 0l0 28.8" fill="none"/>
<path d="M290.2 338.4l4.5 0l0 -28.8l-4.5 0z" fill="#b2b2ff" stroke="#b2b2ff"/>
<path d="M290.2 338.4l4.5 0l0 -28.8l-4.5 0l0 28.8" fill="none"/>
<path d="M317.2 338.4l18 0l0 -28.8l-18 0z" fill="#b2b2ff" stroke="#b2b2ff"/>
<path d="M317.2 338.4l18 0l0 -28.8l-18 0l0 28.8" fill="none"/>
<path d="M348.7 338.4l27 0l0 -28.8l-27 0z" fill="#b2b2ff" stroke="#b2b2ff"/>
<path d="M348.7 338.4l27 0l0 -28.8l-27 0l0 28.8" fill="none"/>
<path d="M375.7 338.4l4.5 0l0 -28.8l-4.5 0z" fill="#b2b2ff" stroke="#b2b2ff"/>
<path d="M375.7 338.4l4.5 0l0 -28.8l-4.5 0l0 28.8" fill="none"/>
<path d="M416.2 338.4l31.5 0l0 -28.8l-31.5 0z" fill="#b2b2ff" stroke="#b2b2ff"/>
<path d="M416.2 338.4l31.5 0l0 -28.8l-31.5 0l0 28.8" fill="none"/>
<path d="M465.7 338.4l31.5 0l0 -28.8l-31.5 0z" fill="#b2b2ff" stroke="#b2b2ff"/>
<path d="M465.7 338.4l31.5 0l0 -28.8l-31.5 0l0 28.8" fill="none"/>
<path d="M137.2 374.4l13.5 0l0 -28.8l-13.5 0z" fill="#b2b2ff" stroke="#b2b2ff"/>
<path d="M137.2 374.4l13.5 0l0 -28.8l-13.5 0l0 28.8" fill="none"/>
<path d="M173.2 374.4l36 0l0 -28.8l-36 0z" fill="#b2b2ff" stroke="#b2b2ff"/>
<path d="M173.2 374.4l36 0l0 -28.8l-36 0l0 28.8" fill="none"/>
<path d="M231.7 374.4l45 0l0 -28.8l-45 0z" fill="#b2b2ff" stroke="#b2b2ff"/>
<path d="M231.7 374.4l45 0l0 -28.8l-45 0l0 28.8" fill="none"/>
<path d="M281.2 374.4l9 0l0 -28.8l-9 0z" fill="#b2b2ff" stroke="#b2b2ff"/>
<path d="M281.2 374.4l9 0l0 -28.8l-9 0l0 28.8" fill="none"/>
<path d="M312.7 374.4l22.5 0l0 -28.8l-22.5 0z" fill="#b2b2ff" stroke="#b2b2ff"/>
<path d="M312.7 374.4l22.5 0l0 -28.8l-22.5 0l0 28.8" fill="none"/>
<path d="M371.2 374.4l9 0l0 -28.8l-9 0z" fill="#b2b2ff" stroke="#b2b2ff"/>
<path d="M371.2 374.4l9 0l0 -28.8l-9 0l0 28.8" fill="none"/>
<path d="M407.2 374.4l40.5 0l0 -28.8l-40.5 0z" fill="#b2b2ff" stroke="#b2b2ff"/>
<path d="M407.2 374.4l40.5 0l0 -28.8l-40.5 0l0 28.8" fill="none"/>
<path d="M452.2 374.4l4.5 0l0 -28.8l-4.5 0z" fill="#b2b2ff" stroke="#b2b2ff"/>
<path d="M452.2 374.4l4.5 0l0 -28.8l-4.5 0l0 28.8" fill="none"/>
<path d="M470.2 374.4l40.5 0l0 -28.8l-40.5 0z" fill="#b2b2ff" stroke="#b2b2ff"/>
<path d="M470.2 374.4l40.5 0l0 -28.8l-40.5 0l0 28.8" fill="none"/>
<path d="M537.7 374.4l27 0l0 -28.8l-27 0z" fill="#b2b2ff" stroke="#b2b2ff"/>
<path d="M537.7 374.4l27 0l0 -28.8l-27 0l0 28.8" fill="none"/>
<path d="M150.9 482.4l36 0l0 -28.8l-36 0z" fill="#b2b2ff" stroke="#b2b2ff"/>
<path d="M150.9 482.4l36 0l0 -28.8l-36 0l0 28.8" fill="none"/>
<path d="M195.9 482.4l31.5 0l0 -28.8l-31.5 0z" fill="#b2b2ff" stroke="#b2b2ff"/>
<path d="M195.9 482.4l31.5 0l0 -28.8l-31.5 0l0 28.8" fill="none"/>
<path d="M227.4 482.4l31.5 0l0 -28.8l-31.5 0z" fill="#b2b2ff" stroke="#b2b2ff"/>
<path d="M227.4 482.4l31.5 0l0 -28.8l-31.5 0l0 28.8" fill="none"/>
<path d="M267.9 482.4l45 0l0 -28.8l-45 0z" fill="#b2b2ff" stroke="#b2b2ff"/>
<path d="M267.9 482.4l45 0l0 -28.8l-45 0l0 28.8" fill="none"/>
<path d="M326.4 482.4l40.5 0l0 -28.8l-40.5 0z" fill="#b2b2ff" stroke="#b2b2ff"/>
<path d="M326.4 482.4l40.5 0l0 -28.8l-40.5 0l0 28.8" fill="none"/>
<path d="M407.4 482.4l9 0l0 -28.8l-9 0z" fill="#b2b2ff" stroke="#b2b2ff"/>
<path d="M407.4 482.4l9 0l0 -28.8l-9 0l0 28.8" fill="none"/>
<path d="M443.4 482.4l22.5 0l0 -28.8l-22.5 0z" fill="#b2b2ff" stroke="#b2b2ff"/>
<path d="M443.4 482.4l22.5 0l0 -28.8l-22.5 0l0 28.8" fill="none"/>
<path d="M488.4 482.4l0 0l0 -28.8l0 0z" fill="#b2b2ff" stroke="#b2b2ff"/>
<path d="M488.4 482.4l0 0l0 -28.8l0 0l0 28.8" fill="none"/>
<path d="M515.4 482.4l22.5 0l0 -28.8l-22.5 0z" fill="#b2b2ff" stroke="#b2b2ff"/>
<path d="M515.4 482.4l22.5 0l0 -28.8l-22.5 0l0 28.8" fill="none"/>
<path d="M555.9 482.4l4.5 0l0 -28.8l-4.5 0z" fill="#b2b2ff" stroke="#b2b2ff"/>
<path d="M555.9 482.4l4.5 0l0 -28.8l-4.5 0l0 28.8" fill="none"/>
<path d="M146.4 410.4l22.5 0l0 -28.8l-22.5 0z" fill="#b2b2ff" stroke="#b2b2ff"/>
<path d="M146.4 410.4l22.5 0l0 -28.8l-22.5 0l0 28.8" fill="none"/>
<path d="M200.4 410.4l36 0l0 -28.8l-36 0z" fill="#b2b2ff" stroke="#b2b2ff"/>
<path d="M200.4 410.4l36 0l0 -28.8l-36 0l0 28.8" fill="none"/>
<path d="M263.4 410.4l18 0l0 -28.8l-18 0z" fill="#b2b2ff" stroke="#b2b2ff"/>
<path d="M263.4 410.4l18 0l0 -28.8l-18 0l0 28.8" fill="none"/>
<path d="M299.4 410.4l27 0l0 -28.8l-27 0z" fill="#b2b2ff" stroke="#b2b2ff"/>
<path d="M299.4 410.4l27 0l0 -28.8l-27 0l0 28.8" fill="none"/>
<path d="M344.4 410.4l0 0l0 -28.8l0 0z" fill="#b2b2ff" stroke="#b2b2ff"/>
<path d="M344.4 410.4l0 0l0 -28.8l0 0l0 28.8" fill="none"/>
<path d="M344.4 410.4l13.5 0l0 -28.8l-13.5 0z" fill="#b2b2ff" stroke="#b2b2ff"/>
<path d="M344.4 410.4l13.5 0l0 -28.8l-13.5 0l0 28.8" fill="none"/>
<path d="M380.4 410.4l40.5 0l0 -28.8l-40.5 0z" fill="#b2b2ff" stroke="#b2b2ff"/>
<path d="M380.4 410.4l40.5 0l0 -28.8l-40.5 0l0 28.8" fill="none"/>
<path d="M429.9 410.4l36 0l0 -28.8l-36 0z" fill="#b2b2ff" stroke="#b2b2ff"/>
<path d="M429.9 410.4l36 0l0 -28.8l-36 0l0 28.8" fill="none"/>
<path d="M483.9 410.4l22.5 0l0 -28.8l-22.5 0z" fill="#b2b2ff" stroke="#b2b2ff"/>
<path d="M483.9 410.4l22.5 0l0 -28.8l-22.5 0l0 28.8" fill="none"/>
<path d="M546.9 410.4l18 0l0 -28.8l-18 0z" fill="#b2b2ff" stroke="#b2b2ff"/>
<path d="M546.9 410.4l18 0l0 -28.8l-18 0l0 28.8" fill="none"/>
<path d="M159.9 446.4l40.5 0l0 -28.8l-40.5 0z" fill="#b2b2ff" stroke="#b2b2ff"/>
<path d="M159.9 446.4l40.5 0l0 -28.8l-40.5 0l0 28.8" fill="none"/>
<path d="M231.9 446.4l4.5 0l0 -28.8l-4.5 0z" fill="#b2b2ff" stroke="#b2b2ff"/>
<path d="M231.9 446.4l4.5 0l0 -28.8l-4.5 0l0 28.8" fill="none"/>
<path d="M276.9 446.4l36 0l0 -28.8l-36 0z" fill="#b2b2ff" stroke="#b2b2ff"/>
<path d="M276.9 446.4l36 0l0 -28.8l-36 0l0 28.8" fill="none"/>
<path d="M348.9 446.4l9 0l0 -28.8l-9 0z" fill="#b2b2ff" stroke="#b2b2ff"/>
<path d="M348.9 446.4l9 0l0 -28.8l-9 0l0 28.8" fill="none"/>
<path d="M357.9 446.4l40.5 0l0 -28.8l-40.5 0z" fill="#b2b2ff" stroke="#b2b2ff"/>
<path d="M357.9 446.4l40.5 0l0 -28.8l-40.5 0l0 28.8" fill="none"/>
<path d="M407.4 446.4l36 0l0 -28.8l-36 0z" fill="#b2b2ff" stroke="#b2b2ff"/>
<path d="M407.4 446.4l36 0l0 -28.8l-36 0l0 28.8" fill="none"/>
<path d="M443.4 446.4l40.5 0l0 -28.8l-40.5 0z" fill="#b2b2ff" stroke="#b2b2ff"/>
<path d="M443.4 446.4l40.5 0l0 -28.8l-40.5 0l0 28.8" fill="none"/>
<path d="M519.9 446.4l45 0l0 -28.8l-45 0z" fill="#b2b2ff" stroke="#b2b2ff"/>
<path d="M519.9 446.4l45 0l0 -28.8l-45 0l0 28.8" fill="none"/>
<path d="M605.4 446.4l45 0l0 -28.8l-45 0z" fill="#b2b2ff" stroke="#b2b2ff"/>
<path d="M605.4 446.4l45 0l0 -28.8l-45 0l0 28.8" fill="none"/>
<path d="M663.9 446.4l40.5 0l0 -28.8l-40.5 0z" fill="#b2b2ff" stroke="#b2b2ff"/>
<path d="M663.9 446.4l40.5 0l0 -28.8l-40.5 0l0 28.8" fill="none"/>
<path d="M150.9 338.4l45 0l0 -28.8l-45 0z" fill="#b2b2ff" stroke="#b2b2ff"/>
<path d="M150.9 338.4l45 0l0 -28.8l-45 0l0 28.8" fill="none"/>
<path d="M222.9 338.4l9 0l0 -28.8l-9 0z" fill="#b2b2ff" stroke="#b2b2ff"/>
<path d="M222.9 338.4l9 0l0 -28.8l-9 0l0 28.8" fill="none"/>
<path d="M263.4 338.4l13.5 0l0 -28.8l-13.5 0z" fill="#b2b2ff" stroke="#b2b2ff"/>
<path d="M263.4 338.4l13.5 0l0 -28.8l-13.5 0l0 28.8" fill="none"/>
<path d="M312.9 338.4l13.5 0l0 -28.8l-13.5 0z" fill="#b2b2ff" stroke="#b2b2ff"/>
<path d="M312.9 338.4l13.5 0l0 -28.8l-13.5 0l0 28.8" fill="none"/>
<path d="M366.9 338.4l18 0l0 -28.8l-18 0z" fill="#b2b2ff" stroke="#b2b2ff"/>
<path d="M366.9 338.4l18 0l0 -28.8l-18 0l0 28.8" fill="none"/>
<path d="M429.9 338.4l22.5 0l0 -28.8l-22.5 0z" fill="#b2b2ff" stroke="#b2b2ff"/>
<path d="M429.9 338.4l22.5 0l0 -28.8l-22.5 0l0 28.8" fill="none"/>
<path d="M470.4 338.4l4.5 0l0 -28.8l-4.5 0z" fill="#b2b2ff" stroke="#b2b2ff"/>
<path d="M470.4 338.4l4.5 0l0 -28.8l-4.5 0l0 28.8" fill="none"/>
<path d="M488.4 338.4l22.5 0l0 -28.8l-22.5 0z" fill="#b2b2ff" stroke="#b2b2ff"/>
<path d="M488.4 338.4l22.5 0l0 -28.8l-22.5 0l0 28.8" fill="none"/>
<path d="M546.9 338.4l13.5 0l0 -28.8l-13.5 0z" fill="#b2b2ff" stroke="#b2b2ff"/>
<path d="M546.9 338.4l13.5 0l0 -28.8l-13.5 0l0 28.8" fill="none"/>
<path d="M582.9 338.4l22.5 0l0 -28.8l-22.5 0z" fill="#b2b2ff" stroke="#b2b2ff"/>
<path d="M582.9 338.4l22.5 0l0 -28.8l-22.5 0l0 28.8" fill="none"/>
<path d="M132.9 374.4l22.5 0l0 -28.8l-22.5 0z" fill="#b2b2ff" stroke="#b2b2ff"/>
<path d="M132.9 374.4l22.5 0l0 -28.8l-22.5 0l0 28.8" fill="none"/>
<path d="M177.9 374.4l31.5 0l0 -28.8l-31.5 0z" fill="#b2b2ff" stroke="#b2b2ff"/>
<path d="M177.9 374.4l31.5 0l0 -28.8l-31.5 0l0 28.8" fill="none"/>
<path d="M227.4 374.4l9 0l0 -28.8l-9 0z" fill="#b2b2ff" stroke="#b2b2ff"/>
<path d="M227.4 374.4l9 0l0 -28.8l-9 0l0 28.8" fill="none"/>
<path d="M267.9 374.4l18 0l0 -28.8l-18 0z" fill="#b2b2ff" stroke="#b2b2ff"/>
<path d="M267.9 374.4l18 0l0 -28.8l-18 0l0 28.8" fill="none"/>
<path d="M308.4 374.4l36 0l0 -28.8l-36 0z" fill="#b2b2ff" stroke="#b2b2ff"/>
<path d="M308.4 374.4l36 0l0 -28.8l-36 0l0 28.8" fill="none"/>
<path d="M344.4 374.4l4.5 0l0 -28.8l-4.5 0z" fill="#b2b2ff" stroke="#b2b2ff"/>
<path d="M344.4 374.4l4.5 0l0 -28.8l-4.5 0l0 28.8" fill="none"/>
<path d="M362.4 374.4l9 0l0 -28.8l-9 0z" fill="#b2b2ff" stroke="#b2b2ff"/>
<path d="M362.4 374.4l9 0l0 -28.8l-9 0l0 28.8" fill="none"/>
<path d="M393.9 374.4l36 0l0 -28.8l-36 0z" fill="#b2b2ff" stroke="#b2b2ff"/>
<path d="M393.9 374.4l36 0l0 -28.8l-36 0l0 28.8" fill="none"/>
<path d="M452.4 374.4l45 0l0 -28.8l-45 0z" fill="#b2b2ff" stroke="#b2b2ff"/>
<path d="M452.4 374.4l45 0l0 -28.8l-45 0l0 28.8" fill="none"/>
<path d="M506.4 374.4l31.5 0l0 -28.8l-31.5 0z" fill="#b2b2ff" stroke="#b2b2ff"/>
<path d="M506.4 374.4l31.5 0l0 -28.8l-31.5 0l0 28.8" fill="none"/>
<path d="M119.5 482.4l40.5 0l0 -28.8l-40.5 0z" fill="#b2b2ff" stroke="#b2b2ff"/>
<path d="M119.5 482.4l40.5 0l0 -28.8l-40.5 0l0 28.8" fill="none"/>
<path d="M205 482.4l36 0l0 -28.8l-36 0z" fill="#b2b2ff" stroke="#b2b2ff"/>
<path d="M205 482.4l36 0l0 -28.8l-36 0l0 28.8" fill="none"/>
<path d="M272.5 482.4l18 0l0 -28.8l-18 0z" fill="#b2b2ff" stroke="#b2b2ff"/>
<path d="M272.5 482.4l18 0l0 -28.8l-18 0l0 28.8" fill="none"/>
<path d="M313 482.4l36 0l0 -28.8l-36 0z" fill="#b2b2ff" stroke="#b2b2ff"/>
<path d="M313 482.4l36 0l0 -28.8l-36 0l0 28.8" fill="none"/>
<path d="M385 482.4l45 0l0 -28.8l-45 0z" fill="#b2b2ff" stroke="#b2b2ff"/>
<path d="M385 482.4l45 0l0 -28.8l-45 0l0 28.8" fill="none"/>
<path d="M439 482.4l27 0l0 -28.8l-27 0z" fill="#b2b2ff" stroke="#b2b2ff"/>
<path d="M439 482.4l27 0l0 -28.8l-27 0l0 28.8" fill="none"/>
<path d="M506.5 482.4l13.5 0l0 -28.8l-13.5 0z" fill="#b2b2ff" stroke="#b2b2ff"/>
<path d="M506.5 482.4l13.5 0l0 -28.8l-13.5 0l0 28.8" fill="none"/>
<path d="M560.5 482.4l0 0l0 -28.8l0 0z" fill="#b2b2ff" stroke="#b2b2ff"/>
<path d="M560.5 482.4l0 0l0 -28.8l0 0l0 28.8" fill="none"/>
<path d="M565 482.4l9 0l0 -28.8l-9 0z" fill="#b2b2ff" stroke="#b2b2ff"/>
<path d="M565 482.4l9 0l0 -28.8l-9 0l0 28.8" fill="none"/>
<path d="M601 482.4l45 0l0 -28.8l-45 0z" fill="#b2b2ff" stroke="#b2b2ff"/>
<path d="M601 482.4l45 0l0 -28.8l-45 0l0 28.8" fill="none"/>
<path d="M128.5 410.4l0 0l0 -28.8l0 0z" fill="#b2b2ff" stroke="#b2b2ff"/>
<path d="M128.5 410.4l0 0l0 -28.8l0 0l0 28.8" fill="none"/>
<path d="M137.5 410.4l18 0l0 -28.8l-18 0z" fill="#b2b2ff" stroke="#b2b2ff"/>
<path d="M137.5 410.4l18 0l0 -28.8l-18 0l0 28.8" fill="none"/>
<path d="M160 410.4l13.5 0l0 -28.8l-13.5 0z" fill="#b2b2ff" stroke="#b2b2ff"/>
<path d="M160 410.4l13.5 0l0 -28.8l-13.5 0l0 28.8" fill="none"/>
<path d="M178 410.4l45 0l0 -28.8l-45 0z" fill="#b2b2ff" stroke="#b2b2ff"/>
<path d="M178 410.4l45 0l0 -28.8l-45 0l0 28.8" fill="none"/>
<path d="M254.5 410.4l40.5 0l0 -28.8l-40.5 0z" fill="#b2b2ff" stroke="#b2b2ff"/>
<path d="M254.5 410.4l40.5 0l0 -28.8l-40.5 0l0 28.8" fill="none"/>
<path d="M331 410.4l27 0l0 -28.8l-27 0z" fill="#b2b2ff" stroke="#b2b2ff"/>
<path d="M331 410.4l27 0l0 -28.8l-27 0l0 28.8" fill="none"/>
<path d="M358 410.4l0 0l0 -28.8l0 0z" fill="#b2b2ff" stroke="#b2b2ff"/>
<path d="M358 410.4l0 0l0 -28.8l0 0l0 28.8" fill="none"/>
<path d="M380.5 410.4l22.5 0l0 -28.8l-22.5 0z" fill="#b2b2ff" stroke="#b2b2ff"/>
<path d="M380.5 410.4l22.5 0l0 -28.8l-22.5 0l0 28.8" fill="none"/>
<path d="M421 410.4l36 0l0 -28.8l-36 0z" fill="#b2b2ff" stroke="#b2b2ff"/>
<path d="M421 410.4l36 0l0 -28.8l-36 0l0 28.8" fill="none"/>
<path d="M475 410.4l31.5 0l0 -28.8l-31.5 0z" fill="#b2b2ff" stroke="#b2b2ff"/>
<path d="M475 410.4l31.5 0l0 -28.8l-31.5 0l0 28.8" fill="none"/>
<path d="M142 446.4l31.5 0l0 -28.8l-31.5 0z" fill="#b2b2ff" stroke="#b2b2ff"/>
<path d="M142 446.4l31.5 0l0 -28.8l-31.5 0l0 28.8" fill="none"/>
<path d="M187 446.4l40.5 0l0 -28.8l-40.5 0z" fill="#b2b2ff" stroke="#b2b2ff"/>
<path d="M187 446.4l40.5 0l0 -28.8l-40.5 0l0 28.8" fill="none"/>
<path d="M236.5 446.4l4.5 0l0 -28.8l-4.5 0z" fill="#b2b2ff" stroke="#b2b2ff"/>
<path d="M236.5 446.4l4.5 0l0 -28.8l-4.5 0l0 28.8" fill="none"/>
<path d="M241 446.4l4.5 0l0 -28.8l-4.5 0z" fill="#b2b2ff" stroke="#b2b2ff"/>
<path d="M241 446.4l4.5 0l0 -28.8l-4.5 0l0 28.8" fill="none"/>
<path d="M250 446.4l18 0l0 -28.8l-18 0z" fill="#b2b2ff" stroke="#b2b2ff"/>
<path d="M250 446.4l18 0l0 -28.8l-18 0l0 28.8" fill="none"/>
<path d="M281.5 446.4l40.5 0l0 -28.8l-40.5 0z" fill="#b2b2ff" stroke="#b2b2ff"/>
<path d="M281.5 446.4l40.5 0l0 -28.8l-40.5 0l0 28.8" fill="none"/>
<path d="M362.5 446.4l31.5 0l0 -28.8l-31.5 0z" fill="#b2b2ff" stroke="#b2b2ff"/>
<path d="M362.5 446.4l31.5 0l0 -28.8l-31.5 0l0 28.8" fill="none"/>
<path d="M398.5 446.4l4.5 0l0 -28.8l-4.5 0z" fill="#b2b2ff" stroke="#b2b2ff"/>
<path d="M398.5 446.4l4.5 0l0 -28.8l-4.5 0l0 28.8" fill="none"/>
<path d="M448 446.4l13.5 0l0 -28.8l-13.5 0z" fill="#b2b2ff" stroke="#b2b2ff"/>
<path d="M448 446.4l13.5 0l0 -28.8l-13.5 0l0 28.8" fill="none"/>
<path d="M502 446.4l4.5 0l0 -28.8l-4.5 0z" fill="#b2b2ff" stroke="#b2b2ff"/>
<path d="M502 446.4l4.5 0l0 -28.8l-4.5 0l0 28.8" fill="none"/>
<path d="M142 338.4l36 0l0 -28.8l-36 0z" fill="#b2b2ff" stroke="#b2b2ff"/>
<path d="M142 338.4l36 0l0 -28.8l-36 0l0 28.8" fill="none"/>
<path d="M209.5 338.4l13.5 0l0 -28.8l-13.5 0z" fill="#b2b2ff" stroke="#b2b2ff"/>
<path d="M209.5 338.4l13.5 0l0 -28.8l-13.5 0l0 28.8" fill="none"/>
<path d="M232 338.4l40.5 0l0 -28.8l-40.5 0z" fill="#b2b2ff" stroke="#b2b2ff"/>
<path d="M232 338.4l40.5 0l0 -28.8l-40.5 0l0 28.8" fill="none"/>
<path d="M277 338.4l0 0l0 -28.8l0 0z" fill="#b2b2ff" stroke="#b2b2ff"/>
<path d="M277 338.4l0 0l0 -28.8l0 0l0 28.8" fill="none"/>
<path d="M317.5 338.4l45 0l0 -28.8l-45 0z" fill="#b2b2ff" stroke="#b2b2ff"/>
<path d="M317.5 338.4l45 0l0 -28.8l-45 0l0 28.8" fill="none"/>
<path d="M371.5 338.4l0 0l0 -28.8l0 0z" fill="#b2b2ff" stroke="#b2b2ff"/>
<path d="M371.5 338.4l0 0l0 -28.8l0 0l0 28.8" fill="none"/>
<path d="M385 338.4l40.5 0l0 -28.8l-40.5 0z" fill="#b2b2ff" stroke="#b2b2ff"/>
<path d="M385 338.4l40.5 0l0 -28.8l-40.5 0l0 28.8" fill="none"/>
<path d="M461.5 338.4l40.5 0l0 -28.8l-40.5 0z" fill="#b2b2ff" stroke="#b2b2ff"/>
<path d="M461.5 338.4l40.5 0l0 -28.8l-40.5 0l0 28.8" fill="none"/>
<path d="M533.5 338.4l0 0l0 -28.8l0 0z" fill="#b2b2ff" stroke="#b2b2ff"/>
<path d="M533.5 338.4l0 0l0 -28.8l0 0l0 28.8" fill="none"/>
<path d="M574 338.4l22.5 0l0 -28.8l-22.5 0z" fill="#b2b2ff" stroke="#b2b2ff"/>
<path d="M574 338.4l22.5 0l0 -28.8l-22.5 0l0 28.8" fill="none"/>
<path d="M155.5 374.4l40.5 0l0 -28.8l-40.5 0z" fill="#b2b2ff" stroke="#b2b2ff"/>
<path d="M155.5 374.4l40.5 0l0 -28.8l-40.5 0l0 28.8" fill="none"/>
<path d="M205 374.4l40.5 0l0 -28.8l-40.5 0z" fill="#b2b2ff" stroke="#b2b2ff"/>
<path d="M205 374.4l40.5 0l0 -28.8l-40.5 0l0 28.8" fill="none"/>
<path d="M259 374.4l27 0l0 -28.8l-27 0z" fill="#b2b2ff" stroke="#b2b2ff"/>
<path d="M259 374.4l27 0l0 -28.8l-27 0l0 28.8" fill="none"/>
<path d="M299.5 374.4l36 0l0 -28.8l-36 0z" fill="#b2b2ff" stroke="#b2b2ff"/>
<path d="M299.5 374.4l36 0l0 -28.8l-36 0l0 28.8" fill="none"/>
<path d="M340 374.4l27 0l0 -28.8l-27 0z" fill="#b2b2ff" stroke="#b2b2ff"/>
<path d="M340 374.4l27 0l0 -28.8l-27 0l0 28.8" fill="none"/>
<path d="M380.5 374.4l18 0l0 -28.8l-18 0z" fill="#b2b2ff" stroke="#b2b2ff"/>
<path d="M380.5 374.4l18 0l0 -28.8l-18 0l0 28.8" fill="none"/>
<path d="M425.5 374.4l4.5 0l0 -28.8l-4.5 0z" fill="#b2b2ff" stroke="#b2b2ff"/>
<path d="M425.5 374.4l4.5 0l0 -28.8l-4.5 0l0 28.8" fill="none"/>
<path d="M475 374.4l18 0l0 -28.8l-18 0z" fill="#b2b2ff" stroke="#b2b2ff"/>
<path d="M475 374.4l18 0l0 -28.8l-18 0l0 28.8" fill="none"/>
<path d="M493 374.4l9 0l0 -28.8l-9 0z" fill="#b2b2ff" stroke="#b2b2ff"/>
<path d="M493 374.4l9 0l0 -28.8l-9 0l0 28.8" fill="none"/>
<path d="M520 374.4l18 0l0 -28.8l-18 0z" fill="#b2b2ff" stroke="#b2b2ff"/>
<path d="M520 374.4l18 0l0 -28.8l-18 0l0 28.8" fill="none"/>
<path d="M133 482.4l13.5 0l0 -28.8l-13.5 0z" fill="#b2b2ff" stroke="#b2b2ff"/>
<path d="M133 482.4l13.5 0l0 -28.8l-13.5 0l0 28.8" fill="none"/>
<path d="M187 482.4l9 0l0 -28.8l-9 0z" fill="#b2b2ff" stroke="#b2b2ff"/>
<path d="M187 482.4l9 0l0 -28.8l-9 0l0 28.8" fill="none"/>
<path d="M209.5 482.4l13.5 0l0 -28.8l-13.5 0z" fill="#b2b2ff" stroke="#b2b2ff"/>
<path d="M209.5 482.4l13.5 0l0 -28.8l-13.5 0l0 28.8" fill="none"/>
<path d="M250 482.4l0 0l0 -28.8l0 0z" fill="#b2b2ff" stroke="#b2b2ff"/>
<path d="M250 482.4l0 0l0 -28.8l0 0l0 28.8" fill="none"/>
<path d="M254.5 482.4l9 0l0 -28.8l-9 0z" fill="#b2b2ff" stroke="#b2b2ff"/>
<path d="M254.5 482.4l9 0l0 -28.8l-9 0l0 28.8" fill="none"/>
<path d="M268 482.4l0 0l0 -28.8l0 0z" fill="#b2b2ff" stroke="#b2b2ff"/>
<path d="M268 482.4l0 0l0 -28.8l0 0l0 28.8" fill="none"/>
<path d="M268 482.4l45 0l0 -28.8l-45 0z" fill="#b2b2ff" stroke="#b2b2ff"/>
<path d="M268 482.4l45 0l0 -28.8l-45 0l0 28.8" fill="none"/>
<path d="M353.5 482.4l31.5 0l0 -28.8l-31.5 0z" fill="#b2b2ff" stroke="#b2b2ff"/>
<path d="M353.5 482.4l31.5 0l0 -28.8l-31.5 0l0 28.8" fill="none"/>
<path d="M430 482.4l0 0l0 -28.8l0 0z" fill="#b2b2ff" stroke="#b2b2ff"/>
<path d="M430 482.4l0 0l0 -28.8l0 0l0 28.8" fill="none"/>
<path d="M466 482.4l36 0l0 -28.8l-36 0z" fill="#b2b2ff" stroke="#b2b2ff"/>
<path d="M466 482.4l36 0l0 -28.8l-36 0l0 28.8" fill="none"/>
<path d="M124 410.4l31.5 0l0 -28.8l-31.5 0z" fill="#b2b2ff" stroke="#b2b2ff"/>
<path d="M124 410.4l31.5 0l0 -28.8l-31.5 0l0 28.8" fill="none"/>
<path d="M182.5 410.4l22.5 0l0 -28.8l-22.5 0z" fill="#b2b2ff" stroke="#b2b2ff"/>
<path d="M182.5 410.4l22.5 0l0 -28.8l-22.5 0l0 28.8" fill="none"/>
<path d="M232 410.4l36 0l0 -28.8l-36 0z" fill="#b2b2ff" stroke="#b2b2ff"/>
<path d="M232 410.4l36 0l0 -28.8l-36 0l0 28.8" fill="none"/>
<path d="M277 410.4l18 0l0 -28.8l-18 0z" fill="#b2b2ff" stroke="#b2b2ff"/>
<path d="M277 410.4l18 0l0 -28.8l-18 0l0 28.8" fill="none"/>
<path d="M322 410.4l4.5 0l0 -28.8l-4.5 0z" fill="#b2b2ff" stroke="#b2b2ff"/>
<path d="M322 410.4l4.5 0l0 -28.8l-4.5 0l0 28.8" fill="none"/>
<path d="M344.5 410.4l27 0l0 -28.8l-27 0z" fill="#b2b2ff" stroke="#b2b2ff"/>
<path d="M344.5 410.4l27 0l0 -28.8l-27 0l0 28.8" fill="none"/>
<path d="M407.5 410.4l13.5 0l0 -28.8l-13.5 0z" fill="#b2b2ff" stroke="#b2b2ff"/>
<path d="M407.5 410.4l13.5 0l0 -28.8l-13.5 0l0 28.8" fill="none"/>
<path d="M448 410.4l31.5 0l0 -28.8l-31.5 0z" fill="#b2b2ff" stroke="#b2b2ff"/>
<path d="M448 410.4l31.5 0l0 -28.8l-31.5 0l0 28.8" fill="none"/>
<path d="M520 410.4l31.5 0l0 -28.8l-31.5 0z" fill="#b2b2ff" stroke="#b2b2ff"/>
<path d="M520 410.4l31.5 0l0 -28.8l-31.5 0l0 28.8" fill="none"/>
<path d="M551.5 410.4l40.5 0l0 -28.8l-40.5 0z" fill="#b2b2ff" stroke="#b2b2ff"/>
<path d="M551.5 410.4l40.5 0l0 -28.8l-40.5 0l0 28.8" fill="none"/>
<path d="M133 446.4l18 0l0 -28.8l-18 0z" fill="#b2b2ff" stroke="#b2b2ff"/>
<path d="M133 446.4l18 0l0 -28.8l-18 0l0 28.8" fill="none"/>
<path d="M178 446.4l9 0l0 -28.8l-9 0z" fill="#b2b2ff" stroke="#b2b2ff"/>
<path d="M178 446.4l9 0l0 -28.8l-9 0l0 28.8" fill="none"/>
<path d="M209.5 446.4l18 0l0 -28.8l-18 0z" fill="#b2b2ff" stroke="#b2b2ff"/>
<path d="M209.5 446.4l18 0l0 -28.8l-18 0l0 28.8" fill="none"/>
<path d="M232 446.4l13.5 0l0 -28.8l-13.5 0z" fill="#b2b2ff" stroke="#b2b2ff"/>
<path d="M232 446.4l13.5 0l0 -28.8l-13.5 0l0 28.8" fill="none"/>
<path d="M254.5 446.4l18 0l0 -28.8l-18 0z" fill="#b2b2ff" stroke="#b2b2ff"/>
<path d="M254.5 446.4l18 0l0 -28.8l-18 0l0 28.8" fill="none"/>
<path d="M281.5 446.4l22.5 0l0 -28.8l-22.5 0z" fill="#b2b2ff" stroke="#b2b2ff"/>
<path d="M281.5 446.4l22.5 0l0 -28.8l-22.5 0l0 28.8" fill="none"/>
<path d="M331 446.4l13.5 0l0 -28.8l-13.5 0z" fill="#b2b2ff" stroke="#b2b2ff"/>
<path d="M331 446.4l13.5 0l0 -28.8l-13.5 0l0 28.8" fill="none"/>
<path d="M385 446.4l0 0l0 -28.8l0 0z" fill="#b2b2ff" stroke="#b2b2ff"/>
<path d="M385 446.4l0 0l0 -28.8l0 0l0 28.8" fill="none"/>
<path d="M403 446.4l22.5 0l0 -28.8l-22.5 0z" fill="#b2b2ff" stroke="#b2b2ff"/>
<path d="M403 446.4l22.5 0l0 -28.8l-22.5 0l0 28.8" fill="none"/>
<path d="M448 446.4l40.5 0l0 -28.8l-40.5 0z" fill="#b2b2ff" stroke="#b2b2ff"/>
<path d="M448 446.4l40.5 0l0 -28.8l-40.5 0l0 28.8" fill="none"/>
<path d="M142 338.4l0 0l0 -28.8l0 0z" fill="#b2b2ff" stroke="#b2b2ff"/>
<path d="M142 338.4l0 0l0 -28.8l0 0l0 28.8" fill="none"/>
<path d="M151 338.4l22.5 0l0 -28.8l-22.5 0z" fill="#b2b2ff" stroke="#b2b2ff"/>
<path d="M151 338.4l22.5 0l0 -28.8l-22.5 0l0 28.8" fill="none"/>
<path d="M182.5 338.4l9 0l0 -28.8l-9 0z" fill="#b2b2ff" stroke="#b2b2ff"/>
<path d="M182.5 338.4l9 0l0 -28.8l-9 0l0 28.8" fill="none"/>
<path d="M191.5 338.4l22.5 0l0 -28.8l-22.5 0z" fill="#b2b2ff" stroke="#b2b2ff"/>
<path d="M191.5 338.4l22.5 0l0 -28.8l-22.5 0l0 28.8" fill="none"/>
<path d="M227.5 338.4l0 0l0 -28.8l0 0z" fill="#b2b2ff" stroke="#b2b2ff"/>
<path d="M227.5 338.4l0 0l0 -28.8l0 0l0 28.8" fill="none"/>
<path d="M236.5 338.4l13.5 0l0 -28.8l-13.5 0z" fill="#b2b2ff" stroke="#b2b2ff"/>
<path d="M236.5 338.4l13.5 0l0 -28.8l-13.5 0l0 28.8" fill="none"/>
<path d="M295 338.4l9 0l0 -28.8l-9 0z" fill="#b2b2ff" stroke="#b2b2ff"/>
<path d="M295 338.4l9 0l0 -28.8l-9 0l0 28.8" fill="none"/>
<path d="M308.5 338.4l13.5 0l0 -28.8l-13.5 0z" fill="#b2b2ff" stroke="#b2b2ff"/>
<path d="M308.5 338.4l13.5 0l0 -28.8l-13.5 0l0 28.8" fill="none"/>
<path d="M344.5 338.4l0 0l0 -28.8l0 0z" fill="#b2b2ff" stroke="#b2b2ff"/>
<path d="M344.5 338.4l0 0l0 -28.8l0 0l0 28.8" fill="none"/>
<path d="M362.5 338.4l0 0l0 -28.8l0 0z" fill="#b2b2ff" stroke="#b2b2ff"/>
<path d="M362.5 338.4l0 0l0 -28.8l0 0l0 28.8" fill="none"/>
<path d="M119.5 374.4l13.5 0l0 -28.8l-13.5 0z" fill="#b2b2ff" stroke="#b2b2ff"/>
<path d="M119.5 374.4l13.5 0l0 -28.8l-13.5 0l0 28.8" fill="none"/>
<path d="M155.5 374.4l18 0l0 -28.8l-18 0z" fill="#b2b2ff" stroke="#b2b2ff"/>
<path d="M155.5 374.4l18 0l0 -28.8l-18 0l0 28.8" fill="none"/>
<path d="M209.5 374.4l9 0l0 -28.8l-9 0z" fill="#b2b2ff" stroke="#b2b2ff"/>
<path d="M209.5 374.4l9 0l0 -28.8l-9 0l0 28.8" fill="none"/>
<path d="M218.5 374.4l9 0l0 -28.8l-9 0z" fill="#b2b2ff" stroke="#b2b2ff"/>
<path d="M218.5 374.4l9 0l0 -28.8l-9 0l0 28.8" fill="none"/>
<path d="M268 374.4l40.5 0l0 -28.8l-40.5 0z" fill="#b2b2ff" stroke="#b2b2ff"/>
<path d="M268 374.4l40.5 0l0 -28.8l-40.5 0l0 28.8" fill="none"/>
<path d="M349 374.4l4.5 0l0 -28.8l-4.5 0z" fill="#b2b2ff" stroke="#b2b2ff"/>
<path d="M349 374.4l4.5 0l0 -28.8l-4.5 0l0 28.8" fill="none"/>
<path d="M389.5 374.4l45 0l0 -28.8l-45 0z" fill="#b2b2ff" stroke="#b2b2ff"/>
<path d="M389.5 374.4l45 0l0 -28.8l-45 0l0 28.8" fill="none"/>
<path d="M443.5 374.4l31.5 0l0 -28.8l-31.5 0z" fill="#b2b2ff" stroke="#b2b2ff"/>
<path d="M443.5 374.4l31.5 0l0 -28.8l-31.5 0l0 28.8" fill="none"/>
<path d="M488.5 374.4l40.5 0l0 -28.8l-40.5 0z" fill="#b2b2ff" stroke="#b2b2ff"/>
<path d="M488.5 374.4l40.5 0l0 -28.8l-40.5 0l0 28.8" fill="none"/>
<path d="M542.5 374.4l31.5 0l0 -28.8l-31.5 0z" fill="#b2b2ff" stroke="#b2b2ff"/>
<path d="M542.5 374.4l31.5 0l0 -28.8l-31.5 0l0 28.8" fill="none"/>
</g><g style="&sw;0.5;&fs;6pt;&am;">
<text x="152.11" y="471.20" stroke="none">exp-0-0</text>
<text x="188.12" y="471.20" stroke="none">exp-0-1</text>
<text x="239.87" y="471.20" stroke="none">exp-0-2</text>
<text x="255.62" y="471.20" stroke="none">exp-0-3</text>
<text x="284.87" y="471.20" stroke="none">exp-0-4</text>
<text x="329.87" y="471.20" stroke="none">exp-0-5</text>
<text x="347.87" y="471.20" stroke="none">exp-0-6</text>
<text x="368.11" y="471.20" stroke="none">exp-0-7</text>
<text x="399.62" y="471.20" stroke="none">exp-0-8</text>
<text x="433.37" y="471.20" stroke="none">exp-0-9</text>
<text x="172.37" y="399.20" stroke="none">exp-1-0</text>
<text x="219.62" y="399.20" stroke="none">exp-1-1</text>
<text x="273.61" y="399.20" stroke="none">exp-1-2</text>
<text x="309.62" y="399.20" stroke="none">exp-1-3</text>
<text x="350.11" y="399.20" stroke="none">exp-1-4</text>
<text x="372.62" y="399.20" stroke="none">exp-1-5</text>
<text x="431.12" y="399.20" stroke="none">exp-1-6</text>
<text x="514.37" y="399.20" stroke="none">exp-1-7</text>
<text x="590.86" y="399.20" stroke="none">exp-1-8</text>
<text x="617.86" y="399.20" stroke="none">exp-1-9</text>
<text x="154.37" y="435.20" stroke="none">exp-2-0</text>
<text x="192.62" y="435.20" stroke="none">exp-2-1</text>
<text x="212.86" y="435.20" stroke="none">exp-2-2</text>
<text x="248.87" y="435.20" stroke="none">exp-2-3</text>
<text x="298.37" y="435.20" stroke="none">exp-2-4</text>
<text x="334.36" y="435.20" stroke="none">exp-2-5</text>
<text x="359.12" y="435.20" stroke="none">exp-2-6</text>
<text x="406.37" y="435.20" stroke="none">exp-2-7</text>
<text x="473.87" y="435.20" stroke="none">exp-2-8</text>
<text x="516.61" y="435.20" stroke="none">exp-2-9</text>
<text x="163.37" y="327.20" stroke="none">exp-3-0</text>
<text x="210.62" y="327.20" stroke="none">exp-3-1</text>
<text x="233.11" y="327.20" stroke="none">exp-3-2</text>
<text x="251.12" y="327.20" stroke="none">exp-3-3</text>
<text x="293.86" y="327.20" stroke="none">exp-3-4</text>
<text x="327.61" y="327.20" stroke="none">exp-3-5</text>
<text x="363.61" y="327.20" stroke="none">exp-3-6</text>
<text x="379.37" y="327.20" stroke="none">exp-3-7</text>
<text x="433.37" y="327.20" stroke="none">exp-3-8</text>
<text x="482.86" y="327.20" stroke="none">exp-3-9</text>
<text x="145.37" y="363.20" stroke="none">exp-4-0</text>
<text x="192.61" y="363.20" stroke="none">exp-4-1</text>
<text x="255.62" y="363.20" stroke="none">exp-4-2</text>
<text x="287.11" y="363.20" stroke="none">exp-4-3</text>
<text x="325.37" y="363.20" stroke="none">exp-4-4</text>
<text x="377.12" y="363.20" stroke="none">exp-4-5</text>
<text x="428.87" y="363.20" stroke="none">exp-4-6</text>
<text x="455.86" y="363.20" stroke="none">exp-4-7</text>
<text x="491.86" y="363.20" stroke="none">exp-4-8</text>
<text x="552.61" y="363.20" stroke="none">exp-4-9</text>
<text x="170.34" y="471.20" stroke="none">exp-0-0</text>
<text x="213.09" y="471.20" stroke="none">exp-0-1</text>
<text x="244.59" y="471.20" stroke="none">exp-0-2</text>
<text x="291.84" y="471.20" stroke="none">exp-0-3</text>
<text x="348.09" y="471.20" stroke="none">exp-0-4</text>
<text x="413.34" y="471.20" stroke="none">exp-0-5</text>
<text x="456.09" y="471.20" stroke="none">exp-0-6</text>
<text x="489.84" y="471.20" stroke="none">exp-0-7</text>
<text x="528.09" y="471.20" stroke="none">exp-0-8</text>
<text x="559.59" y="471.20" stroke="none">exp-0-9</text>
<text x="159.09" y="399.20" stroke="none">exp-1-0</text>
<text x="219.84" y="399.20" stroke="none">exp-1-1</text>
<text x="273.84" y="399.20" stroke="none">exp-1-2</text>
<text x="314.34" y="399.20" stroke="none">exp-1-3</text>
<text x="345.84" y="399.20" stroke="none">exp-1-4</text>
<text x="352.59" y="399.20" stroke="none">exp-1-5</text>
<text x="402.09" y="399.20" stroke="none">exp-1-6</text>
<text x="449.34" y="399.20" stroke="none">exp-1-7</text>
<text x="496.59" y="399.20" stroke="none">exp-1-8</text>
<text x="557.34" y="399.20" stroke="none">exp-1-9</text>
<text x="181.59" y="435.20" stroke="none">exp-2-0</text>
<text x="235.59" y="435.20" stroke="none">exp-2-1</text>
<text x="296.34" y="435.20" stroke="none">exp-2-2</text>
<text x="354.84" y="435.20" stroke="none">exp-2-3</text>
<text x="379.59" y="435.20" stroke="none">exp-2-4</text>
<text x="426.84" y="435.20" stroke="none">exp-2-5</text>
<text x="465.09" y="435.20" stroke="none">exp-2-6</text>
<text x="543.84" y="435.20" stroke="none">exp-2-7</text>
<text x="629.34" y="435.20" stroke="none">exp-2-8</text>
<text x="685.59" y="435.20" stroke="none">exp-2-9</text>
<text x="174.84" y="327.20" stroke="none">exp-3-0</text>
<text x="228.84" y="327.20" stroke="none">exp-3-1</text>
<text x="271.59" y="327.20" stroke="none">exp-3-2</text>
<text x="321.09" y="327.20" stroke="none">exp-3-3</text>
<text x="377.34" y="327.20" stroke="none">exp-3-4</text>
<text x="442.59" y="327.20" stroke="none">exp-3-5</text>
<text x="474.09" y="327.20" stroke="none">exp-3-6</text>
<text x="501.09" y="327.20" stroke="none">exp-3-7</text>
<text x="555.09" y="327.20" stroke="none">exp-3-8</text>
<text x="595.59" y="327.20" stroke="none">exp-3-9</text>
<text x="145.59" y="363.20" stroke="none">exp-4-0</text>
<text x="195.09" y="363.20" stroke="none">exp-4-1</text>
<text x="233.34" y="363.20" stroke="none">exp-4-2</text>
<text x="278.34" y="363.20" stroke="none">exp-4-3</text>
<text x="327.84" y="363.20" stroke="none">exp-4-4</text>
<text x="348.09" y="363.20" stroke="none">exp-4-5</text>
<text x="368.34" y="363.20" stroke="none">exp-4-6</text>
<text x="413.34" y="363.20" stroke="none">exp-4-7</text>
<text x="476.34" y="363.20" stroke="none">exp-4-8</text>
<text x="523.59" y="363.20" stroke="none">exp-4-9</text>
<text x="141.16" y="471.20" stroke="none">exp-0-0</text>
<text x="224.42" y="471.20" stroke="none">exp-0-1</text>
<text x="282.92" y="471.20" stroke="none">exp-0-2</text>
<text x="332.42" y="471.20" stroke="none">exp-0-3</text>
<text x="408.91" y="471.20" stroke="none">exp-0-4</text>
<text x="453.92" y="471.20" stroke="none">exp-0-5</text>
<text x="514.67" y="471.20" stroke="none">exp-0-6</text>
<text x="561.92" y="471.20" stroke="none">exp-0-7</text>
<text x="570.91" y="471.20" stroke="none">exp-0-8</text>
<text x="624.91" y="471.20" stroke="none">exp-0-9</text>
<text x="129.92" y="399.20" stroke="none">exp-1-0</text>
<text x="147.92" y="399.20" stroke="none">exp-1-1</text>
<text x="168.16" y="399.20" stroke="none">exp-1-2</text>
<text x="201.92" y="399.20" stroke="none">exp-1-3</text>
<text x="276.16" y="399.20" stroke="none">exp-1-4</text>
<text x="345.92" y="399.20" stroke="none">exp-1-5</text>
<text x="359.42" y="399.20" stroke="none">exp-1-6</text>
<text x="393.17" y="399.20" stroke="none">exp-1-7</text>
<text x="440.42" y="399.20" stroke="none">exp-1-8</text>
<text x="492.17" y="399.20" stroke="none">exp-1-9</text>
<text x="159.16" y="435.20" stroke="none">exp-2-0</text>
<text x="208.66" y="435.20" stroke="none">exp-2-1</text>
<text x="240.16" y="435.20" stroke="none">exp-2-2</text>
<text x="244.67" y="435.20" stroke="none">exp-2-3</text>
<text x="260.41" y="435.20" stroke="none">exp-2-4</text>
<text x="303.16" y="435.20" stroke="none">exp-2-5</text>
<text x="379.67" y="435.20" stroke="none">exp-2-6</text>
<text x="402.16" y="435.20" stroke="none">exp-2-7</text>
<text x="456.17" y="435.20" stroke="none">exp-2-8</text>
<text x="505.67" y="435.20" stroke="none">exp-2-9</text>
<text x="161.42" y="327.20" stroke="none">exp-3-0</text>
<text x="217.67" y="327.20" stroke="none">exp-3-1</text>
<text x="253.67" y="327.20" stroke="none">exp-3-2</text>
<text x="278.42" y="327.20" stroke="none">exp-3-3</text>
<text x="341.41" y="327.20" stroke="none">exp-3-4</text>
<text x="372.92" y="327.20" stroke="none">exp-3-5</text>
<text x="406.67" y="327.20" stroke="none">exp-3-6</text>
<text x="483.17" y="327.20" stroke="none">exp-3-7</text>
<text x="534.92" y="327.20" stroke="none">exp-3-8</text>
<text x="586.67" y="327.20" stroke="none">exp-3-9</text>
<text x="177.17" y="363.20" stroke="none">exp-4-0</text>
<text x="226.67" y="363.20" stroke="none">exp-4-1</text>
<text x="273.92" y="363.20" stroke="none">exp-4-2</text>
<text x="318.92" y="363.20" stroke="none">exp-4-3</text>
<text x="354.92" y="363.20" stroke="none">exp-4-4</text>
<text x="390.92" y="363.20" stroke="none">exp-4-5</text>
<text x="429.16" y="363.20" stroke="none">exp-4-6</text>
<text x="485.42" y="363.20" stroke="none">exp-4-7</text>
<text x="498.92" y="363.20" stroke="none">exp-4-8</text>
<text x="530.41" y="363.20" stroke="none">exp-4-9</text>
<text x="141.16" y="471.20" stroke="none">exp-0-0</text>
<text x="192.91" y="471.20" stroke="none">exp-0-1</text>
<text x="217.67" y="471.20" stroke="none">exp-0-2</text>
<text x="251.42" y="471.20" stroke="none">exp-0-3</text>
<text x="260.41" y="471.20" stroke="none">exp-0-4</text>
<text x="269.41" y="471.20" stroke="none">exp-0-5</text>
<text x="291.92" y="471.20" stroke="none">exp-0-6</text>
<text x="370.67" y="471.20" stroke="none">exp-0-7</text>
<text x="431.41" y="471.20" stroke="none">exp-0-8</text>
<text x="485.42" y="471.20" stroke="none">exp-0-9</text>
<text x="141.17" y="399.20" stroke="none">exp-1-0</text>
<text x="195.17" y="399.20" stroke="none">exp-1-1</text>
<text x="251.42" y="399.20" stroke="none">exp-1-2</text>
<text x="287.41" y="399.20" stroke="none">exp-1-3</text>
<text x="325.67" y="399.20" stroke="none">exp-1-4</text>
<text x="359.42" y="399.20" stroke="none">exp-1-5</text>
<text x="415.67" y="399.20" stroke="none">exp-1-6</text>
<text x="465.17" y="399.20" stroke="none">exp-1-7</text>
<text x="537.16" y="399.20" stroke="none">exp-1-8</text>
<text x="573.16" y="399.20" stroke="none">exp-1-9</text>
<text x="143.42" y="435.20" stroke="none">exp-2-0</text>
<text x="183.92" y="435.20" stroke="none">exp-2-1</text>
<text x="219.91" y="435.20" stroke="none">exp-2-2</text>
<text x="240.17" y="435.20" stroke="none">exp-2-3</text>
<text x="264.92" y="435.20" stroke="none">exp-2-4</text>
<text x="294.16" y="435.20" stroke="none">exp-2-5</text>
<text x="339.17" y="435.20" stroke="none">exp-2-6</text>
<text x="386.42" y="435.20" stroke="none">exp-2-7</text>
<text x="415.66" y="435.20" stroke="none">exp-2-8</text>
<text x="469.67" y="435.20" stroke="none">exp-2-9</text>
<text x="143.42" y="327.20" stroke="none">exp-3-0</text>
<text x="163.67" y="327.20" stroke="none">exp-3-1</text>
<text x="188.42" y="327.20" stroke="none">exp-3-2</text>
<text x="204.17" y="327.20" stroke="none">exp-3-3</text>
<text x="228.91" y="327.20" stroke="none">exp-3-4</text>
<text x="244.67" y="327.20" stroke="none">exp-3-5</text>
<text x="300.91" y="327.20" stroke="none">exp-3-6</text>
<text x="316.66" y="327.20" stroke="none">exp-3-7</text>
<text x="345.92" y="327.20" stroke="none">exp-3-8</text>
<text x="363.91" y="327.20" stroke="none">exp-3-9</text>
<text x="127.66" y="363.20" stroke="none">exp-4-0</text>
<text x="165.91" y="363.20" stroke="none">exp-4-1</text>
<text x="215.42" y="363.20" stroke="none">exp-4-2</text>
<text x="224.42" y="363.20" stroke="none">exp-4-3</text>
<text x="289.66" y="363.20" stroke="none">exp-4-4</text>
<text x="352.67" y="363.20" stroke="none">exp-4-5</text>
<text x="413.42" y="363.20" stroke="none">exp-4-6</text>
<text x="460.67" y="363.20" stroke="none">exp-4-7</text>
<text x="510.17" y="363.20" stroke="none">exp-4-8</text>
<text x="559.67" y="363.20" stroke="none">exp-4-9</text>
</g></g>
</g>
</svg>
