<?xml version="1.0" encoding="iso-8859-1" standalone="no"?>
<!DOCTYPE svg PUBLIC "-//W3C//DTD SVG 20010904//EN" 
  "http://www.w3.org/TR/2001/REC-SVG-20010904/DTD/svg10.dtd" [ 
<!ENTITY ff "font-family:">
<!ENTITY fs "font-size:">
<!ENTITY fw "font-weight:">
<!ENTITY fst "font-style:">
<!ENTITY sw "stroke-width:">
<!ENTITY as "text-anchor:start;">
<!ENTITY am "text-anchor:middle;">
<!ENTITY ae "text-anchor:end;">
]>
<!-- Generated by ploticus (http://ploticus.sourceforge.net/)
Title: ploticus-graphic
SVG Driver by B.Traill
-->
<svg xmlns="http://www.w3.org/2000/svg" 
  viewBox="0 0 710.80 283.28"      
  xmlns:xlink="http://www.w3.org/1999/xlink"
>
<g transform="translate(-31.20,-260.16)" >                                                       

<g style="fill:#000000;stroke:#000000;&ff;Helvetica;">
<g style="&sw;0.6;&fs;10pt;&as;">
<text x="72.00" y="286.56" stroke="none">Cloudmesh Reservation</text>
</g><g style="&sw;0.6;&fs;8pt;&am;">
<text x="72.00" y="519.04" stroke="none">20</text>
<text x="72.00" y="529.04" stroke="none">Jun14</text>
</g><g style="&sw;0.5;&fs;8pt;&am;">
<path d="M72 509l0 -5.04" fill="none"/>
<text x="180.00" y="519.04" stroke="none">21</text>
<path d="M180 509l0 -5.04" fill="none"/>
<text x="288.00" y="519.04" stroke="none">22</text>
<path d="M288 509l0 -5.04" fill="none"/>
<text x="396.00" y="519.04" stroke="none">23</text>
<path d="M396 509l0 -5.04" fill="none"/>
<text x="504.00" y="519.04" stroke="none">24</text>
<path d="M504 509l0 -5.04" fill="none"/>
<text x="612.00" y="519.04" stroke="none">25</text>
<path d="M612 509l0 -5.04" fill="none"/>
<text x="720.00" y="519.04" stroke="none">26</text>
<path d="M720 509l0 -5.04" fill="none"/>
<path d="M72 504l648 0" fill="none"/>
</g><g style="&sw;0.5;&fs;8pt;&ae;">
<text x="61.20" y="327.00" stroke="none">m04</text>
<path d="M66.96 324l5.04 0" fill="none"/>
<text x="61.20" y="363.00" stroke="none">m05</text>
<path d="M66.96 360l5.04 0" fill="none"/>
<text x="61.20" y="399.00" stroke="none">m02</text>
<path d="M66.96 396l5.04 0" fill="none"/>
<text x="61.20" y="435.00" stroke="none">m03</text>
<path d="M66.96 432l5.04 0" fill="none"/>
<text x="61.20" y="471.00" stroke="none">m01</text>
<path d="M66.96 468l5.04 0" fill="none"/>
<path d="M72 504l0 -216" fill="none"/>
<path d="M641.2 410.4l36 0l0 -28.8l-36 0z" fill="#b2b2ff" stroke="#b2b2ff"/>
<path d="M641.2 410.4l36 0l0 -28.8l-36 0l0 28.8" fill="none"/>
<path d="M137.2 446.4l22.5 0l0 -28.8l-22.5 0z" fill="#b2b2ff" stroke="#b2b2ff"/>
<path d="M137.2 446.4l22.5 0l0 -28.8l-22.5 0l0 28.8" fill="none"/>
<path d="M173.2 446.4l36 0l0 -28.8l-36 0z" fill="#b2b2ff" stroke="#b2b2ff"/>
<path d="M173.2 446.4l36 0l0 -28.8l-36 0l0 28.8" fill="none"/>
<path d="M249.7 446.4l13.5 0l0 -28.8l-13.5 0z" fill="#b2b2ff" stroke="#b2b2ff"/>
<path d="M249.7 446.4l13.5 0l0 -28.8l-13.5 0l0 28.8" fill="none"/>
<path d="M272.2 446.4l9 0l0 -28.8l-9 0z" fill="#b2b2ff" stroke="#b2b2ff"/>
<path d="M272.2 446.4l9 0l0 -28.8l-9 0l0 28.8" fill="none"/>
<path d="M281.2 446.4l31.5 0l0 -28.8l-31.5 0z" fill="#b2b2ff" stroke="#b2b2ff"/>
<path d="M281.2 446.4l31.5 0l0 -28.8l-31.5 0l0 28.8" fill="none"/>
<path d="M335.2 446.4l22.5 0l0 -28.8l-22.5 0z" fill="#b2b2ff" stroke="#b2b2ff"/>
<path d="M335.2 446.4l22.5 0l0 -28.8l-22.5 0l0 28.8" fill="none"/>
<path d="M375.7 446.4l0 0l0 -28.8l0 0z" fill="#b2b2ff" stroke="#b2b2ff"/>
<path d="M375.7 446.4l0 0l0 -28.8l0 0l0 28.8" fill="none"/>
<path d="M389.2 446.4l27 0l0 -28.8l-27 0z" fill="#b2b2ff" stroke="#b2b2ff"/>
<path d="M389.2 446.4l27 0l0 -28.8l-27 0l0 28.8" fill="none"/>
<path d="M443.2 446.4l9 0l0 -28.8l-9 0z" fill="#b2b2ff" stroke="#b2b2ff"/>
<path d="M443.2 446.4l9 0l0 -28.8l-9 0l0 28.8" fill="none"/>
<path d="M488.2 446.4l9 0l0 -28.8l-9 0z" fill="#b2b2ff" stroke="#b2b2ff"/>
<path d="M488.2 446.4l9 0l0 -28.8l-9 0l0 28.8" fill="none"/>
<path d="M141.7 338.4l13.5 0l0 -28.8l-13.5 0z" fill="#b2b2ff" stroke="#b2b2ff"/>
<path d="M141.7 338.4l13.5 0l0 -28.8l-13.5 0l0 28.8" fill="none"/>
<path d="M155.2 338.4l45 0l0 -28.8l-45 0z" fill="#b2b2ff" stroke="#b2b2ff"/>
<path d="M155.2 338.4l45 0l0 -28.8l-45 0l0 28.8" fill="none"/>
<path d="M213.7 338.4l18 0l0 -28.8l-18 0z" fill="#b2b2ff" stroke="#b2b2ff"/>
<path d="M213.7 338.4l18 0l0 -28.8l-18 0l0 28.8" fill="none"/>
<path d="M272.2 338.4l22.5 0l0 -28.8l-22.5 0z" fill="#b2b2ff" stroke="#b2b2ff"/>
<path d="M272.2 338.4l22.5 0l0 -28.8l-22.5 0l0 28.8" fill="none"/>
<path d="M339.7 338.4l45 0l0 -28.8l-45 0z" fill="#b2b2ff" stroke="#b2b2ff"/>
<path d="M339.7 338.4l45 0l0 -28.8l-45 0l0 28.8" fill="none"/>
<path d="M398.2 338.4l36 0l0 -28.8l-36 0z" fill="#b2b2ff" stroke="#b2b2ff"/>
<path d="M398.2 338.4l36 0l0 -28.8l-36 0l0 28.8" fill="none"/>
<path d="M461.2 338.4l22.5 0l0 -28.8l-22.5 0z" fill="#b2b2ff" stroke="#b2b2ff"/>
<path d="M461.2 338.4l22.5 0l0 -28.8l-22.5 0l0 28.8" fill="none"/>
<path d="M501.7 338.4l45 0l0 -28.8l-45 0z" fill="#b2b2ff" stroke="#b2b2ff"/>
<path d="M501.7 338.4l45 0l0 -28.8l-45 0l0 28.8" fill="none"/>
<path d="M573.7 338.4l45 0l0 -28.8l-45 0z" fill="#b2b2ff" stroke="#b2b2ff"/>
<path d="M573.7 338.4l45 0l0 -28.8l-45 0l0 28.8" fill="none"/>
<path d="M663.7 338.4l18 0l0 -28.8l-18 0z" fill="#b2b2ff" stroke="#b2b2ff"/>
<path d="M663.7 338.4l18 0l0 -28.8l-18 0l0 28.8" fill="none"/>
<path d="M123.7 374.4l13.5 0l0 -28.8l-13.5 0z" fill="#b2b2ff" stroke="#b2b2ff"/>
<path d="M123.7 374.4l13.5 0l0 -28.8l-13.5 0l0 28.8" fill="none"/>
<path d="M177.7 374.4l27 0l0 -28.8l-27 0z" fill="#b2b2ff" stroke="#b2b2ff"/>
<path d="M177.7 374.4l27 0l0 -28.8l-27 0l0 28.8" fill="none"/>
<path d="M213.7 374.4l27 0l0 -28.8l-27 0z" fill="#b2b2ff" stroke="#b2b2ff"/>
<path d="M213.7 374.4l27 0l0 -28.8l-27 0l0 28.8" fill="none"/>
<path d="M281.2 374.4l18 0l0 -28.8l-18 0z" fill="#b2b2ff" stroke="#b2b2ff"/>
<path d="M281.2 374.4l18 0l0 -28.8l-18 0l0 28.8" fill="none"/>
<path d="M339.7 374.4l4.5 0l0 -28.8l-4.5 0z" fill="#b2b2ff" stroke="#b2b2ff"/>
<path d="M339.7 374.4l4.5 0l0 -28.8l-4.5 0l0 28.8" fill="none"/>
<path d="M389.2 374.4l22.5 0l0 -28.8l-22.5 0z" fill="#b2b2ff" stroke="#b2b2ff"/>
<path d="M389.2 374.4l22.5 0l0 -28.8l-22.5 0l0 28.8" fill="none"/>
<path d="M443.2 374.4l22.5 0l0 -28.8l-22.5 0z" fill="#b2b2ff" stroke="#b2b2ff"/>
<path d="M443.2 374.4l22.5 0l0 -28.8l-22.5 0l0 28.8" fill="none"/>
<path d="M497.2 374.4l18 0l0 -28.8l-18 0z" fill="#b2b2ff" stroke="#b2b2ff"/>
<path d="M497.2 374.4l18 0l0 -28.8l-18 0l0 28.8" fill="none"/>
<path d="M560.2 374.4l36 0l0 -28.8l-36 0z" fill="#b2b2ff" stroke="#b2b2ff"/>
<path d="M560.2 374.4l36 0l0 -28.8l-36 0l0 28.8" fill="none"/>
<path d="M636.7 374.4l36 0l0 -28.8l-36 0z" fill="#b2b2ff" stroke="#b2b2ff"/>
<path d="M636.7 374.4l36 0l0 -28.8l-36 0l0 28.8" fill="none"/>
<path d="M141.7 482.4l4.5 0l0 -28.8l-4.5 0z" fill="#b2b2ff" stroke="#b2b2ff"/>
<path d="M141.7 482.4l4.5 0l0 -28.8l-4.5 0l0 28.8" fill="none"/>
<path d="M164.2 482.4l31.5 0l0 -28.8l-31.5 0z" fill="#b2b2ff" stroke="#b2b2ff"/>
<path d="M164.2 482.4l31.5 0l0 -28.8l-31.5 0l0 28.8" fill="none"/>
<path d="M222.7 482.4l0 0l0 -28.8l0 0z" fill="#b2b2ff" stroke="#b2b2ff"/>
<path d="M222.7 482.4l0 0l0 -28.8l0 0l0 28.8" fill="none"/>
<path d="M254.2 482.4l18 0l0 -28.8l-18 0z" fill="#b2b2ff" stroke="#b2b2ff"/>
<path d="M254.2 482.4l18 0l0 -28.8l-18 0l0 28.8" fill="none"/>
<path d="M312.7 482.4l36 0l0 -28.8l-36 0z" fill="#b2b2ff" stroke="#b2b2ff"/>
<path d="M312.7 482.4l36 0l0 -28.8l-36 0l0 28.8" fill="none"/>
<path d="M357.7 482.4l27 0l0 -28.8l-27 0z" fill="#b2b2ff" stroke="#b2b2ff"/>
<path d="M357.7 482.4l27 0l0 -28.8l-27 0l0 28.8" fill="none"/>
<path d="M389.2 482.4l40.5 0l0 -28.8l-40.5 0z" fill="#b2b2ff" stroke="#b2b2ff"/>
<path d="M389.2 482.4l40.5 0l0 -28.8l-40.5 0l0 28.8" fill="none"/>
<path d="M429.7 482.4l45 0l0 -28.8l-45 0z" fill="#b2b2ff" stroke="#b2b2ff"/>
<path d="M429.7 482.4l45 0l0 -28.8l-45 0l0 28.8" fill="none"/>
<path d="M510.7 482.4l45 0l0 -28.8l-45 0z" fill="#b2b2ff" stroke="#b2b2ff"/>
<path d="M510.7 482.4l45 0l0 -28.8l-45 0l0 28.8" fill="none"/>
<path d="M560.2 482.4l13.5 0l0 -28.8l-13.5 0z" fill="#b2b2ff" stroke="#b2b2ff"/>
<path d="M560.2 482.4l13.5 0l0 -28.8l-13.5 0l0 28.8" fill="none"/>
<path d="M128.2 410.4l40.5 0l0 -28.8l-40.5 0z" fill="#b2b2ff" stroke="#b2b2ff"/>
<path d="M128.2 410.4l40.5 0l0 -28.8l-40.5 0l0 28.8" fill="none"/>
<path d="M177.7 410.4l45 0l0 -28.8l-45 0z" fill="#b2b2ff" stroke="#b2b2ff"/>
<path d="M177.7 410.4l45 0l0 -28.8l-45 0l0 28.8" fill="none"/>
<path d="M267.7 410.4l9 0l0 -28.8l-9 0z" fill="#b2b2ff" stroke="#b2b2ff"/>
<path d="M267.7 410.4l9 0l0 -28.8l-9 0l0 28.8" fill="none"/>
<path d="M308.2 410.4l31.5 0l0 -28.8l-31.5 0z" fill="#b2b2ff" stroke="#b2b2ff"/>
<path d="M308.2 410.4l31.5 0l0 -28.8l-31.5 0l0 28.8" fill="none"/>
<path d="M375.7 410.4l9 0l0 -28.8l-9 0z" fill="#b2b2ff" stroke="#b2b2ff"/>
<path d="M375.7 410.4l9 0l0 -28.8l-9 0l0 28.8" fill="none"/>
<path d="M425.2 410.4l45 0l0 -28.8l-45 0z" fill="#b2b2ff" stroke="#b2b2ff"/>
<path d="M425.2 410.4l45 0l0 -28.8l-45 0l0 28.8" fill="none"/>
<path d="M492.7 410.4l9 0l0 -28.8l-9 0z" fill="#b2b2ff" stroke="#b2b2ff"/>
<path d="M492.7 410.4l9 0l0 -28.8l-9 0l0 28.8" fill="none"/>
<path d="M542.2 410.4l13.5 0l0 -28.8l-13.5 0z" fill="#b2b2ff" stroke="#b2b2ff"/>
<path d="M542.2 410.4l13.5 0l0 -28.8l-13.5 0l0 28.8" fill="none"/>
<path d="M578.2 410.4l18 0l0 -28.8l-18 0z" fill="#b2b2ff" stroke="#b2b2ff"/>
<path d="M578.2 410.4l18 0l0 -28.8l-18 0l0 28.8" fill="none"/>
</g><g style="&sw;0.5;&fs;6pt;&am;">
<text x="660.62" y="399.20" stroke="none">exp-1-9</text>
<text x="149.87" y="435.20" stroke="none">exp-2-0</text>
<text x="192.61" y="435.20" stroke="none">exp-2-1</text>
<text x="257.87" y="435.20" stroke="none">exp-2-2</text>
<text x="278.12" y="435.20" stroke="none">exp-2-3</text>
<text x="298.37" y="435.20" stroke="none">exp-2-4</text>
<text x="347.86" y="435.20" stroke="none">exp-2-5</text>
<text x="377.11" y="435.20" stroke="none">exp-2-6</text>
<text x="404.11" y="435.20" stroke="none">exp-2-7</text>
<text x="449.11" y="435.20" stroke="none">exp-2-8</text>
<text x="494.12" y="435.20" stroke="none">exp-2-9</text>
<text x="149.87" y="327.20" stroke="none">exp-3-0</text>
<text x="179.11" y="327.20" stroke="none">exp-3-1</text>
<text x="224.12" y="327.20" stroke="none">exp-3-2</text>
<text x="284.87" y="327.20" stroke="none">exp-3-3</text>
<text x="363.62" y="327.20" stroke="none">exp-3-4</text>
<text x="417.62" y="327.20" stroke="none">exp-3-5</text>
<text x="473.87" y="327.20" stroke="none">exp-3-6</text>
<text x="525.62" y="327.20" stroke="none">exp-3-7</text>
<text x="597.61" y="327.20" stroke="none">exp-3-8</text>
<text x="674.12" y="327.20" stroke="none">exp-3-9</text>
<text x="131.87" y="363.20" stroke="none">exp-4-0</text>
<text x="192.62" y="363.20" stroke="none">exp-4-1</text>
<text x="228.61" y="363.20" stroke="none">exp-4-2</text>
<text x="291.62" y="363.20" stroke="none">exp-4-3</text>
<text x="343.37" y="363.20" stroke="none">exp-4-4</text>
<text x="401.86" y="363.20" stroke="none">exp-4-5</text>
<text x="455.86" y="363.20" stroke="none">exp-4-6</text>
<text x="507.62" y="363.20" stroke="none">exp-4-7</text>
<text x="579.62" y="363.20" stroke="none">exp-4-8</text>
<text x="656.12" y="363.20" stroke="none">exp-4-9</text>
<text x="145.36" y="471.20" stroke="none">exp-0-0</text>
<text x="181.37" y="471.20" stroke="none">exp-0-1</text>
<text x="224.12" y="471.20" stroke="none">exp-0-2</text>
<text x="264.62" y="471.20" stroke="none">exp-0-3</text>
<text x="332.12" y="471.20" stroke="none">exp-0-4</text>
<text x="372.62" y="471.20" stroke="none">exp-0-5</text>
<text x="410.86" y="471.20" stroke="none">exp-0-6</text>
<text x="453.62" y="471.20" stroke="none">exp-0-7</text>
<text x="534.62" y="471.20" stroke="none">exp-0-8</text>
<text x="568.37" y="471.20" stroke="none">exp-0-9</text>
<text x="149.87" y="399.20" stroke="none">exp-1-0</text>
<text x="201.62" y="399.20" stroke="none">exp-1-1</text>
<text x="273.61" y="399.20" stroke="none">exp-1-2</text>
<text x="325.37" y="399.20" stroke="none">exp-1-3</text>
<text x="381.61" y="399.20" stroke="none">exp-1-4</text>
<text x="449.11" y="399.20" stroke="none">exp-1-5</text>
<text x="498.62" y="399.20" stroke="none">exp-1-6</text>
<text x="550.37" y="399.20" stroke="none">exp-1-7</text>
<text x="588.62" y="399.20" stroke="none">exp-1-8</text>
</g></g>
</g>
</svg>
