<?xml version="1.0" encoding="iso-8859-1" standalone="no"?>
<!DOCTYPE svg PUBLIC "-//W3C//DTD SVG 20010904//EN" 
  "http://www.w3.org/TR/2001/REC-SVG-20010904/DTD/svg10.dtd" [ 
<!ENTITY ff "font-family:">
<!ENTITY fs "font-size:">
<!ENTITY fw "font-weight:">
<!ENTITY fst "font-style:">
<!ENTITY sw "stroke-width:">
<!ENTITY as "text-anchor:start;">
<!ENTITY am "text-anchor:middle;">
<!ENTITY ae "text-anchor:end;">
]>
<!-- Generated by ploticus (http://ploticus.sourceforge.net/)
Title: ploticus-graphic
SVG Driver by B.Traill
-->
<svg xmlns="http://www.w3.org/2000/svg" 
  viewBox="0 0 710.80 283.28"      
  xmlns:xlink="http://www.w3.org/1999/xlink"
>
<g transform="translate(-31.20,-260.16)" >                                                       

<g style="fill:#000000;stroke:#000000;&ff;Helvetica;">
<g style="&sw;0.6;&fs;10pt;&as;">
<text x="72.00" y="286.56" stroke="none">Cloudmesh Reservation</text>
</g><g style="&sw;0.6;&fs;8pt;&am;">
<text x="72.00" y="519.04" stroke="none">5</text>
<text x="72.00" y="529.04" stroke="none">Jul14</text>
</g><g style="&sw;0.5;&fs;8pt;&am;">
<path d="M72 509l0 -5.04" fill="none"/>
<text x="180.00" y="519.04" stroke="none">6</text>
<path d="M180 509l0 -5.04" fill="none"/>
<text x="288.00" y="519.04" stroke="none">7</text>
<path d="M288 509l0 -5.04" fill="none"/>
<text x="396.00" y="519.04" stroke="none">8</text>
<path d="M396 509l0 -5.04" fill="none"/>
<text x="504.00" y="519.04" stroke="none">9</text>
<path d="M504 509l0 -5.04" fill="none"/>
<text x="612.00" y="519.04" stroke="none">10</text>
<path d="M612 509l0 -5.04" fill="none"/>
<text x="720.00" y="519.04" stroke="none">11</text>
<path d="M720 509l0 -5.04" fill="none"/>
<path d="M72 504l648 0" fill="none"/>
</g><g style="&sw;0.5;&fs;8pt;&ae;">
<text x="61.20" y="327.00" stroke="none">m04</text>
<path d="M66.96 324l5.04 0" fill="none"/>
<text x="61.20" y="363.00" stroke="none">m05</text>
<path d="M66.96 360l5.04 0" fill="none"/>
<text x="61.20" y="399.00" stroke="none">m02</text>
<path d="M66.96 396l5.04 0" fill="none"/>
<text x="61.20" y="435.00" stroke="none">m03</text>
<path d="M66.96 432l5.04 0" fill="none"/>
<text x="61.20" y="471.00" stroke="none">m01</text>
<path d="M66.96 468l5.04 0" fill="none"/>
<path d="M72 504l0 -216" fill="none"/>
<path d="M146.8 482.4l18 0l0 -28.8l-18 0z" fill="#b2b2ff" stroke="#b2b2ff"/>
<path d="M146.8 482.4l18 0l0 -28.8l-18 0l0 28.8" fill="none"/>
<path d="M173.8 482.4l45 0l0 -28.8l-45 0z" fill="#b2b2ff" stroke="#b2b2ff"/>
<path d="M173.8 482.4l45 0l0 -28.8l-45 0l0 28.8" fill="none"/>
<path d="M227.8 482.4l22.5 0l0 -28.8l-22.5 0z" fill="#b2b2ff" stroke="#b2b2ff"/>
<path d="M227.8 482.4l22.5 0l0 -28.8l-22.5 0l0 28.8" fill="none"/>
<path d="M295.3 482.4l40.5 0l0 -28.8l-40.5 0z" fill="#b2b2ff" stroke="#b2b2ff"/>
<path d="M295.3 482.4l40.5 0l0 -28.8l-40.5 0l0 28.8" fill="none"/>
<path d="M367.3 482.4l27 0l0 -28.8l-27 0z" fill="#b2b2ff" stroke="#b2b2ff"/>
<path d="M367.3 482.4l27 0l0 -28.8l-27 0l0 28.8" fill="none"/>
<path d="M412.4 482.4l40.5 0l0 -28.8l-40.5 0z" fill="#b2b2ff" stroke="#b2b2ff"/>
<path d="M412.4 482.4l40.5 0l0 -28.8l-40.5 0l0 28.8" fill="none"/>
<path d="M475.3 482.4l13.5 0l0 -28.8l-13.5 0z" fill="#b2b2ff" stroke="#b2b2ff"/>
<path d="M475.3 482.4l13.5 0l0 -28.8l-13.5 0l0 28.8" fill="none"/>
<path d="M493.4 482.4l13.5 0l0 -28.8l-13.5 0z" fill="#b2b2ff" stroke="#b2b2ff"/>
<path d="M493.4 482.4l13.5 0l0 -28.8l-13.5 0l0 28.8" fill="none"/>
<path d="M520.4 482.4l4.5 0l0 -28.8l-4.5 0z" fill="#b2b2ff" stroke="#b2b2ff"/>
<path d="M520.4 482.4l4.5 0l0 -28.8l-4.5 0l0 28.8" fill="none"/>
<path d="M551.8 482.4l9 0l0 -28.8l-9 0z" fill="#b2b2ff" stroke="#b2b2ff"/>
<path d="M551.8 482.4l9 0l0 -28.8l-9 0l0 28.8" fill="none"/>
<path d="M133.3 410.4l40.5 0l0 -28.8l-40.5 0z" fill="#b2b2ff" stroke="#b2b2ff"/>
<path d="M133.3 410.4l40.5 0l0 -28.8l-40.5 0l0 28.8" fill="none"/>
<path d="M218.8 410.4l0 0l0 -28.8l0 0z" fill="#b2b2ff" stroke="#b2b2ff"/>
<path d="M218.8 410.4l0 0l0 -28.8l0 0l0 28.8" fill="none"/>
<path d="M241.3 410.4l40.5 0l0 -28.8l-40.5 0z" fill="#b2b2ff" stroke="#b2b2ff"/>
<path d="M241.3 410.4l40.5 0l0 -28.8l-40.5 0l0 28.8" fill="none"/>
<path d="M286.3 410.4l45 0l0 -28.8l-45 0z" fill="#b2b2ff" stroke="#b2b2ff"/>
<path d="M286.3 410.4l45 0l0 -28.8l-45 0l0 28.8" fill="none"/>
<path d="M353.8 410.4l0 0l0 -28.8l0 0z" fill="#b2b2ff" stroke="#b2b2ff"/>
<path d="M353.8 410.4l0 0l0 -28.8l0 0l0 28.8" fill="none"/>
<path d="M358.4 410.4l18 0l0 -28.8l-18 0z" fill="#b2b2ff" stroke="#b2b2ff"/>
<path d="M358.4 410.4l18 0l0 -28.8l-18 0l0 28.8" fill="none"/>
<path d="M407.8 410.4l9 0l0 -28.8l-9 0z" fill="#b2b2ff" stroke="#b2b2ff"/>
<path d="M407.8 410.4l9 0l0 -28.8l-9 0l0 28.8" fill="none"/>
<path d="M434.8 410.4l4.5 0l0 -28.8l-4.5 0z" fill="#b2b2ff" stroke="#b2b2ff"/>
<path d="M434.8 410.4l4.5 0l0 -28.8l-4.5 0l0 28.8" fill="none"/>
<path d="M479.9 410.4l36 0l0 -28.8l-36 0z" fill="#b2b2ff" stroke="#b2b2ff"/>
<path d="M479.9 410.4l36 0l0 -28.8l-36 0l0 28.8" fill="none"/>
<path d="M560.9 410.4l4.5 0l0 -28.8l-4.5 0z" fill="#b2b2ff" stroke="#b2b2ff"/>
<path d="M560.9 410.4l4.5 0l0 -28.8l-4.5 0l0 28.8" fill="none"/>
<path d="M142.4 446.4l45 0l0 -28.8l-45 0z" fill="#b2b2ff" stroke="#b2b2ff"/>
<path d="M142.4 446.4l45 0l0 -28.8l-45 0l0 28.8" fill="none"/>
<path d="M218.8 446.4l36 0l0 -28.8l-36 0z" fill="#b2b2ff" stroke="#b2b2ff"/>
<path d="M218.8 446.4l36 0l0 -28.8l-36 0l0 28.8" fill="none"/>
<path d="M277.4 446.4l22.5 0l0 -28.8l-22.5 0z" fill="#b2b2ff" stroke="#b2b2ff"/>
<path d="M277.4 446.4l22.5 0l0 -28.8l-22.5 0l0 28.8" fill="none"/>
<path d="M326.8 446.4l27 0l0 -28.8l-27 0z" fill="#b2b2ff" stroke="#b2b2ff"/>
<path d="M326.8 446.4l27 0l0 -28.8l-27 0l0 28.8" fill="none"/>
<path d="M358.4 446.4l22.5 0l0 -28.8l-22.5 0z" fill="#b2b2ff" stroke="#b2b2ff"/>
<path d="M358.4 446.4l22.5 0l0 -28.8l-22.5 0l0 28.8" fill="none"/>
<path d="M385.4 446.4l9 0l0 -28.8l-9 0z" fill="#b2b2ff" stroke="#b2b2ff"/>
<path d="M385.4 446.4l9 0l0 -28.8l-9 0l0 28.8" fill="none"/>
<path d="M434.8 446.4l27 0l0 -28.8l-27 0z" fill="#b2b2ff" stroke="#b2b2ff"/>
<path d="M434.8 446.4l27 0l0 -28.8l-27 0l0 28.8" fill="none"/>
<path d="M502.3 446.4l31.5 0l0 -28.8l-31.5 0z" fill="#b2b2ff" stroke="#b2b2ff"/>
<path d="M502.3 446.4l31.5 0l0 -28.8l-31.5 0l0 28.8" fill="none"/>
<path d="M533.9 446.4l31.5 0l0 -28.8l-31.5 0z" fill="#b2b2ff" stroke="#b2b2ff"/>
<path d="M533.9 446.4l31.5 0l0 -28.8l-31.5 0l0 28.8" fill="none"/>
<path d="M574.4 446.4l13.5 0l0 -28.8l-13.5 0z" fill="#b2b2ff" stroke="#b2b2ff"/>
<path d="M574.4 446.4l13.5 0l0 -28.8l-13.5 0l0 28.8" fill="none"/>
<path d="M124.3 338.4l36 0l0 -28.8l-36 0z" fill="#b2b2ff" stroke="#b2b2ff"/>
<path d="M124.3 338.4l36 0l0 -28.8l-36 0l0 28.8" fill="none"/>
<path d="M169.4 338.4l22.5 0l0 -28.8l-22.5 0z" fill="#b2b2ff" stroke="#b2b2ff"/>
<path d="M169.4 338.4l22.5 0l0 -28.8l-22.5 0l0 28.8" fill="none"/>
<path d="M232.3 338.4l0 0l0 -28.8l0 0z" fill="#b2b2ff" stroke="#b2b2ff"/>
<path d="M232.3 338.4l0 0l0 -28.8l0 0l0 28.8" fill="none"/>
<path d="M232.3 338.4l36 0l0 -28.8l-36 0z" fill="#b2b2ff" stroke="#b2b2ff"/>
<path d="M232.3 338.4l36 0l0 -28.8l-36 0l0 28.8" fill="none"/>
<path d="M272.8 338.4l0 0l0 -28.8l0 0z" fill="#b2b2ff" stroke="#b2b2ff"/>
<path d="M272.8 338.4l0 0l0 -28.8l0 0l0 28.8" fill="none"/>
<path d="M308.8 338.4l4.5 0l0 -28.8l-4.5 0z" fill="#b2b2ff" stroke="#b2b2ff"/>
<path d="M308.8 338.4l4.5 0l0 -28.8l-4.5 0l0 28.8" fill="none"/>
<path d="M353.8 338.4l22.5 0l0 -28.8l-22.5 0z" fill="#b2b2ff" stroke="#b2b2ff"/>
<path d="M353.8 338.4l22.5 0l0 -28.8l-22.5 0l0 28.8" fill="none"/>
<path d="M412.4 338.4l27 0l0 -28.8l-27 0z" fill="#b2b2ff" stroke="#b2b2ff"/>
<path d="M412.4 338.4l27 0l0 -28.8l-27 0l0 28.8" fill="none"/>
<path d="M475.3 338.4l40.5 0l0 -28.8l-40.5 0z" fill="#b2b2ff" stroke="#b2b2ff"/>
<path d="M475.3 338.4l40.5 0l0 -28.8l-40.5 0l0 28.8" fill="none"/>
<path d="M533.9 338.4l27 0l0 -28.8l-27 0z" fill="#b2b2ff" stroke="#b2b2ff"/>
<path d="M533.9 338.4l27 0l0 -28.8l-27 0l0 28.8" fill="none"/>
<path d="M151.3 374.4l45 0l0 -28.8l-45 0z" fill="#b2b2ff" stroke="#b2b2ff"/>
<path d="M151.3 374.4l45 0l0 -28.8l-45 0l0 28.8" fill="none"/>
<path d="M209.9 374.4l9 0l0 -28.8l-9 0z" fill="#b2b2ff" stroke="#b2b2ff"/>
<path d="M209.9 374.4l9 0l0 -28.8l-9 0l0 28.8" fill="none"/>
<path d="M263.9 374.4l31.5 0l0 -28.8l-31.5 0z" fill="#b2b2ff" stroke="#b2b2ff"/>
<path d="M263.9 374.4l31.5 0l0 -28.8l-31.5 0l0 28.8" fill="none"/>
<path d="M308.8 374.4l0 0l0 -28.8l0 0z" fill="#b2b2ff" stroke="#b2b2ff"/>
<path d="M308.8 374.4l0 0l0 -28.8l0 0l0 28.8" fill="none"/>
<path d="M349.3 374.4l9 0l0 -28.8l-9 0z" fill="#b2b2ff" stroke="#b2b2ff"/>
<path d="M349.3 374.4l9 0l0 -28.8l-9 0l0 28.8" fill="none"/>
<path d="M389.8 374.4l9 0l0 -28.8l-9 0z" fill="#b2b2ff" stroke="#b2b2ff"/>
<path d="M389.8 374.4l9 0l0 -28.8l-9 0l0 28.8" fill="none"/>
<path d="M398.9 374.4l22.5 0l0 -28.8l-22.5 0z" fill="#b2b2ff" stroke="#b2b2ff"/>
<path d="M398.9 374.4l22.5 0l0 -28.8l-22.5 0l0 28.8" fill="none"/>
<path d="M443.8 374.4l4.5 0l0 -28.8l-4.5 0z" fill="#b2b2ff" stroke="#b2b2ff"/>
<path d="M443.8 374.4l4.5 0l0 -28.8l-4.5 0l0 28.8" fill="none"/>
<path d="M475.3 374.4l13.5 0l0 -28.8l-13.5 0z" fill="#b2b2ff" stroke="#b2b2ff"/>
<path d="M475.3 374.4l13.5 0l0 -28.8l-13.5 0l0 28.8" fill="none"/>
<path d="M511.3 374.4l4.5 0l0 -28.8l-4.5 0z" fill="#b2b2ff" stroke="#b2b2ff"/>
<path d="M511.3 374.4l4.5 0l0 -28.8l-4.5 0l0 28.8" fill="none"/>
<path d="M151.3 482.4l45 0l0 -28.8l-45 0z" fill="#b2b2ff" stroke="#b2b2ff"/>
<path d="M151.3 482.4l45 0l0 -28.8l-45 0l0 28.8" fill="none"/>
<path d="M232.3 482.4l4.5 0l0 -28.8l-4.5 0z" fill="#b2b2ff" stroke="#b2b2ff"/>
<path d="M232.3 482.4l4.5 0l0 -28.8l-4.5 0l0 28.8" fill="none"/>
<path d="M250.4 482.4l9 0l0 -28.8l-9 0z" fill="#b2b2ff" stroke="#b2b2ff"/>
<path d="M250.4 482.4l9 0l0 -28.8l-9 0l0 28.8" fill="none"/>
<path d="M295.3 482.4l0 0l0 -28.8l0 0z" fill="#b2b2ff" stroke="#b2b2ff"/>
<path d="M295.3 482.4l0 0l0 -28.8l0 0l0 28.8" fill="none"/>
<path d="M308.8 482.4l31.5 0l0 -28.8l-31.5 0z" fill="#b2b2ff" stroke="#b2b2ff"/>
<path d="M308.8 482.4l31.5 0l0 -28.8l-31.5 0l0 28.8" fill="none"/>
<path d="M385.4 482.4l45 0l0 -28.8l-45 0z" fill="#b2b2ff" stroke="#b2b2ff"/>
<path d="M385.4 482.4l45 0l0 -28.8l-45 0l0 28.8" fill="none"/>
<path d="M461.8 482.4l27 0l0 -28.8l-27 0z" fill="#b2b2ff" stroke="#b2b2ff"/>
<path d="M461.8 482.4l27 0l0 -28.8l-27 0l0 28.8" fill="none"/>
<path d="M502.3 482.4l22.5 0l0 -28.8l-22.5 0z" fill="#b2b2ff" stroke="#b2b2ff"/>
<path d="M502.3 482.4l22.5 0l0 -28.8l-22.5 0l0 28.8" fill="none"/>
<path d="M547.4 482.4l22.5 0l0 -28.8l-22.5 0z" fill="#b2b2ff" stroke="#b2b2ff"/>
<path d="M547.4 482.4l22.5 0l0 -28.8l-22.5 0l0 28.8" fill="none"/>
<path d="M601.4 482.4l36 0l0 -28.8l-36 0z" fill="#b2b2ff" stroke="#b2b2ff"/>
<path d="M601.4 482.4l36 0l0 -28.8l-36 0l0 28.8" fill="none"/>
<path d="M142.4 410.4l4.5 0l0 -28.8l-4.5 0z" fill="#b2b2ff" stroke="#b2b2ff"/>
<path d="M142.4 410.4l4.5 0l0 -28.8l-4.5 0l0 28.8" fill="none"/>
<path d="M173.8 410.4l13.5 0l0 -28.8l-13.5 0z" fill="#b2b2ff" stroke="#b2b2ff"/>
<path d="M173.8 410.4l13.5 0l0 -28.8l-13.5 0l0 28.8" fill="none"/>
<path d="M205.3 410.4l31.5 0l0 -28.8l-31.5 0z" fill="#b2b2ff" stroke="#b2b2ff"/>
<path d="M205.3 410.4l31.5 0l0 -28.8l-31.5 0l0 28.8" fill="none"/>
<path d="M263.9 410.4l4.5 0l0 -28.8l-4.5 0z" fill="#b2b2ff" stroke="#b2b2ff"/>
<path d="M263.9 410.4l4.5 0l0 -28.8l-4.5 0l0 28.8" fill="none"/>
<path d="M290.9 410.4l27 0l0 -28.8l-27 0z" fill="#b2b2ff" stroke="#b2b2ff"/>
<path d="M290.9 410.4l27 0l0 -28.8l-27 0l0 28.8" fill="none"/>
<path d="M326.8 410.4l9 0l0 -28.8l-9 0z" fill="#b2b2ff" stroke="#b2b2ff"/>
<path d="M326.8 410.4l9 0l0 -28.8l-9 0l0 28.8" fill="none"/>
<path d="M362.8 410.4l18 0l0 -28.8l-18 0z" fill="#b2b2ff" stroke="#b2b2ff"/>
<path d="M362.8 410.4l18 0l0 -28.8l-18 0l0 28.8" fill="none"/>
<path d="M421.3 410.4l4.5 0l0 -28.8l-4.5 0z" fill="#b2b2ff" stroke="#b2b2ff"/>
<path d="M421.3 410.4l4.5 0l0 -28.8l-4.5 0l0 28.8" fill="none"/>
<path d="M434.8 410.4l9 0l0 -28.8l-9 0z" fill="#b2b2ff" stroke="#b2b2ff"/>
<path d="M434.8 410.4l9 0l0 -28.8l-9 0l0 28.8" fill="none"/>
<path d="M461.8 410.4l36 0l0 -28.8l-36 0z" fill="#b2b2ff" stroke="#b2b2ff"/>
<path d="M461.8 410.4l36 0l0 -28.8l-36 0l0 28.8" fill="none"/>
<path d="M119.8 446.4l36 0l0 -28.8l-36 0z" fill="#b2b2ff" stroke="#b2b2ff"/>
<path d="M119.8 446.4l36 0l0 -28.8l-36 0l0 28.8" fill="none"/>
<path d="M155.9 446.4l0 0l0 -28.8l0 0z" fill="#b2b2ff" stroke="#b2b2ff"/>
<path d="M155.9 446.4l0 0l0 -28.8l0 0l0 28.8" fill="none"/>
<path d="M173.8 446.4l18 0l0 -28.8l-18 0z" fill="#b2b2ff" stroke="#b2b2ff"/>
<path d="M173.8 446.4l18 0l0 -28.8l-18 0l0 28.8" fill="none"/>
<path d="M218.8 446.4l36 0l0 -28.8l-36 0z" fill="#b2b2ff" stroke="#b2b2ff"/>
<path d="M218.8 446.4l36 0l0 -28.8l-36 0l0 28.8" fill="none"/>
<path d="M268.3 446.4l31.5 0l0 -28.8l-31.5 0z" fill="#b2b2ff" stroke="#b2b2ff"/>
<path d="M268.3 446.4l31.5 0l0 -28.8l-31.5 0l0 28.8" fill="none"/>
<path d="M317.9 446.4l45 0l0 -28.8l-45 0z" fill="#b2b2ff" stroke="#b2b2ff"/>
<path d="M317.9 446.4l45 0l0 -28.8l-45 0l0 28.8" fill="none"/>
<path d="M394.3 446.4l9 0l0 -28.8l-9 0z" fill="#b2b2ff" stroke="#b2b2ff"/>
<path d="M394.3 446.4l9 0l0 -28.8l-9 0l0 28.8" fill="none"/>
<path d="M439.4 446.4l18 0l0 -28.8l-18 0z" fill="#b2b2ff" stroke="#b2b2ff"/>
<path d="M439.4 446.4l18 0l0 -28.8l-18 0l0 28.8" fill="none"/>
<path d="M484.3 446.4l13.5 0l0 -28.8l-13.5 0z" fill="#b2b2ff" stroke="#b2b2ff"/>
<path d="M484.3 446.4l13.5 0l0 -28.8l-13.5 0l0 28.8" fill="none"/>
<path d="M506.9 446.4l45 0l0 -28.8l-45 0z" fill="#b2b2ff" stroke="#b2b2ff"/>
<path d="M506.9 446.4l45 0l0 -28.8l-45 0l0 28.8" fill="none"/>
<path d="M155.9 338.4l45 0l0 -28.8l-45 0z" fill="#b2b2ff" stroke="#b2b2ff"/>
<path d="M155.9 338.4l45 0l0 -28.8l-45 0l0 28.8" fill="none"/>
<path d="M227.8 338.4l40.5 0l0 -28.8l-40.5 0z" fill="#b2b2ff" stroke="#b2b2ff"/>
<path d="M227.8 338.4l40.5 0l0 -28.8l-40.5 0l0 28.8" fill="none"/>
<path d="M277.4 338.4l45 0l0 -28.8l-45 0z" fill="#b2b2ff" stroke="#b2b2ff"/>
<path d="M277.4 338.4l45 0l0 -28.8l-45 0l0 28.8" fill="none"/>
<path d="M349.3 338.4l36 0l0 -28.8l-36 0z" fill="#b2b2ff" stroke="#b2b2ff"/>
<path d="M349.3 338.4l36 0l0 -28.8l-36 0l0 28.8" fill="none"/>
<path d="M416.8 338.4l27 0l0 -28.8l-27 0z" fill="#b2b2ff" stroke="#b2b2ff"/>
<path d="M416.8 338.4l27 0l0 -28.8l-27 0l0 28.8" fill="none"/>
<path d="M461.8 338.4l31.5 0l0 -28.8l-31.5 0z" fill="#b2b2ff" stroke="#b2b2ff"/>
<path d="M461.8 338.4l31.5 0l0 -28.8l-31.5 0l0 28.8" fill="none"/>
<path d="M493.4 338.4l40.5 0l0 -28.8l-40.5 0z" fill="#b2b2ff" stroke="#b2b2ff"/>
<path d="M493.4 338.4l40.5 0l0 -28.8l-40.5 0l0 28.8" fill="none"/>
<path d="M547.4 338.4l27 0l0 -28.8l-27 0z" fill="#b2b2ff" stroke="#b2b2ff"/>
<path d="M547.4 338.4l27 0l0 -28.8l-27 0l0 28.8" fill="none"/>
<path d="M574.4 338.4l4.5 0l0 -28.8l-4.5 0z" fill="#b2b2ff" stroke="#b2b2ff"/>
<path d="M574.4 338.4l4.5 0l0 -28.8l-4.5 0l0 28.8" fill="none"/>
<path d="M596.8 338.4l13.5 0l0 -28.8l-13.5 0z" fill="#b2b2ff" stroke="#b2b2ff"/>
<path d="M596.8 338.4l13.5 0l0 -28.8l-13.5 0l0 28.8" fill="none"/>
<path d="M133.3 374.4l31.5 0l0 -28.8l-31.5 0z" fill="#b2b2ff" stroke="#b2b2ff"/>
<path d="M133.3 374.4l31.5 0l0 -28.8l-31.5 0l0 28.8" fill="none"/>
<path d="M209.9 374.4l4.5 0l0 -28.8l-4.5 0z" fill="#b2b2ff" stroke="#b2b2ff"/>
<path d="M209.9 374.4l4.5 0l0 -28.8l-4.5 0l0 28.8" fill="none"/>
<path d="M227.8 374.4l22.5 0l0 -28.8l-22.5 0z" fill="#b2b2ff" stroke="#b2b2ff"/>
<path d="M227.8 374.4l22.5 0l0 -28.8l-22.5 0l0 28.8" fill="none"/>
<path d="M272.8 374.4l40.5 0l0 -28.8l-40.5 0z" fill="#b2b2ff" stroke="#b2b2ff"/>
<path d="M272.8 374.4l40.5 0l0 -28.8l-40.5 0l0 28.8" fill="none"/>
<path d="M317.9 374.4l45 0l0 -28.8l-45 0z" fill="#b2b2ff" stroke="#b2b2ff"/>
<path d="M317.9 374.4l45 0l0 -28.8l-45 0l0 28.8" fill="none"/>
<path d="M403.3 374.4l45 0l0 -28.8l-45 0z" fill="#b2b2ff" stroke="#b2b2ff"/>
<path d="M403.3 374.4l45 0l0 -28.8l-45 0l0 28.8" fill="none"/>
<path d="M461.8 374.4l22.5 0l0 -28.8l-22.5 0z" fill="#b2b2ff" stroke="#b2b2ff"/>
<path d="M461.8 374.4l22.5 0l0 -28.8l-22.5 0l0 28.8" fill="none"/>
<path d="M520.4 374.4l45 0l0 -28.8l-45 0z" fill="#b2b2ff" stroke="#b2b2ff"/>
<path d="M520.4 374.4l45 0l0 -28.8l-45 0l0 28.8" fill="none"/>
<path d="M601.4 374.4l9 0l0 -28.8l-9 0z" fill="#b2b2ff" stroke="#b2b2ff"/>
<path d="M601.4 374.4l9 0l0 -28.8l-9 0l0 28.8" fill="none"/>
<path d="M628.4 374.4l4.5 0l0 -28.8l-4.5 0z" fill="#b2b2ff" stroke="#b2b2ff"/>
<path d="M628.4 374.4l4.5 0l0 -28.8l-4.5 0l0 28.8" fill="none"/>
<path d="M142.4 482.4l36 0l0 -28.8l-36 0z" fill="#b2b2ff" stroke="#b2b2ff"/>
<path d="M142.4 482.4l36 0l0 -28.8l-36 0l0 28.8" fill="none"/>
<path d="M205.3 482.4l9 0l0 -28.8l-9 0z" fill="#b2b2ff" stroke="#b2b2ff"/>
<path d="M205.3 482.4l9 0l0 -28.8l-9 0l0 28.8" fill="none"/>
<path d="M250.4 482.4l40.5 0l0 -28.8l-40.5 0z" fill="#b2b2ff" stroke="#b2b2ff"/>
<path d="M250.4 482.4l40.5 0l0 -28.8l-40.5 0l0 28.8" fill="none"/>
<path d="M313.3 482.4l31.5 0l0 -28.8l-31.5 0z" fill="#b2b2ff" stroke="#b2b2ff"/>
<path d="M313.3 482.4l31.5 0l0 -28.8l-31.5 0l0 28.8" fill="none"/>
<path d="M371.9 482.4l45 0l0 -28.8l-45 0z" fill="#b2b2ff" stroke="#b2b2ff"/>
<path d="M371.9 482.4l45 0l0 -28.8l-45 0l0 28.8" fill="none"/>
<path d="M461.8 482.4l4.5 0l0 -28.8l-4.5 0z" fill="#b2b2ff" stroke="#b2b2ff"/>
<path d="M461.8 482.4l4.5 0l0 -28.8l-4.5 0l0 28.8" fill="none"/>
<path d="M506.9 482.4l0 0l0 -28.8l0 0z" fill="#b2b2ff" stroke="#b2b2ff"/>
<path d="M506.9 482.4l0 0l0 -28.8l0 0l0 28.8" fill="none"/>
<path d="M547.4 482.4l27 0l0 -28.8l-27 0z" fill="#b2b2ff" stroke="#b2b2ff"/>
<path d="M547.4 482.4l27 0l0 -28.8l-27 0l0 28.8" fill="none"/>
<path d="M587.9 482.4l40.5 0l0 -28.8l-40.5 0z" fill="#b2b2ff" stroke="#b2b2ff"/>
<path d="M587.9 482.4l40.5 0l0 -28.8l-40.5 0l0 28.8" fill="none"/>
<path d="M646.3 482.4l22.5 0l0 -28.8l-22.5 0z" fill="#b2b2ff" stroke="#b2b2ff"/>
<path d="M646.3 482.4l22.5 0l0 -28.8l-22.5 0l0 28.8" fill="none"/>
<path d="M133.3 410.4l27 0l0 -28.8l-27 0z" fill="#b2b2ff" stroke="#b2b2ff"/>
<path d="M133.3 410.4l27 0l0 -28.8l-27 0l0 28.8" fill="none"/>
<path d="M182.9 410.4l36 0l0 -28.8l-36 0z" fill="#b2b2ff" stroke="#b2b2ff"/>
<path d="M182.9 410.4l36 0l0 -28.8l-36 0l0 28.8" fill="none"/>
<path d="M245.8 410.4l36 0l0 -28.8l-36 0z" fill="#b2b2ff" stroke="#b2b2ff"/>
<path d="M245.8 410.4l36 0l0 -28.8l-36 0l0 28.8" fill="none"/>
<path d="M317.9 410.4l27 0l0 -28.8l-27 0z" fill="#b2b2ff" stroke="#b2b2ff"/>
<path d="M317.9 410.4l27 0l0 -28.8l-27 0l0 28.8" fill="none"/>
<path d="M380.8 410.4l27 0l0 -28.8l-27 0z" fill="#b2b2ff" stroke="#b2b2ff"/>
<path d="M380.8 410.4l27 0l0 -28.8l-27 0l0 28.8" fill="none"/>
<path d="M407.8 410.4l36 0l0 -28.8l-36 0z" fill="#b2b2ff" stroke="#b2b2ff"/>
<path d="M407.8 410.4l36 0l0 -28.8l-36 0l0 28.8" fill="none"/>
<path d="M470.8 410.4l0 0l0 -28.8l0 0z" fill="#b2b2ff" stroke="#b2b2ff"/>
<path d="M470.8 410.4l0 0l0 -28.8l0 0l0 28.8" fill="none"/>
<path d="M479.9 410.4l27 0l0 -28.8l-27 0z" fill="#b2b2ff" stroke="#b2b2ff"/>
<path d="M479.9 410.4l27 0l0 -28.8l-27 0l0 28.8" fill="none"/>
<path d="M524.8 410.4l18 0l0 -28.8l-18 0z" fill="#b2b2ff" stroke="#b2b2ff"/>
<path d="M524.8 410.4l18 0l0 -28.8l-18 0l0 28.8" fill="none"/>
<path d="M542.8 410.4l9 0l0 -28.8l-9 0z" fill="#b2b2ff" stroke="#b2b2ff"/>
<path d="M542.8 410.4l9 0l0 -28.8l-9 0l0 28.8" fill="none"/>
<path d="M115.4 446.4l27 0l0 -28.8l-27 0z" fill="#b2b2ff" stroke="#b2b2ff"/>
<path d="M115.4 446.4l27 0l0 -28.8l-27 0l0 28.8" fill="none"/>
<path d="M187.3 446.4l0 0l0 -28.8l0 0z" fill="#b2b2ff" stroke="#b2b2ff"/>
<path d="M187.3 446.4l0 0l0 -28.8l0 0l0 28.8" fill="none"/>
<path d="M209.9 446.4l0 0l0 -28.8l0 0z" fill="#b2b2ff" stroke="#b2b2ff"/>
<path d="M209.9 446.4l0 0l0 -28.8l0 0l0 28.8" fill="none"/>
<path d="M241.3 446.4l45 0l0 -28.8l-45 0z" fill="#b2b2ff" stroke="#b2b2ff"/>
<path d="M241.3 446.4l45 0l0 -28.8l-45 0l0 28.8" fill="none"/>
<path d="M304.4 446.4l45 0l0 -28.8l-45 0z" fill="#b2b2ff" stroke="#b2b2ff"/>
<path d="M304.4 446.4l45 0l0 -28.8l-45 0l0 28.8" fill="none"/>
<path d="M371.9 446.4l4.5 0l0 -28.8l-4.5 0z" fill="#b2b2ff" stroke="#b2b2ff"/>
<path d="M371.9 446.4l4.5 0l0 -28.8l-4.5 0l0 28.8" fill="none"/>
<path d="M380.8 446.4l0 0l0 -28.8l0 0z" fill="#b2b2ff" stroke="#b2b2ff"/>
<path d="M380.8 446.4l0 0l0 -28.8l0 0l0 28.8" fill="none"/>
<path d="M389.8 446.4l45 0l0 -28.8l-45 0z" fill="#b2b2ff" stroke="#b2b2ff"/>
<path d="M389.8 446.4l45 0l0 -28.8l-45 0l0 28.8" fill="none"/>
<path d="M461.8 446.4l45 0l0 -28.8l-45 0z" fill="#b2b2ff" stroke="#b2b2ff"/>
<path d="M461.8 446.4l45 0l0 -28.8l-45 0l0 28.8" fill="none"/>
<path d="M511.3 446.4l4.5 0l0 -28.8l-4.5 0z" fill="#b2b2ff" stroke="#b2b2ff"/>
<path d="M511.3 446.4l4.5 0l0 -28.8l-4.5 0l0 28.8" fill="none"/>
<path d="M155.9 338.4l0 0l0 -28.8l0 0z" fill="#b2b2ff" stroke="#b2b2ff"/>
<path d="M155.9 338.4l0 0l0 -28.8l0 0l0 28.8" fill="none"/>
<path d="M191.8 338.4l36 0l0 -28.8l-36 0z" fill="#b2b2ff" stroke="#b2b2ff"/>
<path d="M191.8 338.4l36 0l0 -28.8l-36 0l0 28.8" fill="none"/>
<path d="M250.4 338.4l31.5 0l0 -28.8l-31.5 0z" fill="#b2b2ff" stroke="#b2b2ff"/>
<path d="M250.4 338.4l31.5 0l0 -28.8l-31.5 0l0 28.8" fill="none"/>
<path d="M326.8 338.4l45 0l0 -28.8l-45 0z" fill="#b2b2ff" stroke="#b2b2ff"/>
<path d="M326.8 338.4l45 0l0 -28.8l-45 0l0 28.8" fill="none"/>
<path d="M407.8 338.4l13.5 0l0 -28.8l-13.5 0z" fill="#b2b2ff" stroke="#b2b2ff"/>
<path d="M407.8 338.4l13.5 0l0 -28.8l-13.5 0l0 28.8" fill="none"/>
<path d="M421.3 338.4l31.5 0l0 -28.8l-31.5 0z" fill="#b2b2ff" stroke="#b2b2ff"/>
<path d="M421.3 338.4l31.5 0l0 -28.8l-31.5 0l0 28.8" fill="none"/>
<path d="M461.8 338.4l4.5 0l0 -28.8l-4.5 0z" fill="#b2b2ff" stroke="#b2b2ff"/>
<path d="M461.8 338.4l4.5 0l0 -28.8l-4.5 0l0 28.8" fill="none"/>
<path d="M506.9 338.4l22.5 0l0 -28.8l-22.5 0z" fill="#b2b2ff" stroke="#b2b2ff"/>
<path d="M506.9 338.4l22.5 0l0 -28.8l-22.5 0l0 28.8" fill="none"/>
<path d="M560.9 338.4l45 0l0 -28.8l-45 0z" fill="#b2b2ff" stroke="#b2b2ff"/>
<path d="M560.9 338.4l45 0l0 -28.8l-45 0l0 28.8" fill="none"/>
<path d="M628.4 338.4l40.5 0l0 -28.8l-40.5 0z" fill="#b2b2ff" stroke="#b2b2ff"/>
<path d="M628.4 338.4l40.5 0l0 -28.8l-40.5 0l0 28.8" fill="none"/>
<path d="M124.3 374.4l18 0l0 -28.8l-18 0z" fill="#b2b2ff" stroke="#b2b2ff"/>
<path d="M124.3 374.4l18 0l0 -28.8l-18 0l0 28.8" fill="none"/>
<path d="M146.8 374.4l18 0l0 -28.8l-18 0z" fill="#b2b2ff" stroke="#b2b2ff"/>
<path d="M146.8 374.4l18 0l0 -28.8l-18 0l0 28.8" fill="none"/>
<path d="M173.8 374.4l36 0l0 -28.8l-36 0z" fill="#b2b2ff" stroke="#b2b2ff"/>
<path d="M173.8 374.4l36 0l0 -28.8l-36 0l0 28.8" fill="none"/>
<path d="M236.9 374.4l27 0l0 -28.8l-27 0z" fill="#b2b2ff" stroke="#b2b2ff"/>
<path d="M236.9 374.4l27 0l0 -28.8l-27 0l0 28.8" fill="none"/>
<path d="M299.8 374.4l27 0l0 -28.8l-27 0z" fill="#b2b2ff" stroke="#b2b2ff"/>
<path d="M299.8 374.4l27 0l0 -28.8l-27 0l0 28.8" fill="none"/>
<path d="M358.4 374.4l45 0l0 -28.8l-45 0z" fill="#b2b2ff" stroke="#b2b2ff"/>
<path d="M358.4 374.4l45 0l0 -28.8l-45 0l0 28.8" fill="none"/>
<path d="M412.4 374.4l22.5 0l0 -28.8l-22.5 0z" fill="#b2b2ff" stroke="#b2b2ff"/>
<path d="M412.4 374.4l22.5 0l0 -28.8l-22.5 0l0 28.8" fill="none"/>
<path d="M470.8 374.4l27 0l0 -28.8l-27 0z" fill="#b2b2ff" stroke="#b2b2ff"/>
<path d="M470.8 374.4l27 0l0 -28.8l-27 0l0 28.8" fill="none"/>
<path d="M502.3 374.4l36 0l0 -28.8l-36 0z" fill="#b2b2ff" stroke="#b2b2ff"/>
<path d="M502.3 374.4l36 0l0 -28.8l-36 0l0 28.8" fill="none"/>
<path d="M556.3 374.4l18 0l0 -28.8l-18 0z" fill="#b2b2ff" stroke="#b2b2ff"/>
<path d="M556.3 374.4l18 0l0 -28.8l-18 0l0 28.8" fill="none"/>
<path d="M142.7 482.4l22.5 0l0 -28.8l-22.5 0z" fill="#b2b2ff" stroke="#b2b2ff"/>
<path d="M142.7 482.4l22.5 0l0 -28.8l-22.5 0l0 28.8" fill="none"/>
<path d="M201.1 482.4l36 0l0 -28.8l-36 0z" fill="#b2b2ff" stroke="#b2b2ff"/>
<path d="M201.1 482.4l36 0l0 -28.8l-36 0l0 28.8" fill="none"/>
<path d="M273.1 482.4l18 0l0 -28.8l-18 0z" fill="#b2b2ff" stroke="#b2b2ff"/>
<path d="M273.1 482.4l18 0l0 -28.8l-18 0l0 28.8" fill="none"/>
<path d="M309.1 482.4l4.5 0l0 -28.8l-4.5 0z" fill="#b2b2ff" stroke="#b2b2ff"/>
<path d="M309.1 482.4l4.5 0l0 -28.8l-4.5 0l0 28.8" fill="none"/>
<path d="M354.1 482.4l31.5 0l0 -28.8l-31.5 0z" fill="#b2b2ff" stroke="#b2b2ff"/>
<path d="M354.1 482.4l31.5 0l0 -28.8l-31.5 0l0 28.8" fill="none"/>
<path d="M417.1 482.4l36 0l0 -28.8l-36 0z" fill="#b2b2ff" stroke="#b2b2ff"/>
<path d="M417.1 482.4l36 0l0 -28.8l-36 0l0 28.8" fill="none"/>
<path d="M457.6 482.4l45 0l0 -28.8l-45 0z" fill="#b2b2ff" stroke="#b2b2ff"/>
<path d="M457.6 482.4l45 0l0 -28.8l-45 0l0 28.8" fill="none"/>
<path d="M520.7 482.4l0 0l0 -28.8l0 0z" fill="#b2b2ff" stroke="#b2b2ff"/>
<path d="M520.7 482.4l0 0l0 -28.8l0 0l0 28.8" fill="none"/>
<path d="M543.1 482.4l45 0l0 -28.8l-45 0z" fill="#b2b2ff" stroke="#b2b2ff"/>
<path d="M543.1 482.4l45 0l0 -28.8l-45 0l0 28.8" fill="none"/>
<path d="M619.6 482.4l31.5 0l0 -28.8l-31.5 0z" fill="#b2b2ff" stroke="#b2b2ff"/>
<path d="M619.6 482.4l31.5 0l0 -28.8l-31.5 0l0 28.8" fill="none"/>
<path d="M133.6 410.4l27 0l0 -28.8l-27 0z" fill="#b2b2ff" stroke="#b2b2ff"/>
<path d="M133.6 410.4l27 0l0 -28.8l-27 0l0 28.8" fill="none"/>
<path d="M205.6 410.4l22.5 0l0 -28.8l-22.5 0z" fill="#b2b2ff" stroke="#b2b2ff"/>
<path d="M205.6 410.4l22.5 0l0 -28.8l-22.5 0l0 28.8" fill="none"/>
<path d="M273.1 410.4l0 0l0 -28.8l0 0z" fill="#b2b2ff" stroke="#b2b2ff"/>
<path d="M273.1 410.4l0 0l0 -28.8l0 0l0 28.8" fill="none"/>
<path d="M277.7 410.4l18 0l0 -28.8l-18 0z" fill="#b2b2ff" stroke="#b2b2ff"/>
<path d="M277.7 410.4l18 0l0 -28.8l-18 0l0 28.8" fill="none"/>
<path d="M331.7 410.4l0 0l0 -28.8l0 0z" fill="#b2b2ff" stroke="#b2b2ff"/>
<path d="M331.7 410.4l0 0l0 -28.8l0 0l0 28.8" fill="none"/>
<path d="M376.6 410.4l18 0l0 -28.8l-18 0z" fill="#b2b2ff" stroke="#b2b2ff"/>
<path d="M376.6 410.4l18 0l0 -28.8l-18 0l0 28.8" fill="none"/>
<path d="M421.6 410.4l13.5 0l0 -28.8l-13.5 0z" fill="#b2b2ff" stroke="#b2b2ff"/>
<path d="M421.6 410.4l13.5 0l0 -28.8l-13.5 0l0 28.8" fill="none"/>
<path d="M435.1 410.4l0 0l0 -28.8l0 0z" fill="#b2b2ff" stroke="#b2b2ff"/>
<path d="M435.1 410.4l0 0l0 -28.8l0 0l0 28.8" fill="none"/>
<path d="M471.1 410.4l27 0l0 -28.8l-27 0z" fill="#b2b2ff" stroke="#b2b2ff"/>
<path d="M471.1 410.4l27 0l0 -28.8l-27 0l0 28.8" fill="none"/>
<path d="M529.6 410.4l13.5 0l0 -28.8l-13.5 0z" fill="#b2b2ff" stroke="#b2b2ff"/>
<path d="M529.6 410.4l13.5 0l0 -28.8l-13.5 0l0 28.8" fill="none"/>
<path d="M142.7 446.4l45 0l0 -28.8l-45 0z" fill="#b2b2ff" stroke="#b2b2ff"/>
<path d="M142.7 446.4l45 0l0 -28.8l-45 0l0 28.8" fill="none"/>
<path d="M192.1 446.4l22.5 0l0 -28.8l-22.5 0z" fill="#b2b2ff" stroke="#b2b2ff"/>
<path d="M192.1 446.4l22.5 0l0 -28.8l-22.5 0l0 28.8" fill="none"/>
<path d="M223.7 446.4l4.5 0l0 -28.8l-4.5 0z" fill="#b2b2ff" stroke="#b2b2ff"/>
<path d="M223.7 446.4l4.5 0l0 -28.8l-4.5 0l0 28.8" fill="none"/>
<path d="M255.1 446.4l27 0l0 -28.8l-27 0z" fill="#b2b2ff" stroke="#b2b2ff"/>
<path d="M255.1 446.4l27 0l0 -28.8l-27 0l0 28.8" fill="none"/>
<path d="M322.6 446.4l4.5 0l0 -28.8l-4.5 0z" fill="#b2b2ff" stroke="#b2b2ff"/>
<path d="M322.6 446.4l4.5 0l0 -28.8l-4.5 0l0 28.8" fill="none"/>
<path d="M327.1 446.4l22.5 0l0 -28.8l-22.5 0z" fill="#b2b2ff" stroke="#b2b2ff"/>
<path d="M327.1 446.4l22.5 0l0 -28.8l-22.5 0l0 28.8" fill="none"/>
<path d="M358.7 446.4l36 0l0 -28.8l-36 0z" fill="#b2b2ff" stroke="#b2b2ff"/>
<path d="M358.7 446.4l36 0l0 -28.8l-36 0l0 28.8" fill="none"/>
<path d="M394.6 446.4l13.5 0l0 -28.8l-13.5 0z" fill="#b2b2ff" stroke="#b2b2ff"/>
<path d="M394.6 446.4l13.5 0l0 -28.8l-13.5 0l0 28.8" fill="none"/>
<path d="M448.6 446.4l40.5 0l0 -28.8l-40.5 0z" fill="#b2b2ff" stroke="#b2b2ff"/>
<path d="M448.6 446.4l40.5 0l0 -28.8l-40.5 0l0 28.8" fill="none"/>
<path d="M525.1 446.4l27 0l0 -28.8l-27 0z" fill="#b2b2ff" stroke="#b2b2ff"/>
<path d="M525.1 446.4l27 0l0 -28.8l-27 0l0 28.8" fill="none"/>
<path d="M156.2 338.4l40.5 0l0 -28.8l-40.5 0z" fill="#b2b2ff" stroke="#b2b2ff"/>
<path d="M156.2 338.4l40.5 0l0 -28.8l-40.5 0l0 28.8" fill="none"/>
<path d="M205.6 338.4l4.5 0l0 -28.8l-4.5 0z" fill="#b2b2ff" stroke="#b2b2ff"/>
<path d="M205.6 338.4l4.5 0l0 -28.8l-4.5 0l0 28.8" fill="none"/>
<path d="M223.7 338.4l13.5 0l0 -28.8l-13.5 0z" fill="#b2b2ff" stroke="#b2b2ff"/>
<path d="M223.7 338.4l13.5 0l0 -28.8l-13.5 0l0 28.8" fill="none"/>
<path d="M255.1 338.4l36 0l0 -28.8l-36 0z" fill="#b2b2ff" stroke="#b2b2ff"/>
<path d="M255.1 338.4l36 0l0 -28.8l-36 0l0 28.8" fill="none"/>
<path d="M295.6 338.4l31.5 0l0 -28.8l-31.5 0z" fill="#b2b2ff" stroke="#b2b2ff"/>
<path d="M295.6 338.4l31.5 0l0 -28.8l-31.5 0l0 28.8" fill="none"/>
<path d="M349.6 338.4l36 0l0 -28.8l-36 0z" fill="#b2b2ff" stroke="#b2b2ff"/>
<path d="M349.6 338.4l36 0l0 -28.8l-36 0l0 28.8" fill="none"/>
<path d="M403.6 338.4l27 0l0 -28.8l-27 0z" fill="#b2b2ff" stroke="#b2b2ff"/>
<path d="M403.6 338.4l27 0l0 -28.8l-27 0l0 28.8" fill="none"/>
<path d="M439.7 338.4l22.5 0l0 -28.8l-22.5 0z" fill="#b2b2ff" stroke="#b2b2ff"/>
<path d="M439.7 338.4l22.5 0l0 -28.8l-22.5 0l0 28.8" fill="none"/>
<path d="M475.6 338.4l22.5 0l0 -28.8l-22.5 0z" fill="#b2b2ff" stroke="#b2b2ff"/>
<path d="M475.6 338.4l22.5 0l0 -28.8l-22.5 0l0 28.8" fill="none"/>
<path d="M538.6 338.4l22.5 0l0 -28.8l-22.5 0z" fill="#b2b2ff" stroke="#b2b2ff"/>
<path d="M538.6 338.4l22.5 0l0 -28.8l-22.5 0l0 28.8" fill="none"/>
<path d="M160.6 374.4l0 0l0 -28.8l0 0z" fill="#b2b2ff" stroke="#b2b2ff"/>
<path d="M160.6 374.4l0 0l0 -28.8l0 0l0 28.8" fill="none"/>
<path d="M160.6 374.4l40.5 0l0 -28.8l-40.5 0z" fill="#b2b2ff" stroke="#b2b2ff"/>
<path d="M160.6 374.4l40.5 0l0 -28.8l-40.5 0l0 28.8" fill="none"/>
<path d="M241.6 374.4l18 0l0 -28.8l-18 0z" fill="#b2b2ff" stroke="#b2b2ff"/>
<path d="M241.6 374.4l18 0l0 -28.8l-18 0l0 28.8" fill="none"/>
<path d="M273.1 374.4l22.5 0l0 -28.8l-22.5 0z" fill="#b2b2ff" stroke="#b2b2ff"/>
<path d="M273.1 374.4l22.5 0l0 -28.8l-22.5 0l0 28.8" fill="none"/>
<path d="M322.6 374.4l31.5 0l0 -28.8l-31.5 0z" fill="#b2b2ff" stroke="#b2b2ff"/>
<path d="M322.6 374.4l31.5 0l0 -28.8l-31.5 0l0 28.8" fill="none"/>
<path d="M399.2 374.4l4.5 0l0 -28.8l-4.5 0z" fill="#b2b2ff" stroke="#b2b2ff"/>
<path d="M399.2 374.4l4.5 0l0 -28.8l-4.5 0l0 28.8" fill="none"/>
<path d="M430.6 374.4l0 0l0 -28.8l0 0z" fill="#b2b2ff" stroke="#b2b2ff"/>
<path d="M430.6 374.4l0 0l0 -28.8l0 0l0 28.8" fill="none"/>
<path d="M475.6 374.4l22.5 0l0 -28.8l-22.5 0z" fill="#b2b2ff" stroke="#b2b2ff"/>
<path d="M475.6 374.4l22.5 0l0 -28.8l-22.5 0l0 28.8" fill="none"/>
<path d="M543.1 374.4l27 0l0 -28.8l-27 0z" fill="#b2b2ff" stroke="#b2b2ff"/>
<path d="M543.1 374.4l27 0l0 -28.8l-27 0l0 28.8" fill="none"/>
<path d="M597.1 374.4l4.5 0l0 -28.8l-4.5 0z" fill="#b2b2ff" stroke="#b2b2ff"/>
<path d="M597.1 374.4l4.5 0l0 -28.8l-4.5 0l0 28.8" fill="none"/>
<path d="M138.1 482.4l40.5 0l0 -28.8l-40.5 0z" fill="#b2b2ff" stroke="#b2b2ff"/>
<path d="M138.1 482.4l40.5 0l0 -28.8l-40.5 0l0 28.8" fill="none"/>
<path d="M210.2 482.4l40.5 0l0 -28.8l-40.5 0z" fill="#b2b2ff" stroke="#b2b2ff"/>
<path d="M210.2 482.4l40.5 0l0 -28.8l-40.5 0l0 28.8" fill="none"/>
<path d="M282.1 482.4l13.5 0l0 -28.8l-13.5 0z" fill="#b2b2ff" stroke="#b2b2ff"/>
<path d="M282.1 482.4l13.5 0l0 -28.8l-13.5 0l0 28.8" fill="none"/>
<path d="M331.7 482.4l40.5 0l0 -28.8l-40.5 0z" fill="#b2b2ff" stroke="#b2b2ff"/>
<path d="M331.7 482.4l40.5 0l0 -28.8l-40.5 0l0 28.8" fill="none"/>
<path d="M381.1 482.4l13.5 0l0 -28.8l-13.5 0z" fill="#b2b2ff" stroke="#b2b2ff"/>
<path d="M381.1 482.4l13.5 0l0 -28.8l-13.5 0l0 28.8" fill="none"/>
<path d="M403.6 482.4l27 0l0 -28.8l-27 0z" fill="#b2b2ff" stroke="#b2b2ff"/>
<path d="M403.6 482.4l27 0l0 -28.8l-27 0l0 28.8" fill="none"/>
<path d="M462.1 482.4l45 0l0 -28.8l-45 0z" fill="#b2b2ff" stroke="#b2b2ff"/>
<path d="M462.1 482.4l45 0l0 -28.8l-45 0l0 28.8" fill="none"/>
<path d="M547.7 482.4l31.5 0l0 -28.8l-31.5 0z" fill="#b2b2ff" stroke="#b2b2ff"/>
<path d="M547.7 482.4l31.5 0l0 -28.8l-31.5 0l0 28.8" fill="none"/>
<path d="M606.1 482.4l18 0l0 -28.8l-18 0z" fill="#b2b2ff" stroke="#b2b2ff"/>
<path d="M606.1 482.4l18 0l0 -28.8l-18 0l0 28.8" fill="none"/>
<path d="M651.1 482.4l27 0l0 -28.8l-27 0z" fill="#b2b2ff" stroke="#b2b2ff"/>
<path d="M651.1 482.4l27 0l0 -28.8l-27 0l0 28.8" fill="none"/>
<path d="M142.7 410.4l27 0l0 -28.8l-27 0z" fill="#b2b2ff" stroke="#b2b2ff"/>
<path d="M142.7 410.4l27 0l0 -28.8l-27 0l0 28.8" fill="none"/>
<path d="M192.1 410.4l22.5 0l0 -28.8l-22.5 0z" fill="#b2b2ff" stroke="#b2b2ff"/>
<path d="M192.1 410.4l22.5 0l0 -28.8l-22.5 0l0 28.8" fill="none"/>
<path d="M259.6 410.4l9 0l0 -28.8l-9 0z" fill="#b2b2ff" stroke="#b2b2ff"/>
<path d="M259.6 410.4l9 0l0 -28.8l-9 0l0 28.8" fill="none"/>
<path d="M273.1 410.4l13.5 0l0 -28.8l-13.5 0z" fill="#b2b2ff" stroke="#b2b2ff"/>
<path d="M273.1 410.4l13.5 0l0 -28.8l-13.5 0l0 28.8" fill="none"/>
<path d="M291.2 410.4l40.5 0l0 -28.8l-40.5 0z" fill="#b2b2ff" stroke="#b2b2ff"/>
<path d="M291.2 410.4l40.5 0l0 -28.8l-40.5 0l0 28.8" fill="none"/>
<path d="M376.6 410.4l0 0l0 -28.8l0 0z" fill="#b2b2ff" stroke="#b2b2ff"/>
<path d="M376.6 410.4l0 0l0 -28.8l0 0l0 28.8" fill="none"/>
<path d="M399.2 410.4l31.5 0l0 -28.8l-31.5 0z" fill="#b2b2ff" stroke="#b2b2ff"/>
<path d="M399.2 410.4l31.5 0l0 -28.8l-31.5 0l0 28.8" fill="none"/>
<path d="M457.6 410.4l22.5 0l0 -28.8l-22.5 0z" fill="#b2b2ff" stroke="#b2b2ff"/>
<path d="M457.6 410.4l22.5 0l0 -28.8l-22.5 0l0 28.8" fill="none"/>
<path d="M502.6 410.4l40.5 0l0 -28.8l-40.5 0z" fill="#b2b2ff" stroke="#b2b2ff"/>
<path d="M502.6 410.4l40.5 0l0 -28.8l-40.5 0l0 28.8" fill="none"/>
<path d="M583.6 410.4l40.5 0l0 -28.8l-40.5 0z" fill="#b2b2ff" stroke="#b2b2ff"/>
<path d="M583.6 410.4l40.5 0l0 -28.8l-40.5 0l0 28.8" fill="none"/>
<path d="M147.1 446.4l36 0l0 -28.8l-36 0z" fill="#b2b2ff" stroke="#b2b2ff"/>
<path d="M147.1 446.4l36 0l0 -28.8l-36 0l0 28.8" fill="none"/>
<path d="M223.7 446.4l27 0l0 -28.8l-27 0z" fill="#b2b2ff" stroke="#b2b2ff"/>
<path d="M223.7 446.4l27 0l0 -28.8l-27 0l0 28.8" fill="none"/>
<path d="M282.1 446.4l31.5 0l0 -28.8l-31.5 0z" fill="#b2b2ff" stroke="#b2b2ff"/>
<path d="M282.1 446.4l31.5 0l0 -28.8l-31.5 0l0 28.8" fill="none"/>
<path d="M345.2 446.4l18 0l0 -28.8l-18 0z" fill="#b2b2ff" stroke="#b2b2ff"/>
<path d="M345.2 446.4l18 0l0 -28.8l-18 0l0 28.8" fill="none"/>
<path d="M399.2 446.4l22.5 0l0 -28.8l-22.5 0z" fill="#b2b2ff" stroke="#b2b2ff"/>
<path d="M399.2 446.4l22.5 0l0 -28.8l-22.5 0l0 28.8" fill="none"/>
<path d="M426.2 446.4l9 0l0 -28.8l-9 0z" fill="#b2b2ff" stroke="#b2b2ff"/>
<path d="M426.2 446.4l9 0l0 -28.8l-9 0l0 28.8" fill="none"/>
<path d="M448.6 446.4l36 0l0 -28.8l-36 0z" fill="#b2b2ff" stroke="#b2b2ff"/>
<path d="M448.6 446.4l36 0l0 -28.8l-36 0l0 28.8" fill="none"/>
<path d="M511.6 446.4l27 0l0 -28.8l-27 0z" fill="#b2b2ff" stroke="#b2b2ff"/>
<path d="M511.6 446.4l27 0l0 -28.8l-27 0l0 28.8" fill="none"/>
<path d="M583.6 446.4l18 0l0 -28.8l-18 0z" fill="#b2b2ff" stroke="#b2b2ff"/>
<path d="M583.6 446.4l18 0l0 -28.8l-18 0l0 28.8" fill="none"/>
<path d="M619.6 446.4l22.5 0l0 -28.8l-22.5 0z" fill="#b2b2ff" stroke="#b2b2ff"/>
<path d="M619.6 446.4l22.5 0l0 -28.8l-22.5 0l0 28.8" fill="none"/>
<path d="M115.7 338.4l22.5 0l0 -28.8l-22.5 0z" fill="#b2b2ff" stroke="#b2b2ff"/>
<path d="M115.7 338.4l22.5 0l0 -28.8l-22.5 0l0 28.8" fill="none"/>
<path d="M151.6 338.4l27 0l0 -28.8l-27 0z" fill="#b2b2ff" stroke="#b2b2ff"/>
<path d="M151.6 338.4l27 0l0 -28.8l-27 0l0 28.8" fill="none"/>
<path d="M178.6 338.4l22.5 0l0 -28.8l-22.5 0z" fill="#b2b2ff" stroke="#b2b2ff"/>
<path d="M178.6 338.4l22.5 0l0 -28.8l-22.5 0l0 28.8" fill="none"/>
<path d="M228.1 338.4l13.5 0l0 -28.8l-13.5 0z" fill="#b2b2ff" stroke="#b2b2ff"/>
<path d="M228.1 338.4l13.5 0l0 -28.8l-13.5 0l0 28.8" fill="none"/>
<path d="M268.6 338.4l31.5 0l0 -28.8l-31.5 0z" fill="#b2b2ff" stroke="#b2b2ff"/>
<path d="M268.6 338.4l31.5 0l0 -28.8l-31.5 0l0 28.8" fill="none"/>
<path d="M300.1 338.4l31.5 0l0 -28.8l-31.5 0z" fill="#b2b2ff" stroke="#b2b2ff"/>
<path d="M300.1 338.4l31.5 0l0 -28.8l-31.5 0l0 28.8" fill="none"/>
<path d="M345.2 338.4l9 0l0 -28.8l-9 0z" fill="#b2b2ff" stroke="#b2b2ff"/>
<path d="M345.2 338.4l9 0l0 -28.8l-9 0l0 28.8" fill="none"/>
<path d="M399.2 338.4l45 0l0 -28.8l-45 0z" fill="#b2b2ff" stroke="#b2b2ff"/>
<path d="M399.2 338.4l45 0l0 -28.8l-45 0l0 28.8" fill="none"/>
<path d="M480.2 338.4l31.5 0l0 -28.8l-31.5 0z" fill="#b2b2ff" stroke="#b2b2ff"/>
<path d="M480.2 338.4l31.5 0l0 -28.8l-31.5 0l0 28.8" fill="none"/>
<path d="M520.7 338.4l9 0l0 -28.8l-9 0z" fill="#b2b2ff" stroke="#b2b2ff"/>
<path d="M520.7 338.4l9 0l0 -28.8l-9 0l0 28.8" fill="none"/>
<path d="M147.1 374.4l13.5 0l0 -28.8l-13.5 0z" fill="#b2b2ff" stroke="#b2b2ff"/>
<path d="M147.1 374.4l13.5 0l0 -28.8l-13.5 0l0 28.8" fill="none"/>
<path d="M165.1 374.4l31.5 0l0 -28.8l-31.5 0z" fill="#b2b2ff" stroke="#b2b2ff"/>
<path d="M165.1 374.4l31.5 0l0 -28.8l-31.5 0l0 28.8" fill="none"/>
<path d="M219.1 374.4l9 0l0 -28.8l-9 0z" fill="#b2b2ff" stroke="#b2b2ff"/>
<path d="M219.1 374.4l9 0l0 -28.8l-9 0l0 28.8" fill="none"/>
<path d="M228.1 374.4l27 0l0 -28.8l-27 0z" fill="#b2b2ff" stroke="#b2b2ff"/>
<path d="M228.1 374.4l27 0l0 -28.8l-27 0l0 28.8" fill="none"/>
<path d="M255.1 374.4l13.5 0l0 -28.8l-13.5 0z" fill="#b2b2ff" stroke="#b2b2ff"/>
<path d="M255.1 374.4l13.5 0l0 -28.8l-13.5 0l0 28.8" fill="none"/>
<path d="M300.1 374.4l36 0l0 -28.8l-36 0z" fill="#b2b2ff" stroke="#b2b2ff"/>
<path d="M300.1 374.4l36 0l0 -28.8l-36 0l0 28.8" fill="none"/>
<path d="M336.1 374.4l45 0l0 -28.8l-45 0z" fill="#b2b2ff" stroke="#b2b2ff"/>
<path d="M336.1 374.4l45 0l0 -28.8l-45 0l0 28.8" fill="none"/>
<path d="M417.1 374.4l36 0l0 -28.8l-36 0z" fill="#b2b2ff" stroke="#b2b2ff"/>
<path d="M417.1 374.4l36 0l0 -28.8l-36 0l0 28.8" fill="none"/>
<path d="M462.1 374.4l45 0l0 -28.8l-45 0z" fill="#b2b2ff" stroke="#b2b2ff"/>
<path d="M462.1 374.4l45 0l0 -28.8l-45 0l0 28.8" fill="none"/>
<path d="M520.7 374.4l40.5 0l0 -28.8l-40.5 0z" fill="#b2b2ff" stroke="#b2b2ff"/>
<path d="M520.7 374.4l40.5 0l0 -28.8l-40.5 0l0 28.8" fill="none"/>
</g><g style="&sw;0.5;&fs;6pt;&am;">
<text x="157.29" y="471.20" stroke="none">exp-0-0</text>
<text x="197.79" y="471.20" stroke="none">exp-0-1</text>
<text x="240.54" y="471.20" stroke="none">exp-0-2</text>
<text x="317.04" y="471.20" stroke="none">exp-0-3</text>
<text x="382.29" y="471.20" stroke="none">exp-0-4</text>
<text x="434.04" y="471.20" stroke="none">exp-0-5</text>
<text x="483.54" y="471.20" stroke="none">exp-0-6</text>
<text x="501.54" y="471.20" stroke="none">exp-0-7</text>
<text x="524.04" y="471.20" stroke="none">exp-0-8</text>
<text x="557.79" y="471.20" stroke="none">exp-0-9</text>
<text x="155.04" y="399.20" stroke="none">exp-1-0</text>
<text x="220.29" y="399.20" stroke="none">exp-1-1</text>
<text x="263.04" y="399.20" stroke="none">exp-1-2</text>
<text x="310.29" y="399.20" stroke="none">exp-1-3</text>
<text x="355.29" y="399.20" stroke="none">exp-1-4</text>
<text x="368.79" y="399.20" stroke="none">exp-1-5</text>
<text x="413.79" y="399.20" stroke="none">exp-1-6</text>
<text x="438.54" y="399.20" stroke="none">exp-1-7</text>
<text x="499.29" y="399.20" stroke="none">exp-1-8</text>
<text x="564.54" y="399.20" stroke="none">exp-1-9</text>
<text x="166.29" y="435.20" stroke="none">exp-2-0</text>
<text x="238.29" y="435.20" stroke="none">exp-2-1</text>
<text x="290.04" y="435.20" stroke="none">exp-2-2</text>
<text x="341.79" y="435.20" stroke="none">exp-2-3</text>
<text x="371.04" y="435.20" stroke="none">exp-2-4</text>
<text x="391.29" y="435.20" stroke="none">exp-2-5</text>
<text x="449.79" y="435.20" stroke="none">exp-2-6</text>
<text x="519.54" y="435.20" stroke="none">exp-2-7</text>
<text x="551.04" y="435.20" stroke="none">exp-2-8</text>
<text x="582.54" y="435.20" stroke="none">exp-2-9</text>
<text x="143.79" y="327.20" stroke="none">exp-3-0</text>
<text x="182.04" y="327.20" stroke="none">exp-3-1</text>
<text x="233.79" y="327.20" stroke="none">exp-3-2</text>
<text x="251.79" y="327.20" stroke="none">exp-3-3</text>
<text x="274.29" y="327.20" stroke="none">exp-3-4</text>
<text x="312.54" y="327.20" stroke="none">exp-3-5</text>
<text x="366.54" y="327.20" stroke="none">exp-3-6</text>
<text x="427.29" y="327.20" stroke="none">exp-3-7</text>
<text x="497.04" y="327.20" stroke="none">exp-3-8</text>
<text x="548.79" y="327.20" stroke="none">exp-3-9</text>
<text x="175.29" y="363.20" stroke="none">exp-4-0</text>
<text x="215.79" y="363.20" stroke="none">exp-4-1</text>
<text x="281.04" y="363.20" stroke="none">exp-4-2</text>
<text x="310.29" y="363.20" stroke="none">exp-4-3</text>
<text x="355.29" y="363.20" stroke="none">exp-4-4</text>
<text x="395.79" y="363.20" stroke="none">exp-4-5</text>
<text x="411.54" y="363.20" stroke="none">exp-4-6</text>
<text x="447.54" y="363.20" stroke="none">exp-4-7</text>
<text x="483.54" y="363.20" stroke="none">exp-4-8</text>
<text x="515.04" y="363.20" stroke="none">exp-4-9</text>
<text x="175.29" y="471.20" stroke="none">exp-0-0</text>
<text x="236.04" y="471.20" stroke="none">exp-0-1</text>
<text x="256.29" y="471.20" stroke="none">exp-0-2</text>
<text x="296.79" y="471.20" stroke="none">exp-0-3</text>
<text x="326.04" y="471.20" stroke="none">exp-0-4</text>
<text x="409.29" y="471.20" stroke="none">exp-0-5</text>
<text x="476.79" y="471.20" stroke="none">exp-0-6</text>
<text x="515.04" y="471.20" stroke="none">exp-0-7</text>
<text x="560.04" y="471.20" stroke="none">exp-0-8</text>
<text x="620.79" y="471.20" stroke="none">exp-0-9</text>
<text x="146.04" y="399.20" stroke="none">exp-1-0</text>
<text x="182.04" y="399.20" stroke="none">exp-1-1</text>
<text x="222.54" y="399.20" stroke="none">exp-1-2</text>
<text x="267.54" y="399.20" stroke="none">exp-1-3</text>
<text x="305.79" y="399.20" stroke="none">exp-1-4</text>
<text x="332.79" y="399.20" stroke="none">exp-1-5</text>
<text x="373.29" y="399.20" stroke="none">exp-1-6</text>
<text x="425.04" y="399.20" stroke="none">exp-1-7</text>
<text x="440.79" y="399.20" stroke="none">exp-1-8</text>
<text x="481.29" y="399.20" stroke="none">exp-1-9</text>
<text x="139.29" y="435.20" stroke="none">exp-2-0</text>
<text x="157.29" y="435.20" stroke="none">exp-2-1</text>
<text x="184.29" y="435.20" stroke="none">exp-2-2</text>
<text x="238.29" y="435.20" stroke="none">exp-2-3</text>
<text x="285.54" y="435.20" stroke="none">exp-2-4</text>
<text x="341.79" y="435.20" stroke="none">exp-2-5</text>
<text x="400.29" y="435.20" stroke="none">exp-2-6</text>
<text x="449.79" y="435.20" stroke="none">exp-2-7</text>
<text x="492.54" y="435.20" stroke="none">exp-2-8</text>
<text x="530.79" y="435.20" stroke="none">exp-2-9</text>
<text x="179.79" y="327.20" stroke="none">exp-3-0</text>
<text x="249.54" y="327.20" stroke="none">exp-3-1</text>
<text x="301.29" y="327.20" stroke="none">exp-3-2</text>
<text x="368.79" y="327.20" stroke="none">exp-3-3</text>
<text x="431.79" y="327.20" stroke="none">exp-3-4</text>
<text x="479.04" y="327.20" stroke="none">exp-3-5</text>
<text x="515.04" y="327.20" stroke="none">exp-3-6</text>
<text x="562.29" y="327.20" stroke="none">exp-3-7</text>
<text x="578.04" y="327.20" stroke="none">exp-3-8</text>
<text x="605.04" y="327.20" stroke="none">exp-3-9</text>
<text x="150.54" y="363.20" stroke="none">exp-4-0</text>
<text x="213.54" y="363.20" stroke="none">exp-4-1</text>
<text x="240.54" y="363.20" stroke="none">exp-4-2</text>
<text x="294.54" y="363.20" stroke="none">exp-4-3</text>
<text x="341.79" y="363.20" stroke="none">exp-4-4</text>
<text x="427.29" y="363.20" stroke="none">exp-4-5</text>
<text x="474.54" y="363.20" stroke="none">exp-4-6</text>
<text x="544.29" y="363.20" stroke="none">exp-4-7</text>
<text x="607.29" y="363.20" stroke="none">exp-4-8</text>
<text x="632.04" y="363.20" stroke="none">exp-4-9</text>
<text x="161.79" y="471.20" stroke="none">exp-0-0</text>
<text x="211.29" y="471.20" stroke="none">exp-0-1</text>
<text x="272.04" y="471.20" stroke="none">exp-0-2</text>
<text x="330.54" y="471.20" stroke="none">exp-0-3</text>
<text x="395.79" y="471.20" stroke="none">exp-0-4</text>
<text x="465.54" y="471.20" stroke="none">exp-0-5</text>
<text x="508.29" y="471.20" stroke="none">exp-0-6</text>
<text x="562.29" y="471.20" stroke="none">exp-0-7</text>
<text x="609.54" y="471.20" stroke="none">exp-0-8</text>
<text x="659.04" y="471.20" stroke="none">exp-0-9</text>
<text x="148.29" y="399.20" stroke="none">exp-1-0</text>
<text x="202.29" y="399.20" stroke="none">exp-1-1</text>
<text x="265.29" y="399.20" stroke="none">exp-1-2</text>
<text x="332.79" y="399.20" stroke="none">exp-1-3</text>
<text x="395.79" y="399.20" stroke="none">exp-1-4</text>
<text x="427.29" y="399.20" stroke="none">exp-1-5</text>
<text x="472.29" y="399.20" stroke="none">exp-1-6</text>
<text x="494.79" y="399.20" stroke="none">exp-1-7</text>
<text x="535.29" y="399.20" stroke="none">exp-1-8</text>
<text x="548.79" y="399.20" stroke="none">exp-1-9</text>
<text x="130.29" y="435.20" stroke="none">exp-2-0</text>
<text x="188.79" y="435.20" stroke="none">exp-2-1</text>
<text x="211.29" y="435.20" stroke="none">exp-2-2</text>
<text x="265.29" y="435.20" stroke="none">exp-2-3</text>
<text x="328.29" y="435.20" stroke="none">exp-2-4</text>
<text x="375.54" y="435.20" stroke="none">exp-2-5</text>
<text x="382.29" y="435.20" stroke="none">exp-2-6</text>
<text x="413.79" y="435.20" stroke="none">exp-2-7</text>
<text x="485.79" y="435.20" stroke="none">exp-2-8</text>
<text x="515.04" y="435.20" stroke="none">exp-2-9</text>
<text x="157.29" y="327.20" stroke="none">exp-3-0</text>
<text x="211.29" y="327.20" stroke="none">exp-3-1</text>
<text x="267.54" y="327.20" stroke="none">exp-3-2</text>
<text x="350.79" y="327.20" stroke="none">exp-3-3</text>
<text x="416.04" y="327.20" stroke="none">exp-3-4</text>
<text x="438.54" y="327.20" stroke="none">exp-3-5</text>
<text x="465.54" y="327.20" stroke="none">exp-3-6</text>
<text x="519.54" y="327.20" stroke="none">exp-3-7</text>
<text x="584.79" y="327.20" stroke="none">exp-3-8</text>
<text x="650.04" y="327.20" stroke="none">exp-3-9</text>
<text x="134.79" y="363.20" stroke="none">exp-4-0</text>
<text x="157.29" y="363.20" stroke="none">exp-4-1</text>
<text x="193.29" y="363.20" stroke="none">exp-4-2</text>
<text x="251.79" y="363.20" stroke="none">exp-4-3</text>
<text x="314.79" y="363.20" stroke="none">exp-4-4</text>
<text x="382.29" y="363.20" stroke="none">exp-4-5</text>
<text x="425.04" y="363.20" stroke="none">exp-4-6</text>
<text x="485.79" y="363.20" stroke="none">exp-4-7</text>
<text x="521.79" y="363.20" stroke="none">exp-4-8</text>
<text x="566.79" y="363.20" stroke="none">exp-4-9</text>
<text x="155.34" y="471.20" stroke="none">exp-0-0</text>
<text x="220.59" y="471.20" stroke="none">exp-0-1</text>
<text x="283.59" y="471.20" stroke="none">exp-0-2</text>
<text x="312.84" y="471.20" stroke="none">exp-0-3</text>
<text x="371.34" y="471.20" stroke="none">exp-0-4</text>
<text x="436.59" y="471.20" stroke="none">exp-0-5</text>
<text x="481.59" y="471.20" stroke="none">exp-0-6</text>
<text x="522.09" y="471.20" stroke="none">exp-0-7</text>
<text x="567.09" y="471.20" stroke="none">exp-0-8</text>
<text x="636.84" y="471.20" stroke="none">exp-0-9</text>
<text x="148.59" y="399.20" stroke="none">exp-1-0</text>
<text x="218.34" y="399.20" stroke="none">exp-1-1</text>
<text x="274.59" y="399.20" stroke="none">exp-1-2</text>
<text x="288.09" y="399.20" stroke="none">exp-1-3</text>
<text x="333.09" y="399.20" stroke="none">exp-1-4</text>
<text x="387.09" y="399.20" stroke="none">exp-1-5</text>
<text x="429.84" y="399.20" stroke="none">exp-1-6</text>
<text x="436.59" y="399.20" stroke="none">exp-1-7</text>
<text x="486.09" y="399.20" stroke="none">exp-1-8</text>
<text x="537.84" y="399.20" stroke="none">exp-1-9</text>
<text x="166.59" y="435.20" stroke="none">exp-2-0</text>
<text x="204.84" y="435.20" stroke="none">exp-2-1</text>
<text x="227.34" y="435.20" stroke="none">exp-2-2</text>
<text x="270.09" y="435.20" stroke="none">exp-2-3</text>
<text x="326.34" y="435.20" stroke="none">exp-2-4</text>
<text x="339.84" y="435.20" stroke="none">exp-2-5</text>
<text x="378.09" y="435.20" stroke="none">exp-2-6</text>
<text x="402.84" y="435.20" stroke="none">exp-2-7</text>
<text x="470.34" y="435.20" stroke="none">exp-2-8</text>
<text x="540.09" y="435.20" stroke="none">exp-2-9</text>
<text x="177.84" y="327.20" stroke="none">exp-3-0</text>
<text x="209.34" y="327.20" stroke="none">exp-3-1</text>
<text x="231.84" y="327.20" stroke="none">exp-3-2</text>
<text x="274.59" y="327.20" stroke="none">exp-3-3</text>
<text x="312.84" y="327.20" stroke="none">exp-3-4</text>
<text x="369.09" y="327.20" stroke="none">exp-3-5</text>
<text x="418.59" y="327.20" stroke="none">exp-3-6</text>
<text x="452.34" y="327.20" stroke="none">exp-3-7</text>
<text x="488.34" y="327.20" stroke="none">exp-3-8</text>
<text x="551.34" y="327.20" stroke="none">exp-3-9</text>
<text x="162.09" y="363.20" stroke="none">exp-4-0</text>
<text x="182.34" y="363.20" stroke="none">exp-4-1</text>
<text x="252.09" y="363.20" stroke="none">exp-4-2</text>
<text x="285.84" y="363.20" stroke="none">exp-4-3</text>
<text x="339.84" y="363.20" stroke="none">exp-4-4</text>
<text x="402.84" y="363.20" stroke="none">exp-4-5</text>
<text x="432.09" y="363.20" stroke="none">exp-4-6</text>
<text x="488.34" y="363.20" stroke="none">exp-4-7</text>
<text x="558.09" y="363.20" stroke="none">exp-4-8</text>
<text x="600.84" y="363.20" stroke="none">exp-4-9</text>
<text x="159.84" y="471.20" stroke="none">exp-0-0</text>
<text x="231.84" y="471.20" stroke="none">exp-0-1</text>
<text x="290.34" y="471.20" stroke="none">exp-0-2</text>
<text x="353.34" y="471.20" stroke="none">exp-0-3</text>
<text x="389.34" y="471.20" stroke="none">exp-0-4</text>
<text x="418.59" y="471.20" stroke="none">exp-0-5</text>
<text x="486.09" y="471.20" stroke="none">exp-0-6</text>
<text x="564.84" y="471.20" stroke="none">exp-0-7</text>
<text x="616.59" y="471.20" stroke="none">exp-0-8</text>
<text x="666.09" y="471.20" stroke="none">exp-0-9</text>
<text x="157.59" y="399.20" stroke="none">exp-1-0</text>
<text x="204.84" y="399.20" stroke="none">exp-1-1</text>
<text x="265.59" y="399.20" stroke="none">exp-1-2</text>
<text x="281.34" y="399.20" stroke="none">exp-1-3</text>
<text x="312.84" y="399.20" stroke="none">exp-1-4</text>
<text x="378.09" y="399.20" stroke="none">exp-1-5</text>
<text x="416.34" y="399.20" stroke="none">exp-1-6</text>
<text x="470.34" y="399.20" stroke="none">exp-1-7</text>
<text x="524.34" y="399.20" stroke="none">exp-1-8</text>
<text x="605.34" y="399.20" stroke="none">exp-1-9</text>
<text x="166.59" y="435.20" stroke="none">exp-2-0</text>
<text x="238.59" y="435.20" stroke="none">exp-2-1</text>
<text x="299.34" y="435.20" stroke="none">exp-2-2</text>
<text x="355.59" y="435.20" stroke="none">exp-2-3</text>
<text x="411.84" y="435.20" stroke="none">exp-2-4</text>
<text x="432.09" y="435.20" stroke="none">exp-2-5</text>
<text x="468.09" y="435.20" stroke="none">exp-2-6</text>
<text x="526.59" y="435.20" stroke="none">exp-2-7</text>
<text x="594.09" y="435.20" stroke="none">exp-2-8</text>
<text x="632.34" y="435.20" stroke="none">exp-2-9</text>
<text x="128.34" y="327.20" stroke="none">exp-3-0</text>
<text x="166.59" y="327.20" stroke="none">exp-3-1</text>
<text x="191.34" y="327.20" stroke="none">exp-3-2</text>
<text x="236.34" y="327.20" stroke="none">exp-3-3</text>
<text x="285.84" y="327.20" stroke="none">exp-3-4</text>
<text x="317.34" y="327.20" stroke="none">exp-3-5</text>
<text x="351.09" y="327.20" stroke="none">exp-3-6</text>
<text x="423.09" y="327.20" stroke="none">exp-3-7</text>
<text x="497.34" y="327.20" stroke="none">exp-3-8</text>
<text x="526.59" y="327.20" stroke="none">exp-3-9</text>
<text x="155.34" y="363.20" stroke="none">exp-4-0</text>
<text x="182.34" y="363.20" stroke="none">exp-4-1</text>
<text x="225.09" y="363.20" stroke="none">exp-4-2</text>
<text x="243.09" y="363.20" stroke="none">exp-4-3</text>
<text x="263.34" y="363.20" stroke="none">exp-4-4</text>
<text x="319.59" y="363.20" stroke="none">exp-4-5</text>
<text x="360.09" y="363.20" stroke="none">exp-4-6</text>
<text x="436.59" y="363.20" stroke="none">exp-4-7</text>
<text x="486.09" y="363.20" stroke="none">exp-4-8</text>
<text x="542.34" y="363.20" stroke="none">exp-4-9</text>
</g></g>
</g>
</svg>
