<?xml version="1.0" encoding="iso-8859-1" standalone="no"?>
<!DOCTYPE svg PUBLIC "-//W3C//DTD SVG 20010904//EN" 
  "http://www.w3.org/TR/2001/REC-SVG-20010904/DTD/svg10.dtd" [ 
<!ENTITY ff "font-family:">
<!ENTITY fs "font-size:">
<!ENTITY fw "font-weight:">
<!ENTITY fst "font-style:">
<!ENTITY sw "stroke-width:">
<!ENTITY as "text-anchor:start;">
<!ENTITY am "text-anchor:middle;">
<!ENTITY ae "text-anchor:end;">
]>
<!-- Generated by ploticus (http://ploticus.sourceforge.net/)
Title: ploticus-graphic
SVG Driver by B.Traill
-->
<svg xmlns="http://www.w3.org/2000/svg" 
  viewBox="0 0 710.80 283.28"      
  xmlns:xlink="http://www.w3.org/1999/xlink"
>
<g transform="translate(-31.20,-260.16)" >                                                       

<g style="fill:#000000;stroke:#000000;&ff;Helvetica;">
<g style="&sw;0.6;&fs;10pt;&as;">
<text x="72.00" y="286.56" stroke="none">Cloudmesh Reservation</text>
</g><g style="&sw;0.6;&fs;8pt;&am;">
<text x="72.00" y="519.04" stroke="none">10</text>
<text x="72.00" y="529.04" stroke="none">Jun14</text>
</g><g style="&sw;0.5;&fs;8pt;&am;">
<path d="M72 509l0 -5.04" fill="none"/>
<text x="164.57" y="519.04" stroke="none">11</text>
<path d="M164.6 509l0 -5.04" fill="none"/>
<text x="257.14" y="519.04" stroke="none">12</text>
<path d="M257.1 509l0 -5.04" fill="none"/>
<text x="349.71" y="519.04" stroke="none">13</text>
<path d="M349.7 509l0 -5.04" fill="none"/>
<text x="442.29" y="519.04" stroke="none">14</text>
<path d="M442.3 509l0 -5.04" fill="none"/>
<text x="534.86" y="519.04" stroke="none">15</text>
<path d="M534.9 509l0 -5.04" fill="none"/>
<text x="627.43" y="519.04" stroke="none">16</text>
<path d="M627.4 509l0 -5.04" fill="none"/>
<text x="720.00" y="519.04" stroke="none">17</text>
<path d="M720 509l0 -5.04" fill="none"/>
<path d="M72 504l648 0" fill="none"/>
</g><g style="&sw;0.5;&fs;8pt;&ae;">
<text x="61.20" y="327.00" stroke="none">m04</text>
<path d="M66.96 324l5.04 0" fill="none"/>
<text x="61.20" y="363.00" stroke="none">m05</text>
<path d="M66.96 360l5.04 0" fill="none"/>
<text x="61.20" y="399.00" stroke="none">m02</text>
<path d="M66.96 396l5.04 0" fill="none"/>
<text x="61.20" y="435.00" stroke="none">m03</text>
<path d="M66.96 432l5.04 0" fill="none"/>
<text x="61.20" y="471.00" stroke="none">m01</text>
<path d="M66.96 468l5.04 0" fill="none"/>
<path d="M72 504l0 -216" fill="none"/>
<path d="M323.2 374.4l23.14 0l0 -28.8l-23.14 0z" fill="#b2b2ff" stroke="#b2b2ff"/>
<path d="M323.2 374.4l23.14 0l0 -28.8l-23.14 0l0 28.8" fill="none"/>
<path d="M346.4 374.4l7.714 0l0 -28.8l-7.714 0z" fill="#b2b2ff" stroke="#b2b2ff"/>
<path d="M346.4 374.4l7.714 0l0 -28.8l-7.714 0l0 28.8" fill="none"/>
<path d="M384.9 374.4l3.857 0l0 -28.8l-3.857 0z" fill="#b2b2ff" stroke="#b2b2ff"/>
<path d="M384.9 374.4l3.857 0l0 -28.8l-3.857 0l0 28.8" fill="none"/>
<path d="M415.8 374.4l0 0l0 -28.8l0 0z" fill="#b2b2ff" stroke="#b2b2ff"/>
<path d="M415.8 374.4l0 0l0 -28.8l0 0l0 28.8" fill="none"/>
<path d="M435.1 374.4l0 0l0 -28.8l0 0z" fill="#b2b2ff" stroke="#b2b2ff"/>
<path d="M435.1 374.4l0 0l0 -28.8l0 0l0 28.8" fill="none"/>
<path d="M138.1 482.4l19.29 0l0 -28.8l-19.29 0z" fill="#b2b2ff" stroke="#b2b2ff"/>
<path d="M138.1 482.4l19.29 0l0 -28.8l-19.29 0l0 28.8" fill="none"/>
<path d="M188.2 482.4l30.86 0l0 -28.8l-30.86 0z" fill="#b2b2ff" stroke="#b2b2ff"/>
<path d="M188.2 482.4l30.86 0l0 -28.8l-30.86 0l0 28.8" fill="none"/>
<path d="M219.1 482.4l7.714 0l0 -28.8l-7.714 0z" fill="#b2b2ff" stroke="#b2b2ff"/>
<path d="M219.1 482.4l7.714 0l0 -28.8l-7.714 0l0 28.8" fill="none"/>
<path d="M257.7 482.4l11.57 0l0 -28.8l-11.57 0z" fill="#b2b2ff" stroke="#b2b2ff"/>
<path d="M257.7 482.4l11.57 0l0 -28.8l-11.57 0l0 28.8" fill="none"/>
<path d="M276.9 482.4l23.14 0l0 -28.8l-23.14 0z" fill="#b2b2ff" stroke="#b2b2ff"/>
<path d="M276.9 482.4l23.14 0l0 -28.8l-23.14 0l0 28.8" fill="none"/>
<path d="M311.7 482.4l15.43 0l0 -28.8l-15.43 0z" fill="#b2b2ff" stroke="#b2b2ff"/>
<path d="M311.7 482.4l15.43 0l0 -28.8l-15.43 0l0 28.8" fill="none"/>
<path d="M354.1 482.4l34.71 0l0 -28.8l-34.71 0z" fill="#b2b2ff" stroke="#b2b2ff"/>
<path d="M354.1 482.4l34.71 0l0 -28.8l-34.71 0l0 28.8" fill="none"/>
<path d="M408.1 482.4l15.43 0l0 -28.8l-15.43 0z" fill="#b2b2ff" stroke="#b2b2ff"/>
<path d="M408.1 482.4l15.43 0l0 -28.8l-15.43 0l0 28.8" fill="none"/>
<path d="M446.7 482.4l15.43 0l0 -28.8l-15.43 0z" fill="#b2b2ff" stroke="#b2b2ff"/>
<path d="M446.7 482.4l15.43 0l0 -28.8l-15.43 0l0 28.8" fill="none"/>
<path d="M500.7 482.4l30.86 0l0 -28.8l-30.86 0z" fill="#b2b2ff" stroke="#b2b2ff"/>
<path d="M500.7 482.4l30.86 0l0 -28.8l-30.86 0l0 28.8" fill="none"/>
<path d="M149.7 410.4l27 0l0 -28.8l-27 0z" fill="#b2b2ff" stroke="#b2b2ff"/>
<path d="M149.7 410.4l27 0l0 -28.8l-27 0l0 28.8" fill="none"/>
<path d="M215.2 410.4l15.43 0l0 -28.8l-15.43 0z" fill="#b2b2ff" stroke="#b2b2ff"/>
<path d="M215.2 410.4l15.43 0l0 -28.8l-15.43 0l0 28.8" fill="none"/>
<path d="M257.7 410.4l23.14 0l0 -28.8l-23.14 0z" fill="#b2b2ff" stroke="#b2b2ff"/>
<path d="M257.7 410.4l23.14 0l0 -28.8l-23.14 0l0 28.8" fill="none"/>
<path d="M288.5 410.4l7.714 0l0 -28.8l-7.714 0z" fill="#b2b2ff" stroke="#b2b2ff"/>
<path d="M288.5 410.4l7.714 0l0 -28.8l-7.714 0l0 28.8" fill="none"/>
<path d="M315.5 410.4l34.71 0l0 -28.8l-34.71 0z" fill="#b2b2ff" stroke="#b2b2ff"/>
<path d="M315.5 410.4l34.71 0l0 -28.8l-34.71 0l0 28.8" fill="none"/>
<path d="M384.9 410.4l38.57 0l0 -28.8l-38.57 0z" fill="#b2b2ff" stroke="#b2b2ff"/>
<path d="M384.9 410.4l38.57 0l0 -28.8l-38.57 0l0 28.8" fill="none"/>
<path d="M450.5 410.4l30.86 0l0 -28.8l-30.86 0z" fill="#b2b2ff" stroke="#b2b2ff"/>
<path d="M450.5 410.4l30.86 0l0 -28.8l-30.86 0l0 28.8" fill="none"/>
<path d="M516.1 410.4l30.86 0l0 -28.8l-30.86 0z" fill="#b2b2ff" stroke="#b2b2ff"/>
<path d="M516.1 410.4l30.86 0l0 -28.8l-30.86 0l0 28.8" fill="none"/>
<path d="M573.9 410.4l19.29 0l0 -28.8l-19.29 0z" fill="#b2b2ff" stroke="#b2b2ff"/>
<path d="M573.9 410.4l19.29 0l0 -28.8l-19.29 0l0 28.8" fill="none"/>
<path d="M627.9 410.4l0 0l0 -28.8l0 0z" fill="#b2b2ff" stroke="#b2b2ff"/>
<path d="M627.9 410.4l0 0l0 -28.8l0 0l0 28.8" fill="none"/>
<path d="M118.8 446.4l0 0l0 -28.8l0 0z" fill="#b2b2ff" stroke="#b2b2ff"/>
<path d="M118.8 446.4l0 0l0 -28.8l0 0l0 28.8" fill="none"/>
<path d="M118.8 446.4l30.86 0l0 -28.8l-30.86 0z" fill="#b2b2ff" stroke="#b2b2ff"/>
<path d="M118.8 446.4l30.86 0l0 -28.8l-30.86 0l0 28.8" fill="none"/>
<path d="M161.2 446.4l30.86 0l0 -28.8l-30.86 0z" fill="#b2b2ff" stroke="#b2b2ff"/>
<path d="M161.2 446.4l30.86 0l0 -28.8l-30.86 0l0 28.8" fill="none"/>
<path d="M215.2 446.4l23.14 0l0 -28.8l-23.14 0z" fill="#b2b2ff" stroke="#b2b2ff"/>
<path d="M215.2 446.4l23.14 0l0 -28.8l-23.14 0l0 28.8" fill="none"/>
<path d="M242.2 446.4l34.71 0l0 -28.8l-34.71 0z" fill="#b2b2ff" stroke="#b2b2ff"/>
<path d="M242.2 446.4l34.71 0l0 -28.8l-34.71 0l0 28.8" fill="none"/>
<path d="M311.7 446.4l3.857 0l0 -28.8l-3.857 0z" fill="#b2b2ff" stroke="#b2b2ff"/>
<path d="M311.7 446.4l3.857 0l0 -28.8l-3.857 0l0 28.8" fill="none"/>
<path d="M334.8 446.4l30.86 0l0 -28.8l-30.86 0z" fill="#b2b2ff" stroke="#b2b2ff"/>
<path d="M334.8 446.4l30.86 0l0 -28.8l-30.86 0l0 28.8" fill="none"/>
<path d="M381.1 446.4l19.29 0l0 -28.8l-19.29 0z" fill="#b2b2ff" stroke="#b2b2ff"/>
<path d="M381.1 446.4l19.29 0l0 -28.8l-19.29 0l0 28.8" fill="none"/>
<path d="M400.4 446.4l34.71 0l0 -28.8l-34.71 0z" fill="#b2b2ff" stroke="#b2b2ff"/>
<path d="M400.4 446.4l34.71 0l0 -28.8l-34.71 0l0 28.8" fill="none"/>
<path d="M462.1 446.4l11.57 0l0 -28.8l-11.57 0z" fill="#b2b2ff" stroke="#b2b2ff"/>
<path d="M462.1 446.4l11.57 0l0 -28.8l-11.57 0l0 28.8" fill="none"/>
<path d="M157.4 338.4l15.43 0l0 -28.8l-15.43 0z" fill="#b2b2ff" stroke="#b2b2ff"/>
<path d="M157.4 338.4l15.43 0l0 -28.8l-15.43 0l0 28.8" fill="none"/>
<path d="M176.7 338.4l34.71 0l0 -28.8l-34.71 0z" fill="#b2b2ff" stroke="#b2b2ff"/>
<path d="M176.7 338.4l34.71 0l0 -28.8l-34.71 0l0 28.8" fill="none"/>
<path d="M222.9 338.4l7.714 0l0 -28.8l-7.714 0z" fill="#b2b2ff" stroke="#b2b2ff"/>
<path d="M222.9 338.4l7.714 0l0 -28.8l-7.714 0l0 28.8" fill="none"/>
<path d="M269.2 338.4l34.71 0l0 -28.8l-34.71 0z" fill="#b2b2ff" stroke="#b2b2ff"/>
<path d="M269.2 338.4l34.71 0l0 -28.8l-34.71 0l0 28.8" fill="none"/>
<path d="M323.2 338.4l27 0l0 -28.8l-27 0z" fill="#b2b2ff" stroke="#b2b2ff"/>
<path d="M323.2 338.4l27 0l0 -28.8l-27 0l0 28.8" fill="none"/>
<path d="M361.8 338.4l38.57 0l0 -28.8l-38.57 0z" fill="#b2b2ff" stroke="#b2b2ff"/>
<path d="M361.8 338.4l38.57 0l0 -28.8l-38.57 0l0 28.8" fill="none"/>
<path d="M415.8 338.4l19.29 0l0 -28.8l-19.29 0z" fill="#b2b2ff" stroke="#b2b2ff"/>
<path d="M415.8 338.4l19.29 0l0 -28.8l-19.29 0l0 28.8" fill="none"/>
<path d="M454.4 338.4l0 0l0 -28.8l0 0z" fill="#b2b2ff" stroke="#b2b2ff"/>
<path d="M454.4 338.4l0 0l0 -28.8l0 0l0 28.8" fill="none"/>
<path d="M458.2 338.4l23.14 0l0 -28.8l-23.14 0z" fill="#b2b2ff" stroke="#b2b2ff"/>
<path d="M458.2 338.4l23.14 0l0 -28.8l-23.14 0l0 28.8" fill="none"/>
<path d="M489.1 338.4l34.71 0l0 -28.8l-34.71 0z" fill="#b2b2ff" stroke="#b2b2ff"/>
<path d="M489.1 338.4l34.71 0l0 -28.8l-34.71 0l0 28.8" fill="none"/>
<path d="M134.2 374.4l30.86 0l0 -28.8l-30.86 0z" fill="#b2b2ff" stroke="#b2b2ff"/>
<path d="M134.2 374.4l30.86 0l0 -28.8l-30.86 0l0 28.8" fill="none"/>
<path d="M199.8 374.4l15.43 0l0 -28.8l-15.43 0z" fill="#b2b2ff" stroke="#b2b2ff"/>
<path d="M199.8 374.4l15.43 0l0 -28.8l-15.43 0l0 28.8" fill="none"/>
<path d="M238.4 374.4l0 0l0 -28.8l0 0z" fill="#b2b2ff" stroke="#b2b2ff"/>
<path d="M238.4 374.4l0 0l0 -28.8l0 0l0 28.8" fill="none"/>
<path d="M238.4 374.4l27 0l0 -28.8l-27 0z" fill="#b2b2ff" stroke="#b2b2ff"/>
<path d="M238.4 374.4l27 0l0 -28.8l-27 0l0 28.8" fill="none"/>
<path d="M284.7 374.4l23.14 0l0 -28.8l-23.14 0z" fill="#b2b2ff" stroke="#b2b2ff"/>
<path d="M284.7 374.4l23.14 0l0 -28.8l-23.14 0l0 28.8" fill="none"/>
</g><g style="&sw;0.5;&fs;6pt;&am;">
<text x="336.24" y="363.20" stroke="none">exp-4-5</text>
<text x="351.67" y="363.20" stroke="none">exp-4-6</text>
<text x="388.31" y="363.20" stroke="none">exp-4-7</text>
<text x="417.24" y="363.20" stroke="none">exp-4-8</text>
<text x="436.53" y="363.20" stroke="none">exp-4-9</text>
<text x="149.17" y="471.20" stroke="none">exp-0-0</text>
<text x="205.10" y="471.20" stroke="none">exp-0-1</text>
<text x="224.38" y="471.20" stroke="none">exp-0-2</text>
<text x="264.88" y="471.20" stroke="none">exp-0-3</text>
<text x="289.95" y="471.20" stroke="none">exp-0-4</text>
<text x="320.81" y="471.20" stroke="none">exp-0-5</text>
<text x="372.88" y="471.20" stroke="none">exp-0-6</text>
<text x="417.24" y="471.20" stroke="none">exp-0-7</text>
<text x="455.81" y="471.20" stroke="none">exp-0-8</text>
<text x="517.53" y="471.20" stroke="none">exp-0-9</text>
<text x="164.60" y="399.20" stroke="none">exp-1-0</text>
<text x="224.38" y="399.20" stroke="none">exp-1-1</text>
<text x="270.67" y="399.20" stroke="none">exp-1-2</text>
<text x="293.81" y="399.20" stroke="none">exp-1-3</text>
<text x="334.31" y="399.20" stroke="none">exp-1-4</text>
<text x="405.67" y="399.20" stroke="none">exp-1-5</text>
<text x="467.38" y="399.20" stroke="none">exp-1-6</text>
<text x="532.95" y="399.20" stroke="none">exp-1-7</text>
<text x="585.03" y="399.20" stroke="none">exp-1-8</text>
<text x="629.38" y="399.20" stroke="none">exp-1-9</text>
<text x="120.24" y="435.20" stroke="none">exp-2-0</text>
<text x="135.67" y="435.20" stroke="none">exp-2-1</text>
<text x="178.10" y="435.20" stroke="none">exp-2-2</text>
<text x="228.24" y="435.20" stroke="none">exp-2-3</text>
<text x="261.03" y="435.20" stroke="none">exp-2-4</text>
<text x="315.03" y="435.20" stroke="none">exp-2-5</text>
<text x="351.67" y="435.20" stroke="none">exp-2-6</text>
<text x="392.17" y="435.20" stroke="none">exp-2-7</text>
<text x="419.17" y="435.20" stroke="none">exp-2-8</text>
<text x="469.31" y="435.20" stroke="none">exp-2-9</text>
<text x="166.53" y="327.20" stroke="none">exp-3-0</text>
<text x="195.45" y="327.20" stroke="none">exp-3-1</text>
<text x="228.24" y="327.20" stroke="none">exp-3-2</text>
<text x="288.03" y="327.20" stroke="none">exp-3-3</text>
<text x="338.17" y="327.20" stroke="none">exp-3-4</text>
<text x="382.53" y="327.20" stroke="none">exp-3-5</text>
<text x="426.88" y="327.20" stroke="none">exp-3-6</text>
<text x="455.81" y="327.20" stroke="none">exp-3-7</text>
<text x="471.24" y="327.20" stroke="none">exp-3-8</text>
<text x="507.88" y="327.20" stroke="none">exp-3-9</text>
<text x="151.10" y="363.20" stroke="none">exp-4-0</text>
<text x="208.95" y="363.20" stroke="none">exp-4-1</text>
<text x="239.81" y="363.20" stroke="none">exp-4-2</text>
<text x="253.31" y="363.20" stroke="none">exp-4-3</text>
<text x="297.67" y="363.20" stroke="none">exp-4-4</text>
</g></g>
</g>
</svg>
