<?xml version="1.0" encoding="iso-8859-1" standalone="no"?>
<!DOCTYPE svg PUBLIC "-//W3C//DTD SVG 20010904//EN" 
  "http://www.w3.org/TR/2001/REC-SVG-20010904/DTD/svg10.dtd" [ 
<!ENTITY ff "font-family:">
<!ENTITY fs "font-size:">
<!ENTITY fw "font-weight:">
<!ENTITY fst "font-style:">
<!ENTITY sw "stroke-width:">
<!ENTITY as "text-anchor:start;">
<!ENTITY am "text-anchor:middle;">
<!ENTITY ae "text-anchor:end;">
]>
<!-- Generated by ploticus (http://ploticus.sourceforge.net/)
Title: ploticus-graphic
SVG Driver by B.Traill
-->
<svg xmlns="http://www.w3.org/2000/svg" 
  viewBox="0 0 708.80 283.28"      
  xmlns:xlink="http://www.w3.org/1999/xlink"
>
<g transform="translate(-31.20,-260.16)" >                                                       

<g style="fill:#000000;stroke:#000000;&ff;Helvetica;">
<g style="&sw;0.6;&fs;10pt;&as;">
<text x="72.00" y="286.56" stroke="none">Cloudmesh Reservation</text>
</g><g style="&sw;0.6;&fs;8pt;&am;">
<text x="72.00" y="519.04" stroke="none">2</text>
<text x="72.00" y="529.04" stroke="none">Jul14</text>
</g><g style="&sw;0.5;&fs;8pt;&am;">
<path d="M72 509l0 -5.04" fill="none"/>
<text x="180.00" y="519.04" stroke="none">3</text>
<path d="M180 509l0 -5.04" fill="none"/>
<text x="288.00" y="519.04" stroke="none">4</text>
<path d="M288 509l0 -5.04" fill="none"/>
<text x="396.00" y="519.04" stroke="none">5</text>
<path d="M396 509l0 -5.04" fill="none"/>
<text x="504.00" y="519.04" stroke="none">6</text>
<path d="M504 509l0 -5.04" fill="none"/>
<text x="612.00" y="519.04" stroke="none">7</text>
<path d="M612 509l0 -5.04" fill="none"/>
<text x="720.00" y="519.04" stroke="none">8</text>
<path d="M720 509l0 -5.04" fill="none"/>
<path d="M72 504l648 0" fill="none"/>
</g><g style="&sw;0.5;&fs;8pt;&ae;">
<text x="61.20" y="327.00" stroke="none">m04</text>
<path d="M66.96 324l5.04 0" fill="none"/>
<text x="61.20" y="363.00" stroke="none">m05</text>
<path d="M66.96 360l5.04 0" fill="none"/>
<text x="61.20" y="399.00" stroke="none">m02</text>
<path d="M66.96 396l5.04 0" fill="none"/>
<text x="61.20" y="435.00" stroke="none">m03</text>
<path d="M66.96 432l5.04 0" fill="none"/>
<text x="61.20" y="471.00" stroke="none">m01</text>
<path d="M66.96 468l5.04 0" fill="none"/>
<path d="M72 504l0 -216" fill="none"/>
<path d="M124.6 482.4l22.5 0l0 -28.8l-22.5 0z" fill="#b2b2ff" stroke="#b2b2ff"/>
<path d="M124.6 482.4l22.5 0l0 -28.8l-22.5 0l0 28.8" fill="none"/>
<path d="M165.1 482.4l4.5 0l0 -28.8l-4.5 0z" fill="#b2b2ff" stroke="#b2b2ff"/>
<path d="M165.1 482.4l4.5 0l0 -28.8l-4.5 0l0 28.8" fill="none"/>
<path d="M192.1 482.4l9 0l0 -28.8l-9 0z" fill="#b2b2ff" stroke="#b2b2ff"/>
<path d="M192.1 482.4l9 0l0 -28.8l-9 0l0 28.8" fill="none"/>
<path d="M237.2 482.4l27 0l0 -28.8l-27 0z" fill="#b2b2ff" stroke="#b2b2ff"/>
<path d="M237.2 482.4l27 0l0 -28.8l-27 0l0 28.8" fill="none"/>
<path d="M268.6 482.4l4.5 0l0 -28.8l-4.5 0z" fill="#b2b2ff" stroke="#b2b2ff"/>
<path d="M268.6 482.4l4.5 0l0 -28.8l-4.5 0l0 28.8" fill="none"/>
<path d="M300.1 482.4l13.5 0l0 -28.8l-13.5 0z" fill="#b2b2ff" stroke="#b2b2ff"/>
<path d="M300.1 482.4l13.5 0l0 -28.8l-13.5 0l0 28.8" fill="none"/>
<path d="M322.6 482.4l13.5 0l0 -28.8l-13.5 0z" fill="#b2b2ff" stroke="#b2b2ff"/>
<path d="M322.6 482.4l13.5 0l0 -28.8l-13.5 0l0 28.8" fill="none"/>
<path d="M349.6 482.4l40.5 0l0 -28.8l-40.5 0z" fill="#b2b2ff" stroke="#b2b2ff"/>
<path d="M349.6 482.4l40.5 0l0 -28.8l-40.5 0l0 28.8" fill="none"/>
<path d="M435.1 482.4l22.5 0l0 -28.8l-22.5 0z" fill="#b2b2ff" stroke="#b2b2ff"/>
<path d="M435.1 482.4l22.5 0l0 -28.8l-22.5 0l0 28.8" fill="none"/>
<path d="M466.7 482.4l40.5 0l0 -28.8l-40.5 0z" fill="#b2b2ff" stroke="#b2b2ff"/>
<path d="M466.7 482.4l40.5 0l0 -28.8l-40.5 0l0 28.8" fill="none"/>
<path d="M160.6 410.4l0 0l0 -28.8l0 0z" fill="#b2b2ff" stroke="#b2b2ff"/>
<path d="M160.6 410.4l0 0l0 -28.8l0 0l0 28.8" fill="none"/>
<path d="M165.1 410.4l31.5 0l0 -28.8l-31.5 0z" fill="#b2b2ff" stroke="#b2b2ff"/>
<path d="M165.1 410.4l31.5 0l0 -28.8l-31.5 0l0 28.8" fill="none"/>
<path d="M219.1 410.4l36 0l0 -28.8l-36 0z" fill="#b2b2ff" stroke="#b2b2ff"/>
<path d="M219.1 410.4l36 0l0 -28.8l-36 0l0 28.8" fill="none"/>
<path d="M268.6 410.4l9 0l0 -28.8l-9 0z" fill="#b2b2ff" stroke="#b2b2ff"/>
<path d="M268.6 410.4l9 0l0 -28.8l-9 0l0 28.8" fill="none"/>
<path d="M295.6 410.4l40.5 0l0 -28.8l-40.5 0z" fill="#b2b2ff" stroke="#b2b2ff"/>
<path d="M295.6 410.4l40.5 0l0 -28.8l-40.5 0l0 28.8" fill="none"/>
<path d="M372.2 410.4l18 0l0 -28.8l-18 0z" fill="#b2b2ff" stroke="#b2b2ff"/>
<path d="M372.2 410.4l18 0l0 -28.8l-18 0l0 28.8" fill="none"/>
<path d="M421.6 410.4l40.5 0l0 -28.8l-40.5 0z" fill="#b2b2ff" stroke="#b2b2ff"/>
<path d="M421.6 410.4l40.5 0l0 -28.8l-40.5 0l0 28.8" fill="none"/>
<path d="M502.6 410.4l31.5 0l0 -28.8l-31.5 0z" fill="#b2b2ff" stroke="#b2b2ff"/>
<path d="M502.6 410.4l31.5 0l0 -28.8l-31.5 0l0 28.8" fill="none"/>
<path d="M538.6 410.4l36 0l0 -28.8l-36 0z" fill="#b2b2ff" stroke="#b2b2ff"/>
<path d="M538.6 410.4l36 0l0 -28.8l-36 0l0 28.8" fill="none"/>
<path d="M588.2 410.4l18 0l0 -28.8l-18 0z" fill="#b2b2ff" stroke="#b2b2ff"/>
<path d="M588.2 410.4l18 0l0 -28.8l-18 0l0 28.8" fill="none"/>
<path d="M133.6 446.4l13.5 0l0 -28.8l-13.5 0z" fill="#b2b2ff" stroke="#b2b2ff"/>
<path d="M133.6 446.4l13.5 0l0 -28.8l-13.5 0l0 28.8" fill="none"/>
<path d="M174.1 446.4l40.5 0l0 -28.8l-40.5 0z" fill="#b2b2ff" stroke="#b2b2ff"/>
<path d="M174.1 446.4l40.5 0l0 -28.8l-40.5 0l0 28.8" fill="none"/>
<path d="M241.6 446.4l45 0l0 -28.8l-45 0z" fill="#b2b2ff" stroke="#b2b2ff"/>
<path d="M241.6 446.4l45 0l0 -28.8l-45 0l0 28.8" fill="none"/>
<path d="M313.6 446.4l31.5 0l0 -28.8l-31.5 0z" fill="#b2b2ff" stroke="#b2b2ff"/>
<path d="M313.6 446.4l31.5 0l0 -28.8l-31.5 0l0 28.8" fill="none"/>
<path d="M358.7 446.4l27 0l0 -28.8l-27 0z" fill="#b2b2ff" stroke="#b2b2ff"/>
<path d="M358.7 446.4l27 0l0 -28.8l-27 0l0 28.8" fill="none"/>
<path d="M390.1 446.4l9 0l0 -28.8l-9 0z" fill="#b2b2ff" stroke="#b2b2ff"/>
<path d="M390.1 446.4l9 0l0 -28.8l-9 0l0 28.8" fill="none"/>
<path d="M421.6 446.4l31.5 0l0 -28.8l-31.5 0z" fill="#b2b2ff" stroke="#b2b2ff"/>
<path d="M421.6 446.4l31.5 0l0 -28.8l-31.5 0l0 28.8" fill="none"/>
<path d="M471.1 446.4l36 0l0 -28.8l-36 0z" fill="#b2b2ff" stroke="#b2b2ff"/>
<path d="M471.1 446.4l36 0l0 -28.8l-36 0l0 28.8" fill="none"/>
<path d="M547.7 446.4l0 0l0 -28.8l0 0z" fill="#b2b2ff" stroke="#b2b2ff"/>
<path d="M547.7 446.4l0 0l0 -28.8l0 0l0 28.8" fill="none"/>
<path d="M570.1 446.4l40.5 0l0 -28.8l-40.5 0z" fill="#b2b2ff" stroke="#b2b2ff"/>
<path d="M570.1 446.4l40.5 0l0 -28.8l-40.5 0l0 28.8" fill="none"/>
<path d="M156.2 338.4l0 0l0 -28.8l0 0z" fill="#b2b2ff" stroke="#b2b2ff"/>
<path d="M156.2 338.4l0 0l0 -28.8l0 0l0 28.8" fill="none"/>
<path d="M156.2 338.4l0 0l0 -28.8l0 0z" fill="#b2b2ff" stroke="#b2b2ff"/>
<path d="M156.2 338.4l0 0l0 -28.8l0 0l0 28.8" fill="none"/>
<path d="M192.1 338.4l9 0l0 -28.8l-9 0z" fill="#b2b2ff" stroke="#b2b2ff"/>
<path d="M192.1 338.4l9 0l0 -28.8l-9 0l0 28.8" fill="none"/>
<path d="M210.2 338.4l18 0l0 -28.8l-18 0z" fill="#b2b2ff" stroke="#b2b2ff"/>
<path d="M210.2 338.4l18 0l0 -28.8l-18 0l0 28.8" fill="none"/>
<path d="M250.7 338.4l31.5 0l0 -28.8l-31.5 0z" fill="#b2b2ff" stroke="#b2b2ff"/>
<path d="M250.7 338.4l31.5 0l0 -28.8l-31.5 0l0 28.8" fill="none"/>
<path d="M300.1 338.4l9 0l0 -28.8l-9 0z" fill="#b2b2ff" stroke="#b2b2ff"/>
<path d="M300.1 338.4l9 0l0 -28.8l-9 0l0 28.8" fill="none"/>
<path d="M313.6 338.4l27 0l0 -28.8l-27 0z" fill="#b2b2ff" stroke="#b2b2ff"/>
<path d="M313.6 338.4l27 0l0 -28.8l-27 0l0 28.8" fill="none"/>
<path d="M363.1 338.4l45 0l0 -28.8l-45 0z" fill="#b2b2ff" stroke="#b2b2ff"/>
<path d="M363.1 338.4l45 0l0 -28.8l-45 0l0 28.8" fill="none"/>
<path d="M417.1 338.4l18 0l0 -28.8l-18 0z" fill="#b2b2ff" stroke="#b2b2ff"/>
<path d="M417.1 338.4l18 0l0 -28.8l-18 0l0 28.8" fill="none"/>
<path d="M471.1 338.4l31.5 0l0 -28.8l-31.5 0z" fill="#b2b2ff" stroke="#b2b2ff"/>
<path d="M471.1 338.4l31.5 0l0 -28.8l-31.5 0l0 28.8" fill="none"/>
<path d="M165.1 374.4l40.5 0l0 -28.8l-40.5 0z" fill="#b2b2ff" stroke="#b2b2ff"/>
<path d="M165.1 374.4l40.5 0l0 -28.8l-40.5 0l0 28.8" fill="none"/>
<path d="M241.6 374.4l45 0l0 -28.8l-45 0z" fill="#b2b2ff" stroke="#b2b2ff"/>
<path d="M241.6 374.4l45 0l0 -28.8l-45 0l0 28.8" fill="none"/>
<path d="M313.6 374.4l36 0l0 -28.8l-36 0z" fill="#b2b2ff" stroke="#b2b2ff"/>
<path d="M313.6 374.4l36 0l0 -28.8l-36 0l0 28.8" fill="none"/>
<path d="M372.2 374.4l0 0l0 -28.8l0 0z" fill="#b2b2ff" stroke="#b2b2ff"/>
<path d="M372.2 374.4l0 0l0 -28.8l0 0l0 28.8" fill="none"/>
<path d="M394.6 374.4l18 0l0 -28.8l-18 0z" fill="#b2b2ff" stroke="#b2b2ff"/>
<path d="M394.6 374.4l18 0l0 -28.8l-18 0l0 28.8" fill="none"/>
<path d="M444.1 374.4l9 0l0 -28.8l-9 0z" fill="#b2b2ff" stroke="#b2b2ff"/>
<path d="M444.1 374.4l9 0l0 -28.8l-9 0l0 28.8" fill="none"/>
<path d="M498.1 374.4l4.5 0l0 -28.8l-4.5 0z" fill="#b2b2ff" stroke="#b2b2ff"/>
<path d="M498.1 374.4l4.5 0l0 -28.8l-4.5 0l0 28.8" fill="none"/>
<path d="M547.7 374.4l4.5 0l0 -28.8l-4.5 0z" fill="#b2b2ff" stroke="#b2b2ff"/>
<path d="M547.7 374.4l4.5 0l0 -28.8l-4.5 0l0 28.8" fill="none"/>
<path d="M556.6 374.4l40.5 0l0 -28.8l-40.5 0z" fill="#b2b2ff" stroke="#b2b2ff"/>
<path d="M556.6 374.4l40.5 0l0 -28.8l-40.5 0l0 28.8" fill="none"/>
<path d="M633.1 374.4l45 0l0 -28.8l-45 0z" fill="#b2b2ff" stroke="#b2b2ff"/>
<path d="M633.1 374.4l45 0l0 -28.8l-45 0l0 28.8" fill="none"/>
</g><g style="&sw;0.5;&fs;6pt;&am;">
<text x="137.34" y="471.20" stroke="none">exp-0-0</text>
<text x="168.84" y="471.20" stroke="none">exp-0-1</text>
<text x="198.09" y="471.20" stroke="none">exp-0-2</text>
<text x="252.09" y="471.20" stroke="none">exp-0-3</text>
<text x="272.34" y="471.20" stroke="none">exp-0-4</text>
<text x="308.34" y="471.20" stroke="none">exp-0-5</text>
<text x="330.84" y="471.20" stroke="none">exp-0-6</text>
<text x="371.34" y="471.20" stroke="none">exp-0-7</text>
<text x="447.84" y="471.20" stroke="none">exp-0-8</text>
<text x="488.34" y="471.20" stroke="none">exp-0-9</text>
<text x="162.09" y="399.20" stroke="none">exp-1-0</text>
<text x="182.34" y="399.20" stroke="none">exp-1-1</text>
<text x="238.59" y="399.20" stroke="none">exp-1-2</text>
<text x="274.59" y="399.20" stroke="none">exp-1-3</text>
<text x="317.34" y="399.20" stroke="none">exp-1-4</text>
<text x="382.59" y="399.20" stroke="none">exp-1-5</text>
<text x="443.34" y="399.20" stroke="none">exp-1-6</text>
<text x="519.84" y="399.20" stroke="none">exp-1-7</text>
<text x="558.09" y="399.20" stroke="none">exp-1-8</text>
<text x="598.59" y="399.20" stroke="none">exp-1-9</text>
<text x="141.84" y="435.20" stroke="none">exp-2-0</text>
<text x="195.84" y="435.20" stroke="none">exp-2-1</text>
<text x="265.59" y="435.20" stroke="none">exp-2-2</text>
<text x="330.84" y="435.20" stroke="none">exp-2-3</text>
<text x="373.59" y="435.20" stroke="none">exp-2-4</text>
<text x="396.09" y="435.20" stroke="none">exp-2-5</text>
<text x="438.84" y="435.20" stroke="none">exp-2-6</text>
<text x="490.59" y="435.20" stroke="none">exp-2-7</text>
<text x="549.09" y="435.20" stroke="none">exp-2-8</text>
<text x="591.84" y="435.20" stroke="none">exp-2-9</text>
<text x="157.59" y="327.20" stroke="none">exp-3-0</text>
<text x="157.59" y="327.20" stroke="none">exp-3-1</text>
<text x="198.09" y="327.20" stroke="none">exp-3-2</text>
<text x="220.59" y="327.20" stroke="none">exp-3-3</text>
<text x="267.84" y="327.20" stroke="none">exp-3-4</text>
<text x="306.09" y="327.20" stroke="none">exp-3-5</text>
<text x="328.59" y="327.20" stroke="none">exp-3-6</text>
<text x="387.09" y="327.20" stroke="none">exp-3-7</text>
<text x="427.59" y="327.20" stroke="none">exp-3-8</text>
<text x="488.34" y="327.20" stroke="none">exp-3-9</text>
<text x="186.84" y="363.20" stroke="none">exp-4-0</text>
<text x="265.59" y="363.20" stroke="none">exp-4-1</text>
<text x="333.09" y="363.20" stroke="none">exp-4-2</text>
<text x="373.59" y="363.20" stroke="none">exp-4-3</text>
<text x="405.09" y="363.20" stroke="none">exp-4-4</text>
<text x="450.09" y="363.20" stroke="none">exp-4-5</text>
<text x="501.84" y="363.20" stroke="none">exp-4-6</text>
<text x="551.34" y="363.20" stroke="none">exp-4-7</text>
<text x="578.34" y="363.20" stroke="none">exp-4-8</text>
<text x="657.09" y="363.20" stroke="none">exp-4-9</text>
</g></g>
</g>
</svg>
