<?xml version="1.0" encoding="iso-8859-1" standalone="no"?>
<!DOCTYPE svg PUBLIC "-//W3C//DTD SVG 20010904//EN" 
  "http://www.w3.org/TR/2001/REC-SVG-20010904/DTD/svg10.dtd" [ 
<!ENTITY ff "font-family:">
<!ENTITY fs "font-size:">
<!ENTITY fw "font-weight:">
<!ENTITY fst "font-style:">
<!ENTITY sw "stroke-width:">
<!ENTITY as "text-anchor:start;">
<!ENTITY am "text-anchor:middle;">
<!ENTITY ae "text-anchor:end;">
]>
<!-- Generated by ploticus (http://ploticus.sourceforge.net/)
Title: ploticus-graphic
SVG Driver by B.Traill
-->
<svg xmlns="http://www.w3.org/2000/svg" 
  viewBox="0 0 710.80 283.28"      
  xmlns:xlink="http://www.w3.org/1999/xlink"
>
<g transform="translate(-31.20,-260.16)" >                                                       

<g style="fill:#000000;stroke:#000000;&ff;Helvetica;">
<g style="&sw;0.6;&fs;10pt;&as;">
<text x="72.00" y="286.56" stroke="none">Cloudmesh Reservation</text>
</g><g style="&sw;0.6;&fs;8pt;&am;">
<text x="72.00" y="519.04" stroke="none">17</text>
<text x="72.00" y="529.04" stroke="none">Jun14</text>
</g><g style="&sw;0.5;&fs;8pt;&am;">
<path d="M72 509l0 -5.04" fill="none"/>
<text x="180.00" y="519.04" stroke="none">18</text>
<path d="M180 509l0 -5.04" fill="none"/>
<text x="288.00" y="519.04" stroke="none">19</text>
<path d="M288 509l0 -5.04" fill="none"/>
<text x="396.00" y="519.04" stroke="none">20</text>
<path d="M396 509l0 -5.04" fill="none"/>
<text x="504.00" y="519.04" stroke="none">21</text>
<path d="M504 509l0 -5.04" fill="none"/>
<text x="612.00" y="519.04" stroke="none">22</text>
<path d="M612 509l0 -5.04" fill="none"/>
<text x="720.00" y="519.04" stroke="none">23</text>
<path d="M720 509l0 -5.04" fill="none"/>
<path d="M72 504l648 0" fill="none"/>
</g><g style="&sw;0.5;&fs;8pt;&ae;">
<text x="61.20" y="327.00" stroke="none">m04</text>
<path d="M66.96 324l5.04 0" fill="none"/>
<text x="61.20" y="363.00" stroke="none">m05</text>
<path d="M66.96 360l5.04 0" fill="none"/>
<text x="61.20" y="399.00" stroke="none">m02</text>
<path d="M66.96 396l5.04 0" fill="none"/>
<text x="61.20" y="435.00" stroke="none">m03</text>
<path d="M66.96 432l5.04 0" fill="none"/>
<text x="61.20" y="471.00" stroke="none">m01</text>
<path d="M66.96 468l5.04 0" fill="none"/>
<path d="M72 504l0 -216" fill="none"/>
<path d="M132.6 482.4l22.5 0l0 -28.8l-22.5 0z" fill="#b2b2ff" stroke="#b2b2ff"/>
<path d="M132.6 482.4l22.5 0l0 -28.8l-22.5 0l0 28.8" fill="none"/>
<path d="M182.1 482.4l45 0l0 -28.8l-45 0z" fill="#b2b2ff" stroke="#b2b2ff"/>
<path d="M182.1 482.4l45 0l0 -28.8l-45 0l0 28.8" fill="none"/>
<path d="M227.1 482.4l18 0l0 -28.8l-18 0z" fill="#b2b2ff" stroke="#b2b2ff"/>
<path d="M227.1 482.4l18 0l0 -28.8l-18 0l0 28.8" fill="none"/>
<path d="M281.1 482.4l36 0l0 -28.8l-36 0z" fill="#b2b2ff" stroke="#b2b2ff"/>
<path d="M281.1 482.4l36 0l0 -28.8l-36 0l0 28.8" fill="none"/>
<path d="M357.6 482.4l27 0l0 -28.8l-27 0z" fill="#b2b2ff" stroke="#b2b2ff"/>
<path d="M357.6 482.4l27 0l0 -28.8l-27 0l0 28.8" fill="none"/>
<path d="M402.6 482.4l45 0l0 -28.8l-45 0z" fill="#b2b2ff" stroke="#b2b2ff"/>
<path d="M402.6 482.4l45 0l0 -28.8l-45 0l0 28.8" fill="none"/>
<path d="M474.6 482.4l31.5 0l0 -28.8l-31.5 0z" fill="#b2b2ff" stroke="#b2b2ff"/>
<path d="M474.6 482.4l31.5 0l0 -28.8l-31.5 0l0 28.8" fill="none"/>
<path d="M515.1 482.4l9 0l0 -28.8l-9 0z" fill="#b2b2ff" stroke="#b2b2ff"/>
<path d="M515.1 482.4l9 0l0 -28.8l-9 0l0 28.8" fill="none"/>
<path d="M564.6 482.4l18 0l0 -28.8l-18 0z" fill="#b2b2ff" stroke="#b2b2ff"/>
<path d="M564.6 482.4l18 0l0 -28.8l-18 0l0 28.8" fill="none"/>
<path d="M609.6 482.4l45 0l0 -28.8l-45 0z" fill="#b2b2ff" stroke="#b2b2ff"/>
<path d="M609.6 482.4l45 0l0 -28.8l-45 0l0 28.8" fill="none"/>
<path d="M155.1 410.4l18 0l0 -28.8l-18 0z" fill="#b2b2ff" stroke="#b2b2ff"/>
<path d="M155.1 410.4l18 0l0 -28.8l-18 0l0 28.8" fill="none"/>
<path d="M182.1 410.4l45 0l0 -28.8l-45 0z" fill="#b2b2ff" stroke="#b2b2ff"/>
<path d="M182.1 410.4l45 0l0 -28.8l-45 0l0 28.8" fill="none"/>
<path d="M258.6 410.4l22.5 0l0 -28.8l-22.5 0z" fill="#b2b2ff" stroke="#b2b2ff"/>
<path d="M258.6 410.4l22.5 0l0 -28.8l-22.5 0l0 28.8" fill="none"/>
<path d="M290.1 410.4l0 0l0 -28.8l0 0z" fill="#b2b2ff" stroke="#b2b2ff"/>
<path d="M290.1 410.4l0 0l0 -28.8l0 0l0 28.8" fill="none"/>
<path d="M321.6 410.4l36 0l0 -28.8l-36 0z" fill="#b2b2ff" stroke="#b2b2ff"/>
<path d="M321.6 410.4l36 0l0 -28.8l-36 0l0 28.8" fill="none"/>
<path d="M393.6 410.4l22.5 0l0 -28.8l-22.5 0z" fill="#b2b2ff" stroke="#b2b2ff"/>
<path d="M393.6 410.4l22.5 0l0 -28.8l-22.5 0l0 28.8" fill="none"/>
<path d="M425.1 410.4l31.5 0l0 -28.8l-31.5 0z" fill="#b2b2ff" stroke="#b2b2ff"/>
<path d="M425.1 410.4l31.5 0l0 -28.8l-31.5 0l0 28.8" fill="none"/>
<path d="M474.6 410.4l22.5 0l0 -28.8l-22.5 0z" fill="#b2b2ff" stroke="#b2b2ff"/>
<path d="M474.6 410.4l22.5 0l0 -28.8l-22.5 0l0 28.8" fill="none"/>
<path d="M515.1 410.4l22.5 0l0 -28.8l-22.5 0z" fill="#b2b2ff" stroke="#b2b2ff"/>
<path d="M515.1 410.4l22.5 0l0 -28.8l-22.5 0l0 28.8" fill="none"/>
<path d="M555.6 410.4l27 0l0 -28.8l-27 0z" fill="#b2b2ff" stroke="#b2b2ff"/>
<path d="M555.6 410.4l27 0l0 -28.8l-27 0l0 28.8" fill="none"/>
<path d="M168.6 446.4l31.5 0l0 -28.8l-31.5 0z" fill="#b2b2ff" stroke="#b2b2ff"/>
<path d="M168.6 446.4l31.5 0l0 -28.8l-31.5 0l0 28.8" fill="none"/>
<path d="M236.1 446.4l31.5 0l0 -28.8l-31.5 0z" fill="#b2b2ff" stroke="#b2b2ff"/>
<path d="M236.1 446.4l31.5 0l0 -28.8l-31.5 0l0 28.8" fill="none"/>
<path d="M272.1 446.4l22.5 0l0 -28.8l-22.5 0z" fill="#b2b2ff" stroke="#b2b2ff"/>
<path d="M272.1 446.4l22.5 0l0 -28.8l-22.5 0l0 28.8" fill="none"/>
<path d="M294.6 446.4l31.5 0l0 -28.8l-31.5 0z" fill="#b2b2ff" stroke="#b2b2ff"/>
<path d="M294.6 446.4l31.5 0l0 -28.8l-31.5 0l0 28.8" fill="none"/>
<path d="M326.1 446.4l13.5 0l0 -28.8l-13.5 0z" fill="#b2b2ff" stroke="#b2b2ff"/>
<path d="M326.1 446.4l13.5 0l0 -28.8l-13.5 0l0 28.8" fill="none"/>
<path d="M357.6 446.4l9 0l0 -28.8l-9 0z" fill="#b2b2ff" stroke="#b2b2ff"/>
<path d="M357.6 446.4l9 0l0 -28.8l-9 0l0 28.8" fill="none"/>
<path d="M393.6 446.4l9 0l0 -28.8l-9 0z" fill="#b2b2ff" stroke="#b2b2ff"/>
<path d="M393.6 446.4l9 0l0 -28.8l-9 0l0 28.8" fill="none"/>
<path d="M447.6 446.4l36 0l0 -28.8l-36 0z" fill="#b2b2ff" stroke="#b2b2ff"/>
<path d="M447.6 446.4l36 0l0 -28.8l-36 0l0 28.8" fill="none"/>
<path d="M515.1 446.4l13.5 0l0 -28.8l-13.5 0z" fill="#b2b2ff" stroke="#b2b2ff"/>
<path d="M515.1 446.4l13.5 0l0 -28.8l-13.5 0l0 28.8" fill="none"/>
<path d="M564.6 446.4l40.5 0l0 -28.8l-40.5 0z" fill="#b2b2ff" stroke="#b2b2ff"/>
<path d="M564.6 446.4l40.5 0l0 -28.8l-40.5 0l0 28.8" fill="none"/>
<path d="M132.6 338.4l31.5 0l0 -28.8l-31.5 0z" fill="#b2b2ff" stroke="#b2b2ff"/>
<path d="M132.6 338.4l31.5 0l0 -28.8l-31.5 0l0 28.8" fill="none"/>
<path d="M191.1 338.4l31.5 0l0 -28.8l-31.5 0z" fill="#b2b2ff" stroke="#b2b2ff"/>
<path d="M191.1 338.4l31.5 0l0 -28.8l-31.5 0l0 28.8" fill="none"/>
<path d="M263.1 338.4l13.5 0l0 -28.8l-13.5 0z" fill="#b2b2ff" stroke="#b2b2ff"/>
<path d="M263.1 338.4l13.5 0l0 -28.8l-13.5 0l0 28.8" fill="none"/>
<path d="M312.6 338.4l9 0l0 -28.8l-9 0z" fill="#b2b2ff" stroke="#b2b2ff"/>
<path d="M312.6 338.4l9 0l0 -28.8l-9 0l0 28.8" fill="none"/>
<path d="M357.6 338.4l9 0l0 -28.8l-9 0z" fill="#b2b2ff" stroke="#b2b2ff"/>
<path d="M357.6 338.4l9 0l0 -28.8l-9 0l0 28.8" fill="none"/>
<path d="M371.1 338.4l45 0l0 -28.8l-45 0z" fill="#b2b2ff" stroke="#b2b2ff"/>
<path d="M371.1 338.4l45 0l0 -28.8l-45 0l0 28.8" fill="none"/>
<path d="M461.1 338.4l27 0l0 -28.8l-27 0z" fill="#b2b2ff" stroke="#b2b2ff"/>
<path d="M461.1 338.4l27 0l0 -28.8l-27 0l0 28.8" fill="none"/>
<path d="M519.6 338.4l18 0l0 -28.8l-18 0z" fill="#b2b2ff" stroke="#b2b2ff"/>
<path d="M519.6 338.4l18 0l0 -28.8l-18 0l0 28.8" fill="none"/>
<path d="M573.6 338.4l18 0l0 -28.8l-18 0z" fill="#b2b2ff" stroke="#b2b2ff"/>
<path d="M573.6 338.4l18 0l0 -28.8l-18 0l0 28.8" fill="none"/>
<path d="M623.1 338.4l36 0l0 -28.8l-36 0z" fill="#b2b2ff" stroke="#b2b2ff"/>
<path d="M623.1 338.4l36 0l0 -28.8l-36 0l0 28.8" fill="none"/>
<path d="M164.1 374.4l18 0l0 -28.8l-18 0z" fill="#b2b2ff" stroke="#b2b2ff"/>
<path d="M164.1 374.4l18 0l0 -28.8l-18 0l0 28.8" fill="none"/>
<path d="M204.6 374.4l13.5 0l0 -28.8l-13.5 0z" fill="#b2b2ff" stroke="#b2b2ff"/>
<path d="M204.6 374.4l13.5 0l0 -28.8l-13.5 0l0 28.8" fill="none"/>
<path d="M258.6 374.4l22.5 0l0 -28.8l-22.5 0z" fill="#b2b2ff" stroke="#b2b2ff"/>
<path d="M258.6 374.4l22.5 0l0 -28.8l-22.5 0l0 28.8" fill="none"/>
<path d="M321.6 374.4l36 0l0 -28.8l-36 0z" fill="#b2b2ff" stroke="#b2b2ff"/>
<path d="M321.6 374.4l36 0l0 -28.8l-36 0l0 28.8" fill="none"/>
<path d="M389.1 374.4l13.5 0l0 -28.8l-13.5 0z" fill="#b2b2ff" stroke="#b2b2ff"/>
<path d="M389.1 374.4l13.5 0l0 -28.8l-13.5 0l0 28.8" fill="none"/>
<path d="M425.1 374.4l40.5 0l0 -28.8l-40.5 0z" fill="#b2b2ff" stroke="#b2b2ff"/>
<path d="M425.1 374.4l40.5 0l0 -28.8l-40.5 0l0 28.8" fill="none"/>
<path d="M479.1 374.4l27 0l0 -28.8l-27 0z" fill="#b2b2ff" stroke="#b2b2ff"/>
<path d="M479.1 374.4l27 0l0 -28.8l-27 0l0 28.8" fill="none"/>
<path d="M515.1 374.4l45 0l0 -28.8l-45 0z" fill="#b2b2ff" stroke="#b2b2ff"/>
<path d="M515.1 374.4l45 0l0 -28.8l-45 0l0 28.8" fill="none"/>
<path d="M569.1 374.4l22.5 0l0 -28.8l-22.5 0z" fill="#b2b2ff" stroke="#b2b2ff"/>
<path d="M569.1 374.4l22.5 0l0 -28.8l-22.5 0l0 28.8" fill="none"/>
<path d="M591.6 374.4l13.5 0l0 -28.8l-13.5 0z" fill="#b2b2ff" stroke="#b2b2ff"/>
<path d="M591.6 374.4l13.5 0l0 -28.8l-13.5 0l0 28.8" fill="none"/>
</g><g style="&sw;0.5;&fs;6pt;&am;">
<text x="145.29" y="471.20" stroke="none">exp-0-0</text>
<text x="206.04" y="471.20" stroke="none">exp-0-1</text>
<text x="237.54" y="471.20" stroke="none">exp-0-2</text>
<text x="300.54" y="471.20" stroke="none">exp-0-3</text>
<text x="372.54" y="471.20" stroke="none">exp-0-4</text>
<text x="426.54" y="471.20" stroke="none">exp-0-5</text>
<text x="491.79" y="471.20" stroke="none">exp-0-6</text>
<text x="521.04" y="471.20" stroke="none">exp-0-7</text>
<text x="575.04" y="471.20" stroke="none">exp-0-8</text>
<text x="633.54" y="471.20" stroke="none">exp-0-9</text>
<text x="165.54" y="399.20" stroke="none">exp-1-0</text>
<text x="206.04" y="399.20" stroke="none">exp-1-1</text>
<text x="271.29" y="399.20" stroke="none">exp-1-2</text>
<text x="291.54" y="399.20" stroke="none">exp-1-3</text>
<text x="341.04" y="399.20" stroke="none">exp-1-4</text>
<text x="406.29" y="399.20" stroke="none">exp-1-5</text>
<text x="442.29" y="399.20" stroke="none">exp-1-6</text>
<text x="487.29" y="399.20" stroke="none">exp-1-7</text>
<text x="527.79" y="399.20" stroke="none">exp-1-8</text>
<text x="570.54" y="399.20" stroke="none">exp-1-9</text>
<text x="185.79" y="435.20" stroke="none">exp-2-0</text>
<text x="253.29" y="435.20" stroke="none">exp-2-1</text>
<text x="284.79" y="435.20" stroke="none">exp-2-2</text>
<text x="311.79" y="435.20" stroke="none">exp-2-3</text>
<text x="334.29" y="435.20" stroke="none">exp-2-4</text>
<text x="363.54" y="435.20" stroke="none">exp-2-5</text>
<text x="399.54" y="435.20" stroke="none">exp-2-6</text>
<text x="467.04" y="435.20" stroke="none">exp-2-7</text>
<text x="523.29" y="435.20" stroke="none">exp-2-8</text>
<text x="586.29" y="435.20" stroke="none">exp-2-9</text>
<text x="149.79" y="327.20" stroke="none">exp-3-0</text>
<text x="208.29" y="327.20" stroke="none">exp-3-1</text>
<text x="271.29" y="327.20" stroke="none">exp-3-2</text>
<text x="318.54" y="327.20" stroke="none">exp-3-3</text>
<text x="363.54" y="327.20" stroke="none">exp-3-4</text>
<text x="395.04" y="327.20" stroke="none">exp-3-5</text>
<text x="476.04" y="327.20" stroke="none">exp-3-6</text>
<text x="530.04" y="327.20" stroke="none">exp-3-7</text>
<text x="584.04" y="327.20" stroke="none">exp-3-8</text>
<text x="642.54" y="327.20" stroke="none">exp-3-9</text>
<text x="174.54" y="363.20" stroke="none">exp-4-0</text>
<text x="212.79" y="363.20" stroke="none">exp-4-1</text>
<text x="271.29" y="363.20" stroke="none">exp-4-2</text>
<text x="341.04" y="363.20" stroke="none">exp-4-3</text>
<text x="397.29" y="363.20" stroke="none">exp-4-4</text>
<text x="446.79" y="363.20" stroke="none">exp-4-5</text>
<text x="494.04" y="363.20" stroke="none">exp-4-6</text>
<text x="539.04" y="363.20" stroke="none">exp-4-7</text>
<text x="581.79" y="363.20" stroke="none">exp-4-8</text>
<text x="599.79" y="363.20" stroke="none">exp-4-9</text>
</g></g>
</g>
</svg>
