<?xml version="1.0" encoding="iso-8859-1" standalone="no"?>
<!DOCTYPE svg PUBLIC "-//W3C//DTD SVG 20010904//EN" 
  "http://www.w3.org/TR/2001/REC-SVG-20010904/DTD/svg10.dtd" [ 
<!ENTITY ff "font-family:">
<!ENTITY fs "font-size:">
<!ENTITY fw "font-weight:">
<!ENTITY fst "font-style:">
<!ENTITY sw "stroke-width:">
<!ENTITY as "text-anchor:start;">
<!ENTITY am "text-anchor:middle;">
<!ENTITY ae "text-anchor:end;">
]>
<!-- Generated by ploticus (http://ploticus.sourceforge.net/)
Title: ploticus-graphic
SVG Driver by B.Traill
-->
<svg xmlns="http://www.w3.org/2000/svg" 
  viewBox="0 0 708.80 283.28"      
  xmlns:xlink="http://www.w3.org/1999/xlink"
>
<g transform="translate(-31.20,-260.16)" >                                                       

<g style="fill:#000000;stroke:#000000;&ff;Helvetica;">
<g style="&sw;0.6;&fs;10pt;&as;">
<text x="72.00" y="286.56" stroke="none">Cloudmesh Reservation</text>
</g><g style="&sw;0.6;&fs;8pt;&am;">
<text x="72.00" y="519.04" stroke="none">27</text>
<text x="72.00" y="529.04" stroke="none">Jun14</text>
</g><g style="&sw;0.5;&fs;8pt;&am;">
<path d="M72 509l0 -5.04" fill="none"/>
<text x="180.00" y="519.04" stroke="none">28</text>
<path d="M180 509l0 -5.04" fill="none"/>
<text x="288.00" y="519.04" stroke="none">29</text>
<path d="M288 509l0 -5.04" fill="none"/>
<text x="396.00" y="519.04" stroke="none">30</text>
<path d="M396 509l0 -5.04" fill="none"/>
<text x="504.00" y="519.04" stroke="none">1</text>
<text x="504.00" y="529.04" stroke="none">Jul14</text>
<path d="M504 509l0 -5.04" fill="none"/>
<text x="612.00" y="519.04" stroke="none">2</text>
<path d="M612 509l0 -5.04" fill="none"/>
<text x="720.00" y="519.04" stroke="none">3</text>
<path d="M720 509l0 -5.04" fill="none"/>
<path d="M72 504l648 0" fill="none"/>
</g><g style="&sw;0.5;&fs;8pt;&ae;">
<text x="61.20" y="327.00" stroke="none">m04</text>
<path d="M66.96 324l5.04 0" fill="none"/>
<text x="61.20" y="363.00" stroke="none">m05</text>
<path d="M66.96 360l5.04 0" fill="none"/>
<text x="61.20" y="399.00" stroke="none">m02</text>
<path d="M66.96 396l5.04 0" fill="none"/>
<text x="61.20" y="435.00" stroke="none">m03</text>
<path d="M66.96 432l5.04 0" fill="none"/>
<text x="61.20" y="471.00" stroke="none">m01</text>
<path d="M66.96 468l5.04 0" fill="none"/>
<path d="M72 504l0 -216" fill="none"/>
<path d="M600.3 410.4l45 0l0 -28.8l-45 0z" fill="#b2b2ff" stroke="#b2b2ff"/>
<path d="M600.3 410.4l45 0l0 -28.8l-45 0l0 28.8" fill="none"/>
<path d="M177.3 446.4l27 0l0 -28.8l-27 0z" fill="#b2b2ff" stroke="#b2b2ff"/>
<path d="M177.3 446.4l27 0l0 -28.8l-27 0l0 28.8" fill="none"/>
<path d="M217.8 446.4l9 0l0 -28.8l-9 0z" fill="#b2b2ff" stroke="#b2b2ff"/>
<path d="M217.8 446.4l9 0l0 -28.8l-9 0l0 28.8" fill="none"/>
<path d="M249.3 446.4l0 0l0 -28.8l0 0z" fill="#b2b2ff" stroke="#b2b2ff"/>
<path d="M249.3 446.4l0 0l0 -28.8l0 0l0 28.8" fill="none"/>
<path d="M267.3 446.4l22.5 0l0 -28.8l-22.5 0z" fill="#b2b2ff" stroke="#b2b2ff"/>
<path d="M267.3 446.4l22.5 0l0 -28.8l-22.5 0l0 28.8" fill="none"/>
<path d="M298.8 446.4l0 0l0 -28.8l0 0z" fill="#b2b2ff" stroke="#b2b2ff"/>
<path d="M298.8 446.4l0 0l0 -28.8l0 0l0 28.8" fill="none"/>
<path d="M334.8 446.4l40.5 0l0 -28.8l-40.5 0z" fill="#b2b2ff" stroke="#b2b2ff"/>
<path d="M334.8 446.4l40.5 0l0 -28.8l-40.5 0l0 28.8" fill="none"/>
<path d="M388.8 446.4l40.5 0l0 -28.8l-40.5 0z" fill="#b2b2ff" stroke="#b2b2ff"/>
<path d="M388.8 446.4l40.5 0l0 -28.8l-40.5 0l0 28.8" fill="none"/>
<path d="M447.3 446.4l22.5 0l0 -28.8l-22.5 0z" fill="#b2b2ff" stroke="#b2b2ff"/>
<path d="M447.3 446.4l22.5 0l0 -28.8l-22.5 0l0 28.8" fill="none"/>
<path d="M478.8 446.4l22.5 0l0 -28.8l-22.5 0z" fill="#b2b2ff" stroke="#b2b2ff"/>
<path d="M478.8 446.4l22.5 0l0 -28.8l-22.5 0l0 28.8" fill="none"/>
<path d="M505.8 446.4l31.5 0l0 -28.8l-31.5 0z" fill="#b2b2ff" stroke="#b2b2ff"/>
<path d="M505.8 446.4l31.5 0l0 -28.8l-31.5 0l0 28.8" fill="none"/>
<path d="M186.3 338.4l9 0l0 -28.8l-9 0z" fill="#b2b2ff" stroke="#b2b2ff"/>
<path d="M186.3 338.4l9 0l0 -28.8l-9 0l0 28.8" fill="none"/>
<path d="M213.3 338.4l36 0l0 -28.8l-36 0z" fill="#b2b2ff" stroke="#b2b2ff"/>
<path d="M213.3 338.4l36 0l0 -28.8l-36 0l0 28.8" fill="none"/>
<path d="M280.8 338.4l31.5 0l0 -28.8l-31.5 0z" fill="#b2b2ff" stroke="#b2b2ff"/>
<path d="M280.8 338.4l31.5 0l0 -28.8l-31.5 0l0 28.8" fill="none"/>
<path d="M312.3 338.4l22.5 0l0 -28.8l-22.5 0z" fill="#b2b2ff" stroke="#b2b2ff"/>
<path d="M312.3 338.4l22.5 0l0 -28.8l-22.5 0l0 28.8" fill="none"/>
<path d="M334.8 338.4l40.5 0l0 -28.8l-40.5 0z" fill="#b2b2ff" stroke="#b2b2ff"/>
<path d="M334.8 338.4l40.5 0l0 -28.8l-40.5 0l0 28.8" fill="none"/>
<path d="M420.3 338.4l45 0l0 -28.8l-45 0z" fill="#b2b2ff" stroke="#b2b2ff"/>
<path d="M420.3 338.4l45 0l0 -28.8l-45 0l0 28.8" fill="none"/>
<path d="M483.3 338.4l22.5 0l0 -28.8l-22.5 0z" fill="#b2b2ff" stroke="#b2b2ff"/>
<path d="M483.3 338.4l22.5 0l0 -28.8l-22.5 0l0 28.8" fill="none"/>
<path d="M550.8 338.4l4.5 0l0 -28.8l-4.5 0z" fill="#b2b2ff" stroke="#b2b2ff"/>
<path d="M550.8 338.4l4.5 0l0 -28.8l-4.5 0l0 28.8" fill="none"/>
<path d="M591.3 338.4l9 0l0 -28.8l-9 0z" fill="#b2b2ff" stroke="#b2b2ff"/>
<path d="M591.3 338.4l9 0l0 -28.8l-9 0l0 28.8" fill="none"/>
<path d="M618.3 338.4l9 0l0 -28.8l-9 0z" fill="#b2b2ff" stroke="#b2b2ff"/>
<path d="M618.3 338.4l9 0l0 -28.8l-9 0l0 28.8" fill="none"/>
<path d="M141.3 374.4l22.5 0l0 -28.8l-22.5 0z" fill="#b2b2ff" stroke="#b2b2ff"/>
<path d="M141.3 374.4l22.5 0l0 -28.8l-22.5 0l0 28.8" fill="none"/>
<path d="M163.8 374.4l31.5 0l0 -28.8l-31.5 0z" fill="#b2b2ff" stroke="#b2b2ff"/>
<path d="M163.8 374.4l31.5 0l0 -28.8l-31.5 0l0 28.8" fill="none"/>
<path d="M226.8 374.4l9 0l0 -28.8l-9 0z" fill="#b2b2ff" stroke="#b2b2ff"/>
<path d="M226.8 374.4l9 0l0 -28.8l-9 0l0 28.8" fill="none"/>
<path d="M244.8 374.4l4.5 0l0 -28.8l-4.5 0z" fill="#b2b2ff" stroke="#b2b2ff"/>
<path d="M244.8 374.4l4.5 0l0 -28.8l-4.5 0l0 28.8" fill="none"/>
<path d="M249.3 374.4l18 0l0 -28.8l-18 0z" fill="#b2b2ff" stroke="#b2b2ff"/>
<path d="M249.3 374.4l18 0l0 -28.8l-18 0l0 28.8" fill="none"/>
<path d="M307.8 374.4l4.5 0l0 -28.8l-4.5 0z" fill="#b2b2ff" stroke="#b2b2ff"/>
<path d="M307.8 374.4l4.5 0l0 -28.8l-4.5 0l0 28.8" fill="none"/>
<path d="M330.3 374.4l27 0l0 -28.8l-27 0z" fill="#b2b2ff" stroke="#b2b2ff"/>
<path d="M330.3 374.4l27 0l0 -28.8l-27 0l0 28.8" fill="none"/>
<path d="M366.3 374.4l13.5 0l0 -28.8l-13.5 0z" fill="#b2b2ff" stroke="#b2b2ff"/>
<path d="M366.3 374.4l13.5 0l0 -28.8l-13.5 0l0 28.8" fill="none"/>
<path d="M411.3 374.4l18 0l0 -28.8l-18 0z" fill="#b2b2ff" stroke="#b2b2ff"/>
<path d="M411.3 374.4l18 0l0 -28.8l-18 0l0 28.8" fill="none"/>
<path d="M460.8 374.4l31.5 0l0 -28.8l-31.5 0z" fill="#b2b2ff" stroke="#b2b2ff"/>
<path d="M460.8 374.4l31.5 0l0 -28.8l-31.5 0l0 28.8" fill="none"/>
<path d="M150.3 482.4l36 0l0 -28.8l-36 0z" fill="#b2b2ff" stroke="#b2b2ff"/>
<path d="M150.3 482.4l36 0l0 -28.8l-36 0l0 28.8" fill="none"/>
<path d="M195.3 482.4l36 0l0 -28.8l-36 0z" fill="#b2b2ff" stroke="#b2b2ff"/>
<path d="M195.3 482.4l36 0l0 -28.8l-36 0l0 28.8" fill="none"/>
<path d="M244.8 482.4l36 0l0 -28.8l-36 0z" fill="#b2b2ff" stroke="#b2b2ff"/>
<path d="M244.8 482.4l36 0l0 -28.8l-36 0l0 28.8" fill="none"/>
<path d="M289.8 482.4l36 0l0 -28.8l-36 0z" fill="#b2b2ff" stroke="#b2b2ff"/>
<path d="M289.8 482.4l36 0l0 -28.8l-36 0l0 28.8" fill="none"/>
<path d="M334.8 482.4l9 0l0 -28.8l-9 0z" fill="#b2b2ff" stroke="#b2b2ff"/>
<path d="M334.8 482.4l9 0l0 -28.8l-9 0l0 28.8" fill="none"/>
<path d="M343.8 482.4l40.5 0l0 -28.8l-40.5 0z" fill="#b2b2ff" stroke="#b2b2ff"/>
<path d="M343.8 482.4l40.5 0l0 -28.8l-40.5 0l0 28.8" fill="none"/>
<path d="M393.3 482.4l18 0l0 -28.8l-18 0z" fill="#b2b2ff" stroke="#b2b2ff"/>
<path d="M393.3 482.4l18 0l0 -28.8l-18 0l0 28.8" fill="none"/>
<path d="M415.8 482.4l9 0l0 -28.8l-9 0z" fill="#b2b2ff" stroke="#b2b2ff"/>
<path d="M415.8 482.4l9 0l0 -28.8l-9 0l0 28.8" fill="none"/>
<path d="M451.8 482.4l45 0l0 -28.8l-45 0z" fill="#b2b2ff" stroke="#b2b2ff"/>
<path d="M451.8 482.4l45 0l0 -28.8l-45 0l0 28.8" fill="none"/>
<path d="M528.3 482.4l27 0l0 -28.8l-27 0z" fill="#b2b2ff" stroke="#b2b2ff"/>
<path d="M528.3 482.4l27 0l0 -28.8l-27 0l0 28.8" fill="none"/>
<path d="M141.3 410.4l4.5 0l0 -28.8l-4.5 0z" fill="#b2b2ff" stroke="#b2b2ff"/>
<path d="M141.3 410.4l4.5 0l0 -28.8l-4.5 0l0 28.8" fill="none"/>
<path d="M172.8 410.4l9 0l0 -28.8l-9 0z" fill="#b2b2ff" stroke="#b2b2ff"/>
<path d="M172.8 410.4l9 0l0 -28.8l-9 0l0 28.8" fill="none"/>
<path d="M217.8 410.4l22.5 0l0 -28.8l-22.5 0z" fill="#b2b2ff" stroke="#b2b2ff"/>
<path d="M217.8 410.4l22.5 0l0 -28.8l-22.5 0l0 28.8" fill="none"/>
<path d="M262.8 410.4l22.5 0l0 -28.8l-22.5 0z" fill="#b2b2ff" stroke="#b2b2ff"/>
<path d="M262.8 410.4l22.5 0l0 -28.8l-22.5 0l0 28.8" fill="none"/>
<path d="M316.8 410.4l18 0l0 -28.8l-18 0z" fill="#b2b2ff" stroke="#b2b2ff"/>
<path d="M316.8 410.4l18 0l0 -28.8l-18 0l0 28.8" fill="none"/>
<path d="M343.8 410.4l36 0l0 -28.8l-36 0z" fill="#b2b2ff" stroke="#b2b2ff"/>
<path d="M343.8 410.4l36 0l0 -28.8l-36 0l0 28.8" fill="none"/>
<path d="M406.8 410.4l22.5 0l0 -28.8l-22.5 0z" fill="#b2b2ff" stroke="#b2b2ff"/>
<path d="M406.8 410.4l22.5 0l0 -28.8l-22.5 0l0 28.8" fill="none"/>
<path d="M451.8 410.4l40.5 0l0 -28.8l-40.5 0z" fill="#b2b2ff" stroke="#b2b2ff"/>
<path d="M451.8 410.4l40.5 0l0 -28.8l-40.5 0l0 28.8" fill="none"/>
<path d="M532.8 410.4l27 0l0 -28.8l-27 0z" fill="#b2b2ff" stroke="#b2b2ff"/>
<path d="M532.8 410.4l27 0l0 -28.8l-27 0l0 28.8" fill="none"/>
</g><g style="&sw;0.5;&fs;6pt;&am;">
<text x="624.24" y="399.20" stroke="none">exp-1-9</text>
<text x="192.24" y="435.20" stroke="none">exp-2-0</text>
<text x="223.74" y="435.20" stroke="none">exp-2-1</text>
<text x="250.74" y="435.20" stroke="none">exp-2-2</text>
<text x="279.99" y="435.20" stroke="none">exp-2-3</text>
<text x="300.24" y="435.20" stroke="none">exp-2-4</text>
<text x="356.49" y="435.20" stroke="none">exp-2-5</text>
<text x="410.49" y="435.20" stroke="none">exp-2-6</text>
<text x="459.99" y="435.20" stroke="none">exp-2-7</text>
<text x="491.49" y="435.20" stroke="none">exp-2-8</text>
<text x="522.99" y="435.20" stroke="none">exp-2-9</text>
<text x="192.24" y="327.20" stroke="none">exp-3-0</text>
<text x="232.74" y="327.20" stroke="none">exp-3-1</text>
<text x="297.99" y="327.20" stroke="none">exp-3-2</text>
<text x="324.99" y="327.20" stroke="none">exp-3-3</text>
<text x="356.49" y="327.20" stroke="none">exp-3-4</text>
<text x="444.24" y="327.20" stroke="none">exp-3-5</text>
<text x="495.99" y="327.20" stroke="none">exp-3-6</text>
<text x="554.49" y="327.20" stroke="none">exp-3-7</text>
<text x="597.24" y="327.20" stroke="none">exp-3-8</text>
<text x="624.24" y="327.20" stroke="none">exp-3-9</text>
<text x="153.99" y="363.20" stroke="none">exp-4-0</text>
<text x="180.99" y="363.20" stroke="none">exp-4-1</text>
<text x="232.74" y="363.20" stroke="none">exp-4-2</text>
<text x="248.49" y="363.20" stroke="none">exp-4-3</text>
<text x="259.74" y="363.20" stroke="none">exp-4-4</text>
<text x="311.49" y="363.20" stroke="none">exp-4-5</text>
<text x="345.24" y="363.20" stroke="none">exp-4-6</text>
<text x="374.49" y="363.20" stroke="none">exp-4-7</text>
<text x="421.74" y="363.20" stroke="none">exp-4-8</text>
<text x="477.99" y="363.20" stroke="none">exp-4-9</text>
<text x="169.74" y="471.20" stroke="none">exp-0-0</text>
<text x="214.74" y="471.20" stroke="none">exp-0-1</text>
<text x="264.24" y="471.20" stroke="none">exp-0-2</text>
<text x="309.24" y="471.20" stroke="none">exp-0-3</text>
<text x="340.74" y="471.20" stroke="none">exp-0-4</text>
<text x="365.49" y="471.20" stroke="none">exp-0-5</text>
<text x="403.74" y="471.20" stroke="none">exp-0-6</text>
<text x="421.74" y="471.20" stroke="none">exp-0-7</text>
<text x="475.74" y="471.20" stroke="none">exp-0-8</text>
<text x="543.24" y="471.20" stroke="none">exp-0-9</text>
<text x="144.99" y="399.20" stroke="none">exp-1-0</text>
<text x="178.74" y="399.20" stroke="none">exp-1-1</text>
<text x="230.49" y="399.20" stroke="none">exp-1-2</text>
<text x="275.49" y="399.20" stroke="none">exp-1-3</text>
<text x="327.24" y="399.20" stroke="none">exp-1-4</text>
<text x="363.24" y="399.20" stroke="none">exp-1-5</text>
<text x="419.49" y="399.20" stroke="none">exp-1-6</text>
<text x="473.49" y="399.20" stroke="none">exp-1-7</text>
<text x="547.74" y="399.20" stroke="none">exp-1-8</text>
</g></g>
</g>
</svg>
