<?xml version="1.0" encoding="iso-8859-1" standalone="no"?>
<!DOCTYPE svg PUBLIC "-//W3C//DTD SVG 20010904//EN" 
  "http://www.w3.org/TR/2001/REC-SVG-20010904/DTD/svg10.dtd" [ 
<!ENTITY ff "font-family:">
<!ENTITY fs "font-size:">
<!ENTITY fw "font-weight:">
<!ENTITY fst "font-style:">
<!ENTITY sw "stroke-width:">
<!ENTITY as "text-anchor:start;">
<!ENTITY am "text-anchor:middle;">
<!ENTITY ae "text-anchor:end;">
]>
<!-- Generated by ploticus (http://ploticus.sourceforge.net/)
Title: ploticus-graphic
SVG Driver by B.Traill
-->
<svg xmlns="http://www.w3.org/2000/svg" 
  viewBox="0 0 714.80 643.28"      
  xmlns:xlink="http://www.w3.org/1999/xlink"
>
<g transform="translate(-27.20,99.84)" >                                                         

<g style="fill:#000000;stroke:#000000;&ff;Helvetica;">
<g style="&sw;0.6;&fs;10pt;&as;">
<text x="72.00" y="-73.44" stroke="none">Cloudmesh Reservation</text>
</g><g style="&sw;0.6;&fs;8pt;&am;">
<text x="72.00" y="519.04" stroke="none">11</text>
<text x="72.00" y="529.04" stroke="none">Jul14</text>
</g><g style="&sw;0.5;&fs;8pt;&am;">
<path d="M72 509l0 -5.04" fill="none"/>
<text x="115.20" y="519.04" stroke="none">12</text>
<path d="M115.2 509l0 -5.04" fill="none"/>
<text x="158.40" y="519.04" stroke="none">13</text>
<path d="M158.4 509l0 -5.04" fill="none"/>
<text x="201.60" y="519.04" stroke="none">14</text>
<path d="M201.6 509l0 -5.04" fill="none"/>
<text x="244.80" y="519.04" stroke="none">15</text>
<path d="M244.8 509l0 -5.04" fill="none"/>
<text x="288.00" y="519.04" stroke="none">16</text>
<path d="M288 509l0 -5.04" fill="none"/>
<text x="331.20" y="519.04" stroke="none">17</text>
<path d="M331.2 509l0 -5.04" fill="none"/>
<text x="374.40" y="519.04" stroke="none">18</text>
<path d="M374.4 509l0 -5.04" fill="none"/>
<text x="417.60" y="519.04" stroke="none">19</text>
<path d="M417.6 509l0 -5.04" fill="none"/>
<text x="460.80" y="519.04" stroke="none">20</text>
<path d="M460.8 509l0 -5.04" fill="none"/>
<text x="504.00" y="519.04" stroke="none">21</text>
<path d="M504 509l0 -5.04" fill="none"/>
<text x="547.20" y="519.04" stroke="none">22</text>
<path d="M547.2 509l0 -5.04" fill="none"/>
<text x="590.40" y="519.04" stroke="none">23</text>
<path d="M590.4 509l0 -5.04" fill="none"/>
<text x="633.60" y="519.04" stroke="none">24</text>
<path d="M633.6 509l0 -5.04" fill="none"/>
<text x="676.80" y="519.04" stroke="none">25</text>
<path d="M676.8 509l0 -5.04" fill="none"/>
<text x="720.00" y="519.04" stroke="none">26</text>
<path d="M720 509l0 -5.04" fill="none"/>
<path d="M72 504l648 0" fill="none"/>
</g><g style="&sw;0.5;&fs;8pt;&ae;">
<text x="61.20" y="-16.64" stroke="none">i007</text>
<path d="M66.96 -19.64l5.04 0" fill="none"/>
<text x="61.20" y="35.73" stroke="none">i006</text>
<path d="M66.96 32.73l5.04 0" fill="none"/>
<text x="61.20" y="88.09" stroke="none">i005</text>
<path d="M66.96 85.09l5.04 0" fill="none"/>
<text x="61.20" y="140.45" stroke="none">i004</text>
<path d="M66.96 137.5l5.04 0" fill="none"/>
<text x="61.20" y="192.82" stroke="none">i003</text>
<path d="M66.96 189.8l5.04 0" fill="none"/>
<text x="61.20" y="245.18" stroke="none">i002</text>
<path d="M66.96 242.2l5.04 0" fill="none"/>
<text x="61.20" y="297.55" stroke="none">i001</text>
<path d="M66.96 294.5l5.04 0" fill="none"/>
<text x="61.20" y="349.91" stroke="none">i009</text>
<path d="M66.96 346.9l5.04 0" fill="none"/>
<text x="61.20" y="402.27" stroke="none">i008</text>
<path d="M66.96 399.3l5.04 0" fill="none"/>
<text x="61.20" y="454.64" stroke="none">i010</text>
<path d="M66.96 451.6l5.04 0" fill="none"/>
<path d="M72 504l0 -576" fill="none"/>
<path d="M93.69 315.5l604.8 0l0 -41.89l-604.8 0z" fill="#b2b2ff" stroke="#b2b2ff"/>
<path d="M93.69 315.5l604.8 0l0 -41.89l-604.8 0l0 41.89" fill="none"/>
<path d="M93.69 263.1l604.8 0l0 -41.89l-604.8 0z" fill="#b2b2ff" stroke="#b2b2ff"/>
<path d="M93.69 263.1l604.8 0l0 -41.89l-604.8 0l0 41.89" fill="none"/>
<path d="M93.69 210.8l604.8 0l0 -41.89l-604.8 0z" fill="#b2b2ff" stroke="#b2b2ff"/>
<path d="M93.69 210.8l604.8 0l0 -41.89l-604.8 0l0 41.89" fill="none"/>
<path d="M93.69 158.4l604.8 0l0 -41.89l-604.8 0z" fill="#b2b2ff" stroke="#b2b2ff"/>
<path d="M93.69 158.4l604.8 0l0 -41.89l-604.8 0l0 41.89" fill="none"/>
<path d="M93.69 106l604.8 0l0 -41.89l-604.8 0z" fill="#b2b2ff" stroke="#b2b2ff"/>
<path d="M93.69 106l604.8 0l0 -41.89l-604.8 0l0 41.89" fill="none"/>
<path d="M93.69 53.67l604.8 0l0 -41.89l-604.8 0z" fill="#b2b2ff" stroke="#b2b2ff"/>
<path d="M93.69 53.67l604.8 0l0 -41.89l-604.8 0l0 41.89" fill="none"/>
<path d="M93.69 1.309l604.8 0l0 -41.89l-604.8 0z" fill="#b2b2ff" stroke="#b2b2ff"/>
<path d="M93.69 1.309l604.8 0l0 -41.89l-604.8 0l0 41.89" fill="none"/>
<path d="M93.69 420.2l604.8 0l0 -41.89l-604.8 0z" fill="#b2b2ff" stroke="#b2b2ff"/>
<path d="M93.69 420.2l604.8 0l0 -41.89l-604.8 0l0 41.89" fill="none"/>
<path d="M93.69 367.9l604.8 0l0 -41.89l-604.8 0z" fill="#b2b2ff" stroke="#b2b2ff"/>
<path d="M93.69 367.9l604.8 0l0 -41.89l-604.8 0l0 41.89" fill="none"/>
<path d="M93.69 472.6l604.8 0l0 -41.89l-604.8 0z" fill="#b2b2ff" stroke="#b2b2ff"/>
<path d="M93.69 472.6l604.8 0l0 -41.89l-604.8 0l0 41.89" fill="none"/>
</g><g style="&sw;0.5;&fs;6pt;&am;">
<text x="397.53" y="297.75" stroke="none">exp1</text>
<text x="397.53" y="245.38" stroke="none">exp1</text>
<text x="397.53" y="193.02" stroke="none">exp1</text>
<text x="397.53" y="140.65" stroke="none">exp1</text>
<text x="397.53" y="88.29" stroke="none">exp1</text>
<text x="397.53" y="35.93" stroke="none">exp1</text>
<text x="397.53" y="-16.44" stroke="none">exp1</text>
<text x="397.53" y="402.47" stroke="none">exp1</text>
<text x="397.53" y="350.11" stroke="none">exp1</text>
<text x="397.53" y="454.84" stroke="none">exp1</text>
</g></g>
</g>
</svg>
